CascadiaCode-Italic.ufo
<glyph name="exclam" format="2">
  <advance width="1200"/>
  <unicode hex="0021"/>
  <outline>
    <contour>
      <point x="511" y="456" type="line"/>
      <point x="663" y="456" type="line"/>
      <point x="867" y="1430" type="line"/>
      <point x="652" y="1430" type="line"/>
    </contour>
    <component base="period"/>
  </outline>
</glyph>
<glyph name="numbersign" format="2">
  <advance width="1200"/>
  <unicode hex="0023"/>
  <outline>
    <contour>
      <point x="577" y="0" type="line"/>
      <point x="758" y="0" type="line"/>
      <point x="1123" y="1420" type="line"/>
      <point x="942" y="1420" type="line"/>
    </contour>
    <contour>
      <point x="70" y="360" type="line"/>
      <point x="1070" y="360" type="line"/>
      <point x="1100" y="530" type="line"/>
      <point x="100" y="530" type="line"/>
    </contour>
    <contour>
      <point x="141" y="0" type="line"/>
      <point x="322" y="0" type="line"/>
      <point x="687" y="1420" type="line"/>
      <point x="506" y="1420" type="line"/>
    </contour>
    <contour>
      <point x="163" y="890" type="line"/>
      <point x="1163" y="890" type="line"/>
      <point x="1193" y="1060" type="line"/>
      <point x="193" y="1060" type="line"/>
    </contour>
  </outline>
</glyph>
<glyph name="dollar" format="2">
  <advance width="1200"/>
  <unicode hex="0024"/>
  <outline>
    <contour>
      <point x="401" y="-320" type="line"/>
      <point x="542" y="-320" type="line"/>
      <point x="905" y="1740" type="line"/>
      <point x="764" y="1740" type="line"/>
    </contour>
    <component base="S"/>
  </outline>
</glyph>
<glyph name="percent" format="2">
  <advance width="1200"/>
  <unicode hex="0025"/>
  <outline>
    <contour>
      <point x="158" y="284" type="line"/>
      <point x="1178" y="1012" type="line"/>
      <point x="1114" y="1122" type="line"/>
      <point x="93" y="400" type="line"/>
    </contour>
    <component base="zerosuperior" xOffset="-260"/>
    <component base="zeroinferior" xOffset="270"/>
  </outline>
</glyph>
<glyph name="ampersand" format="2">
  <advance width="1200"/>
  <unicode hex="0026"/>
  <outline>
    <contour>
      <point x="767" y="440" type="line"/>
      <point x="771" y="428"/>
      <point x="774" y="414"/>
      <point x="774" y="402" type="curve" smooth="yes"/>
      <point x="774" y="252"/>
      <point x="665" y="164"/>
      <point x="482" y="164" type="curve" smooth="yes"/>
      <point x="329" y="164"/>
      <point x="238" y="232"/>
      <point x="238" y="349" type="curve" smooth="yes"/>
      <point x="238" y="569"/>
      <point x="444" y="724"/>
      <point x="793" y="770" type="curve"/>
      <point x="795" y="910" type="line"/>
      <point x="664" y="881" type="line"/>
      <point x="264" y="831"/>
      <point x="28" y="630"/>
      <point x="28" y="343" type="curve" smooth="yes"/>
      <point x="28" y="114"/>
      <point x="187" y="-20"/>
      <point x="456" y="-20" type="curve" smooth="yes"/>
      <point x="778" y="-20"/>
      <point x="969" y="142"/>
      <point x="969" y="416" type="curve" smooth="yes"/>
      <point x="969" y="436"/>
      <point x="966" y="460"/>
      <point x="962" y="480" type="curve"/>
    </contour>
    <contour>
      <point x="1120" y="678" type="line"/>
      <point x="972" y="622"/>
      <point x="756" y="580"/>
      <point x="538" y="566" type="curve"/>
      <point x="558" y="385" type="line"/>
      <point x="789" y="398"/>
      <point x="1013" y="444"/>
      <point x="1162" y="507" type="curve"/>
    </contour>
    <contour>
      <point x="1155" y="1283" type="line"/>
      <point x="1061" y="1386"/>
      <point x="910" y="1440"/>
      <point x="715" y="1440" type="curve" smooth="yes"/>
      <point x="441" y="1440"/>
      <point x="278" y="1315"/>
      <point x="278" y="1103" type="curve" smooth="yes"/>
      <point x="278" y="978"/>
      <point x="376" y="891"/>
      <point x="514" y="869" type="curve"/>
      <point x="514" y="800" type="line"/>
      <point x="795" y="910" type="line"/>
      <point x="614" y="910"/>
      <point x="488" y="963"/>
      <point x="488" y="1079" type="curve" smooth="yes"/>
      <point x="488" y="1190"/>
      <point x="590" y="1256"/>
      <point x="725" y="1256" type="curve" smooth="yes"/>
      <point x="832" y="1256"/>
      <point x="929" y="1216"/>
      <point x="1008" y="1138" type="curve"/>
    </contour>
  </outline>
</glyph>
<glyph name="quotesingle" format="2">
  <advance width="1200"/>
  <unicode hex="0027"/>
  <outline>
    <contour>
      <point x="543" y="780" type="line"/>
      <point x="735" y="780" type="line"/>
      <point x="878" y="1420" type="line"/>
      <point x="636" y="1420" type="line"/>
    </contour>
  </outline>
</glyph>
<glyph name="parenleft" format="2">
  <advance width="1200"/>
  <unicode hex="0028"/>
  <outline>
    <contour>
      <point x="1189" y="1620" type="line"/>
      <point x="1133" y="1620" type="line" smooth="yes"/>
      <point x="703" y="1620"/>
      <point x="398" y="1302"/>
      <point x="307" y="764" type="curve" smooth="yes"/>
      <point x="206" y="158"/>
      <point x="395" y="-200"/>
      <point x="813" y="-200" type="curve" smooth="yes"/>
      <point x="868" y="-200" type="line"/>
      <point x="900" y="-20" type="line"/>
      <point x="864" y="-20" type="line" smooth="yes"/>
      <point x="577" y="-20"/>
      <point x="447" y="249"/>
      <point x="517" y="704" type="curve" smooth="yes"/>
      <point x="588" y="1167"/>
      <point x="811" y="1440"/>
      <point x="1122" y="1440" type="curve" smooth="yes"/>
      <point x="1158" y="1440" type="line"/>
    </contour>
  </outline>
</glyph>
<glyph name="parenright" format="2">
  <advance width="1200"/>
  <unicode hex="0029"/>
  <outline>
    <contour>
      <point x="74" y="-200" type="line"/>
      <point x="122" y="-200" type="line" smooth="yes"/>
      <point x="566" y="-200"/>
      <point x="876" y="125"/>
      <point x="959" y="676" type="curve" smooth="yes"/>
      <point x="1048" y="1269"/>
      <point x="856" y="1620"/>
      <point x="442" y="1620" type="curve" smooth="yes"/>
      <point x="395" y="1620" type="line"/>
      <point x="364" y="1440" type="line"/>
      <point x="391" y="1440" type="line" smooth="yes"/>
      <point x="685" y="1440"/>
      <point x="819" y="1171"/>
      <point x="749" y="716" type="curve" smooth="yes"/>
      <point x="678" y="253"/>
      <point x="450" y="-20"/>
      <point x="133" y="-20" type="curve" smooth="yes"/>
      <point x="105" y="-20" type="line"/>
    </contour>
  </outline>
</glyph>
<glyph name="asterisk" format="2">
  <advance width="1200"/>
  <unicode hex="002A"/>
  <outline>
    <contour>
      <point x="316" y="258" type="line"/>
      <point x="682" y="648" type="line"/>
      <point x="577" y="744" type="line"/>
      <point x="165" y="408" type="line"/>
    </contour>
    <contour>
      <point x="586" y="626" type="line"/>
      <point x="662" y="766" type="line"/>
      <point x="252" y="962" type="line"/>
      <point x="152" y="758" type="line"/>
    </contour>
    <contour>
      <point x="778" y="258" type="line"/>
      <point x="949" y="378" type="line"/>
      <point x="694" y="734" type="line"/>
      <point x="555" y="648" type="line"/>
    </contour>
    <contour>
      <point x="550" y="696" type="line"/>
      <point x="698" y="696" type="line"/>
      <point x="817" y="1176" type="line"/>
      <point x="596" y="1176" type="line"/>
    </contour>
    <contour>
      <point x="638" y="621" type="line"/>
      <point x="1128" y="758" type="line"/>
      <point x="1080" y="962" type="line"/>
      <point x="610" y="771" type="line"/>
    </contour>
  </outline>
</glyph>
<glyph name="plus" format="2">
  <advance width="1200"/>
  <unicode hex="002B"/>
  <outline>
    <contour>
      <point x="433" y="190" type="line"/>
      <point x="645" y="190" type="line"/>
      <point x="828" y="1228" type="line"/>
      <point x="616" y="1228" type="line"/>
    </contour>
    <contour>
      <point x="115" y="616" type="line"/>
      <point x="1115" y="616" type="line"/>
      <point x="1148" y="802" type="line"/>
      <point x="148" y="802" type="line"/>
    </contour>
  </outline>
</glyph>
<glyph name="comma" format="2">
  <advance width="1200"/>
  <unicode hex="002C"/>
  <outline>
    <contour>
      <point x="266" y="-436" type="line"/>
      <point x="453" y="-436" type="line"/>
      <point x="685" y="254" type="line"/>
      <point x="443" y="254" type="line"/>
    </contour>
  </outline>
</glyph>
<glyph name="period" format="2">
  <advance width="1200"/>
  <unicode hex="002E"/>
  <outline>
    <contour>
      <point x="529" y="-20" type="curve" smooth="yes"/>
      <point x="611" y="-20"/>
      <point x="677" y="46"/>
      <point x="677" y="128" type="curve" smooth="yes"/>
      <point x="677" y="210"/>
      <point x="611" y="276"/>
      <point x="529" y="276" type="curve" smooth="yes"/>
      <point x="447" y="276"/>
      <point x="381" y="210"/>
      <point x="381" y="128" type="curve" smooth="yes"/>
      <point x="381" y="46"/>
      <point x="447" y="-20"/>
    </contour>
  </outline>
</glyph>
<glyph name="slash" format="2">
  <advance width="1200"/>
  <unicode hex="002F"/>
  <outline>
    <contour>
      <point x="-13" y="-190" type="line"/>
      <point x="207" y="-190" type="line"/>
      <point x="1320" y="1610" type="line"/>
      <point x="1100" y="1610" type="line"/>
    </contour>
  </outline>
</glyph>
<glyph name="zero" format="2">
  <advance width="1200"/>
  <unicode hex="0030"/>
  <outline>
    <contour>
      <point x="506" y="-20" type="curve" smooth="yes"/>
      <point x="906" y="-20"/>
      <point x="1143" y="346"/>
      <point x="1143" y="965" type="curve" smooth="yes"/>
      <point x="1143" y="1264"/>
      <point x="1001" y="1440"/>
      <point x="762" y="1440" type="curve" smooth="yes"/>
      <point x="360" y="1440"/>
      <point x="122" y="1078"/>
      <point x="122" y="466" type="curve" smooth="yes"/>
      <point x="122" y="161"/>
      <point x="265" y="-20"/>
    </contour>
    <contour>
      <point x="632" y="550" type="curve" smooth="yes"/>
      <point x="722" y="550"/>
      <point x="782" y="610"/>
      <point x="782" y="700" type="curve" smooth="yes"/>
      <point x="782" y="790"/>
      <point x="722" y="850"/>
      <point x="632" y="850" type="curve" smooth="yes"/>
      <point x="542" y="850"/>
      <point x="482" y="790"/>
      <point x="482" y="700" type="curve" smooth="yes"/>
      <point x="482" y="610"/>
      <point x="542" y="550"/>
    </contour>
    <contour>
      <point x="539" y="164" type="curve" smooth="yes"/>
      <point x="411" y="164"/>
      <point x="336" y="278"/>
      <point x="336" y="471" type="curve" smooth="yes"/>
      <point x="336" y="964"/>
      <point x="483" y="1256"/>
      <point x="731" y="1256" type="curve" smooth="yes"/>
      <point x="855" y="1256"/>
      <point x="929" y="1144"/>
      <point x="929" y="954" type="curve" smooth="yes"/>
      <point x="929" y="457"/>
      <point x="784" y="164"/>
    </contour>
  </outline>
</glyph>
<glyph name="one" format="2">
  <advance width="1200"/>
  <unicode hex="0031"/>
  <guideline x="479" y="80" angle="80"/>
  <guideline x="694" y="80" angle="80"/>
  <outline>
    <contour>
      <point x="429" y="0" type="line"/>
      <point x="644" y="0" type="line"/>
      <point x="894" y="1420" type="line"/>
      <point x="679" y="1420" type="line"/>
    </contour>
    <contour>
      <point x="77" y="0" type="line"/>
      <point x="451" y="0" type="line"/>
      <point x="481" y="190" type="line"/>
      <point x="110" y="190" type="line"/>
    </contour>
    <contour>
      <point x="623" y="0" type="line"/>
      <point x="959" y="0" type="line"/>
      <point x="992" y="190" type="line"/>
      <point x="653" y="190" type="line"/>
    </contour>
    <contour>
      <point x="291" y="1098" type="line"/>
      <point x="653" y="1209" type="line"/>
      <point x="679" y="1420" type="line"/>
      <point x="326" y="1300" type="line"/>
    </contour>
  </outline>
</glyph>
<glyph name="two" format="2">
  <advance width="1200"/>
  <unicode hex="0032"/>
  <outline>
    <contour>
      <point x="89" y="0" type="line"/>
      <point x="389" y="0" type="line"/>
      <point x="389" y="214" type="line"/>
      <point x="846" y="471"/>
      <point x="1112" y="771"/>
      <point x="1112" y="1107" type="curve" smooth="yes"/>
      <point x="1112" y="1329"/>
      <point x="985" y="1440"/>
      <point x="729" y="1440" type="curve" smooth="yes"/>
      <point x="543" y="1440"/>
      <point x="344" y="1353"/>
      <point x="228" y="1221" type="curve"/>
      <point x="342" y="1084" type="line"/>
      <point x="447" y="1190"/>
      <point x="586" y="1256"/>
      <point x="692" y="1256" type="curve" smooth="yes"/>
      <point x="827" y="1256"/>
      <point x="894" y="1197"/>
      <point x="894" y="1081" type="curve" smooth="yes"/>
      <point x="894" y="790"/>
      <point x="598" y="487"/>
      <point x="69" y="228" type="curve"/>
    </contour>
    <contour>
      <point x="149" y="0" type="line"/>
      <point x="983" y="0" type="line"/>
      <point x="1016" y="190" type="line"/>
      <point x="132" y="190" type="line"/>
    </contour>
  </outline>
</glyph>
<glyph name="three" format="2">
  <advance width="1200"/>
  <unicode hex="0033"/>
  <outline>
    <contour>
      <point x="426" y="-20" type="curve" smooth="yes"/>
      <point x="789" y="-20"/>
      <point x="1025" y="167"/>
      <point x="1025" y="456" type="curve" smooth="yes"/>
      <point x="1025" y="631"/>
      <point x="898" y="729"/>
      <point x="700" y="751" type="curve" smooth="yes"/>
      <point x="394" y="785" type="line"/>
      <point x="399" y="645" type="line"/>
      <point x="432" y="645" type="line" smooth="yes"/>
      <point x="675" y="645"/>
      <point x="811" y="568"/>
      <point x="811" y="430" type="curve" smooth="yes"/>
      <point x="811" y="269"/>
      <point x="663" y="164"/>
      <point x="440" y="164" type="curve" smooth="yes"/>
      <point x="284" y="164"/>
      <point x="196" y="196"/>
      <point x="119" y="219" type="curve"/>
      <point x="60" y="28" type="line"/>
      <point x="152" y="-1"/>
      <point x="275" y="-20"/>
    </contour>
    <contour>
      <point x="399" y="645" type="line"/>
      <point x="759" y="645" type="line"/>
      <point x="759" y="765" type="line"/>
      <point x="995" y="818"/>
      <point x="1125" y="983"/>
      <point x="1125" y="1167" type="curve" smooth="yes"/>
      <point x="1125" y="1343"/>
      <point x="998" y="1440"/>
      <point x="767" y="1440" type="curve" smooth="yes"/>
      <point x="568" y="1440"/>
      <point x="396" y="1380"/>
      <point x="249" y="1241" type="curve"/>
      <point x="363" y="1104" type="line"/>
      <point x="484" y="1207"/>
      <point x="613" y="1256"/>
      <point x="713" y="1256" type="curve" smooth="yes"/>
      <point x="841" y="1256"/>
      <point x="911" y="1203"/>
      <point x="911" y="1112" type="curve" smooth="yes"/>
      <point x="911" y="941"/>
      <point x="731" y="827"/>
      <point x="394" y="785" type="curve"/>
    </contour>
  </outline>
</glyph>
<glyph name="four" format="2">
  <advance width="1200"/>
  <unicode hex="0034"/>
  <outline>
    <contour>
      <point x="37" y="318" type="line"/>
      <point x="252" y="318" type="line"/>
      <point x="613" y="1340" type="line"/>
      <point x="396" y="1340" type="line"/>
    </contour>
    <contour>
      <point x="37" y="318" type="line"/>
      <point x="766" y="318" type="line"/>
      <point x="797" y="504" type="line"/>
      <point x="208" y="504" type="line"/>
    </contour>
    <contour>
      <point x="928" y="318" type="line"/>
      <point x="1082" y="318" type="line"/>
      <point x="1115" y="504" type="line"/>
      <point x="959" y="504" type="line"/>
    </contour>
    <contour>
      <point x="681" y="0" type="line"/>
      <point x="895" y="0" type="line"/>
      <point x="1145" y="1420" type="line"/>
      <point x="931" y="1420" type="line"/>
    </contour>
  </outline>
</glyph>
<glyph name="five" format="2">
  <advance width="1200"/>
  <unicode hex="0035"/>
  <outline>
    <contour>
      <point x="496" y="-20" type="curve" smooth="yes"/>
      <point x="871" y="-20"/>
      <point x="1093" y="181"/>
      <point x="1093" y="522" type="curve" smooth="yes"/>
      <point x="1093" y="778"/>
      <point x="959" y="930"/>
      <point x="731" y="930" type="curve" smooth="yes"/>
      <point x="621" y="930"/>
      <point x="506" y="913"/>
      <point x="384" y="850" type="curve"/>
      <point x="356" y="680" type="line"/>
      <point x="442" y="723"/>
      <point x="534" y="746"/>
      <point x="629" y="746" type="curve" smooth="yes"/>
      <point x="786" y="746"/>
      <point x="879" y="658"/>
      <point x="879" y="509" type="curve" smooth="yes"/>
      <point x="879" y="292"/>
      <point x="753" y="164"/>
      <point x="541" y="164" type="curve" smooth="yes"/>
      <point x="378" y="164"/>
      <point x="296" y="251"/>
      <point x="322" y="398" type="curve"/>
      <point x="108" y="398" type="line"/>
      <point x="61" y="135"/>
      <point x="205" y="-20"/>
    </contour>
    <contour>
      <point x="244" y="680" type="line"/>
      <point x="356" y="680" type="line"/>
      <point x="481" y="804" type="line"/>
      <point x="588" y="1420" type="line"/>
      <point x="374" y="1420" type="line"/>
    </contour>
    <contour>
      <point x="437" y="1234" type="line"/>
      <point x="1127" y="1234" type="line"/>
      <point x="1160" y="1420" type="line"/>
      <point x="452" y="1420" type="line"/>
    </contour>
  </outline>
</glyph>
<glyph name="six" format="2">
  <advance width="1200"/>
  <unicode hex="0036"/>
  <outline>
    <contour>
      <point x="537" y="-20" type="curve" smooth="yes"/>
      <point x="868" y="-20"/>
      <point x="1094" y="209"/>
      <point x="1094" y="541" type="curve" smooth="yes"/>
      <point x="1094" y="771"/>
      <point x="981" y="900"/>
      <point x="767" y="900" type="curve" smooth="yes"/>
      <point x="593" y="900"/>
      <point x="447" y="821"/>
      <point x="379" y="682" type="curve"/>
      <point x="359" y="682" type="line"/>
      <point x="443" y="1036"/>
      <point x="669" y="1216"/>
      <point x="1104" y="1235" type="curve"/>
      <point x="1118" y="1426" type="line"/>
      <point x="466" y="1401"/>
      <point x="118" y="1035"/>
      <point x="118" y="376" type="curve" smooth="yes"/>
      <point x="118" y="115"/>
      <point x="262" y="-20"/>
    </contour>
    <contour>
      <point x="556" y="164" type="curve" smooth="yes"/>
      <point x="410" y="164"/>
      <point x="337" y="231"/>
      <point x="337" y="365" type="curve" smooth="yes"/>
      <point x="337" y="575"/>
      <point x="473" y="716"/>
      <point x="675" y="716" type="curve" smooth="yes"/>
      <point x="809" y="716"/>
      <point x="880" y="647"/>
      <point x="880" y="523" type="curve" smooth="yes"/>
      <point x="880" y="319"/>
      <point x="740" y="164"/>
    </contour>
  </outline>
</glyph>
<glyph name="seven" format="2">
  <advance width="1200"/>
  <unicode hex="0037"/>
  <outline>
    <contour>
      <point x="408" y="0" type="line"/>
      <point x="632" y="0" type="line"/>
      <point x="1311" y="1420" type="line"/>
      <point x="1088" y="1420" type="line"/>
    </contour>
    <contour>
      <point x="181" y="922" type="line"/>
      <point x="396" y="922" type="line"/>
      <point x="484" y="1420" type="line"/>
      <point x="269" y="1420" type="line"/>
    </contour>
    <contour>
      <point x="247" y="1236" type="line"/>
      <point x="1136" y="1236" type="line"/>
      <point x="1311" y="1420" type="line"/>
      <point x="269" y="1420" type="line"/>
    </contour>
  </outline>
</glyph>
<glyph name="eight" format="2">
  <advance width="1200"/>
  <unicode hex="0038"/>
  <outline>
    <contour>
      <point x="500" y="-20" type="curve" smooth="yes"/>
      <point x="840" y="-20"/>
      <point x="1066" y="162"/>
      <point x="1066" y="434" type="curve" smooth="yes"/>
      <point x="1066" y="632"/>
      <point x="895" y="764"/>
      <point x="638" y="764" type="curve" smooth="yes"/>
      <point x="306" y="764"/>
      <point x="85" y="587"/>
      <point x="85" y="322" type="curve" smooth="yes"/>
      <point x="85" y="117"/>
      <point x="251" y="-20"/>
    </contour>
    <contour>
      <point x="532" y="164" type="curve" smooth="yes"/>
      <point x="392" y="164"/>
      <point x="299" y="242"/>
      <point x="299" y="358" type="curve" smooth="yes"/>
      <point x="299" y="538"/>
      <point x="427" y="658"/>
      <point x="619" y="658" type="curve" smooth="yes"/>
      <point x="759" y="658"/>
      <point x="852" y="574"/>
      <point x="852" y="449" type="curve" smooth="yes"/>
      <point x="852" y="278"/>
      <point x="724" y="164"/>
    </contour>
    <contour>
      <point x="462" y="706" type="line"/>
      <point x="796" y="706" type="line"/>
      <point x="814" y="808" type="line"/>
      <point x="480" y="808" type="line"/>
    </contour>
    <contour>
      <point x="653" y="842" type="curve" smooth="yes"/>
      <point x="538" y="842"/>
      <point x="461" y="913"/>
      <point x="461" y="1019" type="curve" smooth="yes"/>
      <point x="461" y="1161"/>
      <point x="567" y="1256"/>
      <point x="725" y="1256" type="curve" smooth="yes"/>
      <point x="850" y="1256"/>
      <point x="934" y="1190"/>
      <point x="934" y="1091" type="curve" smooth="yes"/>
      <point x="934" y="942"/>
      <point x="822" y="842"/>
    </contour>
    <contour>
      <point x="635" y="746" type="curve" smooth="yes"/>
      <point x="943" y="746"/>
      <point x="1148" y="901"/>
      <point x="1148" y="1134" type="curve" smooth="yes"/>
      <point x="1148" y="1318"/>
      <point x="992" y="1440"/>
      <point x="757" y="1440" type="curve" smooth="yes"/>
      <point x="451" y="1440"/>
      <point x="247" y="1274"/>
      <point x="247" y="1026" type="curve" smooth="yes"/>
      <point x="247" y="858"/>
      <point x="402" y="746"/>
    </contour>
  </outline>
</glyph>
<glyph name="nine" format="2">
  <advance width="1200"/>
  <unicode hex="0039"/>
  <outline>
    <contour>
      <point x="155" y="-6" type="line"/>
      <point x="807" y="19"/>
      <point x="1155" y="385"/>
      <point x="1155" y="1044" type="curve" smooth="yes"/>
      <point x="1155" y="1305"/>
      <point x="1011" y="1440"/>
      <point x="736" y="1440" type="curve" smooth="yes"/>
      <point x="405" y="1440"/>
      <point x="179" y="1211"/>
      <point x="179" y="879" type="curve" smooth="yes"/>
      <point x="179" y="649"/>
      <point x="292" y="520"/>
      <point x="506" y="520" type="curve" smooth="yes"/>
      <point x="680" y="520"/>
      <point x="826" y="599"/>
      <point x="894" y="738" type="curve"/>
      <point x="914" y="738" type="line"/>
      <point x="830" y="384"/>
      <point x="604" y="204"/>
      <point x="169" y="185" type="curve"/>
    </contour>
    <contour>
      <point x="598" y="704" type="curve" smooth="yes"/>
      <point x="464" y="704"/>
      <point x="393" y="773"/>
      <point x="393" y="897" type="curve" smooth="yes"/>
      <point x="393" y="1101"/>
      <point x="533" y="1256"/>
      <point x="717" y="1256" type="curve" smooth="yes"/>
      <point x="863" y="1256"/>
      <point x="936" y="1189"/>
      <point x="936" y="1055" type="curve" smooth="yes"/>
      <point x="936" y="845"/>
      <point x="800" y="704"/>
    </contour>
  </outline>
</glyph>
<glyph name="colon" format="2">
  <advance width="1200"/>
  <unicode hex="003A"/>
  <outline>
    <contour>
      <point x="670" y="784" type="curve" smooth="yes"/>
      <point x="752" y="784"/>
      <point x="818" y="850"/>
      <point x="818" y="932" type="curve" smooth="yes"/>
      <point x="818" y="1014"/>
      <point x="752" y="1080"/>
      <point x="670" y="1080" type="curve" smooth="yes"/>
      <point x="588" y="1080"/>
      <point x="522" y="1014"/>
      <point x="522" y="932" type="curve" smooth="yes"/>
      <point x="522" y="850"/>
      <point x="588" y="784"/>
    </contour>
    <contour>
      <point x="530" y="-20" type="curve" smooth="yes"/>
      <point x="612" y="-20"/>
      <point x="678" y="46"/>
      <point x="678" y="128" type="curve" smooth="yes"/>
      <point x="678" y="210"/>
      <point x="612" y="276"/>
      <point x="530" y="276" type="curve" smooth="yes"/>
      <point x="448" y="276"/>
      <point x="382" y="210"/>
      <point x="382" y="128" type="curve" smooth="yes"/>
      <point x="382" y="46"/>
      <point x="448" y="-20"/>
    </contour>
  </outline>
</glyph>
<glyph name="semicolon" format="2">
  <advance width="1200"/>
  <unicode hex="003B"/>
  <outline>
    <contour>
      <point x="670" y="784" type="curve" smooth="yes"/>
      <point x="752" y="784"/>
      <point x="818" y="850"/>
      <point x="818" y="932" type="curve" smooth="yes"/>
      <point x="818" y="1014"/>
      <point x="752" y="1080"/>
      <point x="670" y="1080" type="curve" smooth="yes"/>
      <point x="588" y="1080"/>
      <point x="522" y="1014"/>
      <point x="522" y="932" type="curve" smooth="yes"/>
      <point x="522" y="850"/>
      <point x="588" y="784"/>
    </contour>
    <component base="comma"/>
  </outline>
</glyph>
<glyph name="less" format="2">
  <advance width="1200"/>
  <unicode hex="003C"/>
  <outline>
    <contour>
      <point x="998" y="214" type="line"/>
      <point x="1035" y="423" type="line"/>
      <point x="380" y="694" type="line"/>
      <point x="382" y="712" type="line"/>
      <point x="1132" y="973" type="line"/>
      <point x="1173" y="1204" type="line"/>
      <point x="146" y="810" type="line"/>
      <point x="110" y="608" type="line"/>
    </contour>
  </outline>
</glyph>
<glyph name="equal" format="2">
  <advance width="1200"/>
  <unicode hex="003D"/>
  <outline>
    <contour>
      <point x="159" y="866" type="line"/>
      <point x="1159" y="866" type="line"/>
      <point x="1192" y="1052" type="line"/>
      <point x="192" y="1052" type="line"/>
    </contour>
    <contour>
      <point x="71" y="366" type="line"/>
      <point x="1071" y="366" type="line"/>
      <point x="1104" y="552" type="line"/>
      <point x="104" y="552" type="line"/>
    </contour>
  </outline>
</glyph>
<glyph name="greater" format="2">
  <advance width="1200"/>
  <unicode hex="003E"/>
  <outline>
    <contour>
      <point x="90" y="214" type="line"/>
      <point x="1117" y="608" type="line"/>
      <point x="1153" y="810" type="line"/>
      <point x="265" y="1204" type="line"/>
      <point x="228" y="995" type="line"/>
      <point x="883" y="724" type="line"/>
      <point x="881" y="706" type="line"/>
      <point x="131" y="445" type="line"/>
    </contour>
  </outline>
</glyph>
<glyph name="question" format="2">
  <advance width="1200"/>
  <unicode hex="003F"/>
  <outline>
    <contour>
      <point x="441" y="456" type="line"/>
      <point x="637" y="456" type="line"/>
      <point x="645" y="505" type="line" smooth="yes"/>
      <point x="659" y="589"/>
      <point x="720" y="673"/>
      <point x="855" y="768" type="curve" smooth="yes"/>
      <point x="1020" y="884"/>
      <point x="1108" y="990"/>
      <point x="1108" y="1142" type="curve" smooth="yes"/>
      <point x="1108" y="1329"/>
      <point x="979" y="1440"/>
      <point x="761" y="1440" type="curve"/>
      <point x="715" y="1250" type="line"/>
      <point x="824" y="1250"/>
      <point x="888" y="1200"/>
      <point x="888" y="1115" type="curve" smooth="yes"/>
      <point x="888" y="1026"/>
      <point x="830" y="968"/>
      <point x="726" y="894" type="curve" smooth="yes"/>
      <point x="569" y="782"/>
      <point x="469" y="676"/>
      <point x="449" y="519" type="curve" smooth="yes"/>
    </contour>
    <contour>
      <point x="345" y="1078" type="line"/>
      <point x="448" y="1182"/>
      <point x="591" y="1250"/>
      <point x="715" y="1250" type="curve"/>
      <point x="761" y="1440" type="line"/>
      <point x="557" y="1440"/>
      <point x="350" y="1357"/>
      <point x="232" y="1231" type="curve"/>
    </contour>
    <component base="period" xOffset="-38"/>
  </outline>
</glyph>
<glyph name="at" format="2">
  <advance width="1200"/>
  <unicode hex="0040"/>
  <outline>
    <contour>
      <point x="604" y="-243" type="curve" smooth="yes"/>
      <point x="674" y="-243"/>
      <point x="724" y="-236"/>
      <point x="776" y="-218" type="curve"/>
      <point x="807" y="-38" type="line"/>
      <point x="752" y="-56"/>
      <point x="691" y="-63"/>
      <point x="606" y="-63" type="curve" smooth="yes"/>
      <point x="371" y="-63"/>
      <point x="260" y="55"/>
      <point x="260" y="323" type="curve" smooth="yes"/>
      <point x="260" y="835"/>
      <point x="492" y="1259"/>
      <point x="771" y="1259" type="curve" smooth="yes"/>
      <point x="906" y="1259"/>
      <point x="976" y="1208"/>
      <point x="976" y="1019" type="curve" smooth="yes"/>
      <point x="976" y="967"/>
      <point x="964" y="889"/>
      <point x="900" y="524" type="curve"/>
      <point x="1070" y="524" type="line"/>
      <point x="1127" y="846"/>
      <point x="1153" y="991"/>
      <point x="1153" y="1068" type="curve" smooth="yes"/>
      <point x="1153" y="1312"/>
      <point x="1032" y="1439"/>
      <point x="801" y="1439" type="curve" smooth="yes"/>
      <point x="393" y="1439"/>
      <point x="87" y="957"/>
      <point x="87" y="317" type="curve" smooth="yes"/>
      <point x="87" y="-72"/>
      <point x="252" y="-243"/>
    </contour>
    <contour>
      <point x="618" y="149" type="curve" smooth="yes"/>
      <point x="741" y="149"/>
      <point x="840" y="258"/>
      <point x="884" y="449" type="curve"/>
      <point x="830" y="381" type="line"/>
      <point x="946" y="381" type="line"/>
      <point x="889" y="466" type="line"/>
      <point x="861" y="168" type="line"/>
      <point x="1007" y="168" type="line"/>
      <point x="1102" y="710" type="line"/>
      <point x="932" y="710" type="line"/>
      <point x="882" y="467"/>
      <point x="800" y="329"/>
      <point x="698" y="329" type="curve" smooth="yes"/>
      <point x="632" y="329"/>
      <point x="593" y="385"/>
      <point x="593" y="482" type="curve" smooth="yes"/>
      <point x="593" y="715"/>
      <point x="763" y="893"/>
      <point x="979" y="904" type="curve"/>
      <point x="1008" y="1090" type="line"/>
      <point x="663" y="1050"/>
      <point x="413" y="802"/>
      <point x="413" y="437" type="curve" smooth="yes"/>
      <point x="413" y="255"/>
      <point x="487" y="149"/>
    </contour>
  </outline>
</glyph>
<glyph name="A" format="2">
  <advance width="1200"/>
  <unicode hex="0041"/>
  <anchor x="506" y="0" name="bottom"/>
  <anchor x="989" y="10" name="ogonek"/>
  <anchor x="757" y="1420" name="top"/>
  <outline>
    <contour>
      <point x="-48" y="0" type="line"/>
      <point x="174" y="0" type="line"/>
      <point x="717" y="1249" type="line"/>
      <point x="735" y="1249" type="line"/>
      <point x="788" y="935"/>
      <point x="854" y="308"/>
      <point x="850" y="0" type="curve"/>
      <point x="1062" y="0" type="line"/>
      <point x="1059" y="369"/>
      <point x="989" y="1043"/>
      <point x="903" y="1421" type="curve"/>
      <point x="582" y="1421" type="line"/>
    </contour>
    <contour>
      <point x="215" y="346" type="line"/>
      <point x="935" y="346" type="line"/>
      <point x="976" y="536" type="line"/>
      <point x="256" y="536" type="line"/>
    </contour>
  </outline>
</glyph>
<glyph name="B" format="2">
  <advance width="1200"/>
  <unicode hex="0042"/>
  <anchor x="506" y="0" name="bottom"/>
  <anchor x="757" y="1420" name="top"/>
  <outline>
    <contour>
      <point x="67" y="0" type="line"/>
      <point x="275" y="0" type="line"/>
      <point x="525" y="1420" type="line"/>
      <point x="317" y="1420" type="line"/>
    </contour>
    <contour>
      <point x="285" y="765" type="line"/>
      <point x="627" y="765" type="line" smooth="yes"/>
      <point x="954" y="765"/>
      <point x="1125" y="880"/>
      <point x="1125" y="1101" type="curve" smooth="yes"/>
      <point x="1125" y="1324"/>
      <point x="936" y="1440"/>
      <point x="575" y="1440" type="curve" smooth="yes"/>
      <point x="472" y="1440"/>
      <point x="383" y="1433"/>
      <point x="317" y="1420" type="curve"/>
      <point x="284" y="1230" type="line"/>
      <point x="356" y="1243"/>
      <point x="455" y="1250"/>
      <point x="572" y="1250" type="curve" smooth="yes"/>
      <point x="792" y="1250"/>
      <point x="907" y="1184"/>
      <point x="907" y="1058" type="curve" smooth="yes"/>
      <point x="907" y="919"/>
      <point x="801" y="846"/>
      <point x="600" y="846" type="curve" smooth="yes"/>
      <point x="318" y="846" type="line"/>
    </contour>
    <contour>
      <point x="255" y="0" type="line"/>
      <point x="471" y="0" type="line" smooth="yes"/>
      <point x="906" y="0"/>
      <point x="1106" y="133"/>
      <point x="1106" y="422" type="curve" smooth="yes"/>
      <point x="1106" y="619"/>
      <point x="956" y="736"/>
      <point x="701" y="736" type="curve" smooth="yes"/>
      <point x="365" y="736" type="line"/>
      <point x="376" y="656" type="line"/>
      <point x="588" y="656" type="line" smooth="yes"/>
      <point x="779" y="656"/>
      <point x="892" y="579"/>
      <point x="892" y="448" type="curve" smooth="yes"/>
      <point x="892" y="271"/>
      <point x="753" y="190"/>
      <point x="451" y="190" type="curve" smooth="yes"/>
      <point x="289" y="190" type="line"/>
    </contour>
    <contour>
      <point x="308" y="698" type="line"/>
      <point x="729" y="698" type="line"/>
      <point x="746" y="796" type="line"/>
      <point x="325" y="796" type="line"/>
    </contour>
  </outline>
</glyph>
<glyph name="C" format="2">
  <advance width="1200"/>
  <unicode hex="0043"/>
  <anchor x="586" y="0" name="bottom"/>
  <anchor x="857" y="1420" name="top"/>
  <outline>
    <contour>
      <point x="666" y="-20" type="curve" smooth="yes"/>
      <point x="795" y="-20"/>
      <point x="924" y="2"/>
      <point x="1054" y="48" type="curve"/>
      <point x="1040" y="224" type="line"/>
      <point x="922" y="184"/>
      <point x="807" y="164"/>
      <point x="693" y="164" type="curve" smooth="yes"/>
      <point x="445" y="164"/>
      <point x="319" y="286"/>
      <point x="319" y="530" type="curve" smooth="yes"/>
      <point x="319" y="948"/>
      <point x="557" y="1256"/>
      <point x="880" y="1256" type="curve" smooth="yes"/>
      <point x="971" y="1256"/>
      <point x="1043" y="1218"/>
      <point x="1110" y="1134" type="curve"/>
      <point x="1253" y="1281" type="line"/>
      <point x="1168" y="1391"/>
      <point x="1061" y="1440"/>
      <point x="909" y="1440" type="curve" smooth="yes"/>
      <point x="434" y="1440"/>
      <point x="105" y="1063"/>
      <point x="105" y="523" type="curve" smooth="yes"/>
      <point x="105" y="161"/>
      <point x="293" y="-20"/>
    </contour>
  </outline>
</glyph>
<glyph name="D" format="2">
  <advance width="1200"/>
  <unicode hex="0044"/>
  <anchor x="506" y="0" name="bottom"/>
  <anchor x="631" y="710" name="center"/>
  <anchor x="717" y="1420" name="top"/>
  <outline>
    <contour>
      <point x="228" y="0" type="line"/>
      <point x="299" y="0" type="line" smooth="yes"/>
      <point x="848" y="0"/>
      <point x="1172" y="316"/>
      <point x="1172" y="853" type="curve" smooth="yes"/>
      <point x="1172" y="1222"/>
      <point x="933" y="1440"/>
      <point x="529" y="1440" type="curve" smooth="yes"/>
      <point x="447" y="1440"/>
      <point x="368" y="1433"/>
      <point x="297" y="1420" type="curve"/>
      <point x="297" y="1230" type="line"/>
      <point x="363" y="1243"/>
      <point x="434" y="1250"/>
      <point x="504" y="1250" type="curve" smooth="yes"/>
      <point x="789" y="1250"/>
      <point x="958" y="1096"/>
      <point x="958" y="835" type="curve" smooth="yes"/>
      <point x="958" y="429"/>
      <point x="728" y="190"/>
      <point x="341" y="190" type="curve" smooth="yes"/>
      <point x="262" y="190" type="line"/>
    </contour>
    <contour>
      <point x="47" y="0" type="line"/>
      <point x="255" y="0" type="line"/>
      <point x="505" y="1420" type="line"/>
      <point x="297" y="1420" type="line"/>
    </contour>
  </outline>
</glyph>
<glyph name="E" format="2">
  <advance width="1200"/>
  <unicode hex="0045"/>
  <anchor x="546" y="0" name="bottom"/>
  <anchor x="942" y="10" name="ogonek"/>
  <anchor x="797" y="1420" name="top"/>
  <anchor x="182" y="1420" name="topleft"/>
  <outline>
    <contour>
      <point x="67" y="0" type="line"/>
      <point x="276" y="0" type="line"/>
      <point x="526" y="1420" type="line"/>
      <point x="317" y="1420" type="line"/>
    </contour>
    <contour>
      <point x="67" y="0" type="line"/>
      <point x="1006" y="0" type="line"/>
      <point x="1039" y="190" type="line"/>
      <point x="101" y="190" type="line"/>
    </contour>
    <contour>
      <point x="176" y="616" type="line"/>
      <point x="935" y="616" type="line"/>
      <point x="968" y="806" type="line"/>
      <point x="209" y="806" type="line"/>
    </contour>
    <contour>
      <point x="284" y="1230" type="line"/>
      <point x="1223" y="1230" type="line"/>
      <point x="1256" y="1420" type="line"/>
      <point x="317" y="1420" type="line"/>
    </contour>
  </outline>
</glyph>
<glyph name="F" format="2">
  <advance width="1200"/>
  <unicode hex="0046"/>
  <anchor x="506" y="0" name="bottom"/>
  <anchor x="757" y="1420" name="top"/>
  <outline>
    <contour>
      <point x="87" y="0" type="line"/>
      <point x="295" y="0" type="line"/>
      <point x="545" y="1420" type="line"/>
      <point x="337" y="1420" type="line"/>
    </contour>
    <contour>
      <point x="245" y="556" type="line"/>
      <point x="944" y="556" type="line"/>
      <point x="977" y="746" type="line"/>
      <point x="279" y="746" type="line"/>
    </contour>
    <contour>
      <point x="304" y="1230" type="line"/>
      <point x="1243" y="1230" type="line"/>
      <point x="1276" y="1420" type="line"/>
      <point x="337" y="1420" type="line"/>
    </contour>
  </outline>
</glyph>
<glyph name="H" format="2">
  <advance width="1200"/>
  <unicode hex="0048"/>
  <anchor x="506" y="0" name="bottom"/>
  <anchor x="634" y="710" name="center"/>
  <anchor x="757" y="1420" name="top"/>
  <anchor x="177" y="1420" name="topleft"/>
  <outline>
    <contour>
      <point x="759" y="0" type="line"/>
      <point x="967" y="0" type="line"/>
      <point x="1217" y="1420" type="line"/>
      <point x="1009" y="1420" type="line"/>
    </contour>
    <contour>
      <point x="47" y="0" type="line"/>
      <point x="255" y="0" type="line"/>
      <point x="505" y="1420" type="line"/>
      <point x="297" y="1420" type="line"/>
    </contour>
    <contour>
      <point x="197" y="612" type="line"/>
      <point x="1038" y="612" type="line"/>
      <point x="1071" y="802" type="line"/>
      <point x="230" y="802" type="line"/>
    </contour>
  </outline>
</glyph>
<glyph name="I" format="2">
  <advance width="1200"/>
  <unicode hex="0049"/>
  <anchor x="506" y="0" name="bottom"/>
  <anchor x="508" y="10" name="ogonek"/>
  <anchor x="757" y="1420" name="top"/>
  <anchor x="182" y="1420" name="topleft"/>
  <outline>
    <contour>
      <point x="403" y="0" type="line"/>
      <point x="611" y="0" type="line"/>
      <point x="861" y="1420" type="line"/>
      <point x="653" y="1420" type="line"/>
    </contour>
    <contour>
      <point x="75" y="0" type="line"/>
      <point x="938" y="0" type="line"/>
      <point x="971" y="190" type="line"/>
      <point x="108" y="190" type="line"/>
    </contour>
    <contour>
      <point x="292" y="1230" type="line"/>
      <point x="1155" y="1230" type="line"/>
      <point x="1188" y="1420" type="line"/>
      <point x="325" y="1420" type="line"/>
    </contour>
  </outline>
</glyph>
<glyph name="J" format="2">
  <advance width="1200"/>
  <unicode hex="004A"/>
  <anchor x="506" y="0" name="bottom"/>
  <anchor x="957" y="1420" name="top"/>
  <outline>
    <contour>
      <point x="498" y="-20" type="curve" smooth="yes"/>
      <point x="820" y="-20"/>
      <point x="992" y="136"/>
      <point x="1052" y="476" type="curve" smooth="yes"/>
      <point x="1218" y="1420" type="line"/>
      <point x="1010" y="1420" type="line"/>
      <point x="844" y="476" type="line" smooth="yes"/>
      <point x="806" y="262"/>
      <point x="701" y="164"/>
      <point x="514" y="164" type="curve" smooth="yes"/>
      <point x="333" y="164"/>
      <point x="251" y="279"/>
      <point x="285" y="476" type="curve"/>
      <point x="77" y="476" type="line"/>
      <point x="12" y="162"/>
      <point x="173" y="-20"/>
    </contour>
    <contour>
      <point x="617" y="1230" type="line"/>
      <point x="1079" y="1230" type="line"/>
      <point x="1112" y="1420" type="line"/>
      <point x="651" y="1420" type="line"/>
    </contour>
  </outline>
</glyph>
<glyph name="K" format="2">
  <advance width="1200"/>
  <unicode hex="004B"/>
  <anchor x="506" y="0" name="bottom"/>
  <anchor x="757" y="1420" name="top"/>
  <outline>
    <contour>
      <point x="223" y="332" type="line"/>
      <point x="802" y="404"/>
      <point x="1158" y="852"/>
      <point x="1251" y="1420" type="curve"/>
      <point x="1037" y="1420" type="line"/>
      <point x="961" y="968"/>
      <point x="726" y="603"/>
      <point x="236" y="530" type="curve"/>
    </contour>
    <contour>
      <point x="57" y="0" type="line"/>
      <point x="265" y="0" type="line"/>
      <point x="515" y="1420" type="line"/>
      <point x="307" y="1420" type="line"/>
    </contour>
    <contour>
      <point x="837" y="0" type="line"/>
      <point x="1069" y="0" type="line"/>
      <point x="807" y="724" type="line"/>
      <point x="624" y="622" type="line"/>
    </contour>
  </outline>
</glyph>
<glyph name="L" format="2">
  <advance width="1200"/>
  <unicode hex="004C"/>
  <anchor x="506" y="0" name="bottom"/>
  <anchor x="721" y="710" name="center"/>
  <anchor x="417" y="1420" name="top"/>
  <anchor x="1097" y="1420" name="topright"/>
  <outline>
    <contour>
      <point x="67" y="0" type="line"/>
      <point x="276" y="0" type="line"/>
      <point x="526" y="1420" type="line"/>
      <point x="317" y="1420" type="line"/>
    </contour>
    <contour>
      <point x="67" y="0" type="line"/>
      <point x="1007" y="0" type="line"/>
      <point x="1040" y="190" type="line"/>
      <point x="101" y="190" type="line"/>
    </contour>
  </outline>
</glyph>
<glyph name="M" format="2">
  <advance width="1200"/>
  <unicode hex="004D"/>
  <anchor x="506" y="0" name="bottom"/>
  <anchor x="757" y="1420" name="top"/>
  <outline>
    <contour>
      <point x="577" y="580" type="line"/>
      <point x="698" y="580" type="line"/>
      <point x="954" y="1168" type="line"/>
      <point x="1012" y="1168" type="line"/>
      <point x="1056" y="1420" type="line"/>
      <point x="914" y="1420" type="line"/>
      <point x="660" y="810" type="line"/>
      <point x="648" y="810" type="line"/>
    </contour>
    <contour>
      <point x="40" y="0" type="line"/>
      <point x="245" y="0" type="line"/>
      <point x="495" y="1420" type="line"/>
      <point x="285" y="1420" type="line"/>
    </contour>
    <contour>
      <point x="527" y="579" type="line"/>
      <point x="631" y="580" type="line"/>
      <point x="652" y="810" type="line"/>
      <point x="644" y="810" type="line"/>
      <point x="580" y="1420" type="line"/>
      <point x="463" y="1420" type="line"/>
      <point x="419" y="1168" type="line"/>
      <point x="477" y="1168" type="line"/>
    </contour>
    <contour>
      <point x="774" y="0" type="line"/>
      <point x="979" y="0" type="line"/>
      <point x="1229" y="1420" type="line"/>
      <point x="1024" y="1420" type="line"/>
    </contour>
  </outline>
</glyph>
<glyph name="N" format="2">
  <advance width="1200"/>
  <unicode hex="004E"/>
  <anchor x="506" y="0" name="bottom"/>
  <anchor x="757" y="1420" name="top"/>
  <outline>
    <contour>
      <point x="716" y="0" type="line"/>
      <point x="781" y="0" type="line"/>
      <point x="843" y="340" type="line"/>
      <point x="793" y="340" type="line"/>
      <point x="548" y="1420" type="line"/>
      <point x="441" y="1420" type="line"/>
      <point x="379" y="1080" type="line"/>
      <point x="471" y="1080" type="line"/>
    </contour>
    <contour>
      <point x="55" y="0" type="line"/>
      <point x="263" y="0" type="line"/>
      <point x="513" y="1420" type="line"/>
      <point x="305" y="1420" type="line"/>
    </contour>
    <contour>
      <point x="751" y="0" type="line"/>
      <point x="959" y="0" type="line"/>
      <point x="1209" y="1420" type="line"/>
      <point x="1001" y="1420" type="line"/>
    </contour>
  </outline>
</glyph>
<glyph name="O" format="2">
  <advance width="1200"/>
  <unicode hex="004F"/>
  <guideline x="927" y="1269" angle="90"/>
  <anchor x="506" y="0" name="bottom"/>
  <anchor x="631" y="710" name="center"/>
  <anchor x="528" y="10" name="ogonek"/>
  <anchor x="757" y="1420" name="top"/>
  <anchor x="198" y="1420" name="topleft"/>
  <anchor x="1338" y="1420" name="topright"/>
  <outline>
    <contour>
      <point x="513" y="-20" type="curve" smooth="yes"/>
      <point x="922" y="-20"/>
      <point x="1164" y="346"/>
      <point x="1164" y="965" type="curve" smooth="yes"/>
      <point x="1164" y="1264"/>
      <point x="1011" y="1440"/>
      <point x="752" y="1440" type="curve" smooth="yes"/>
      <point x="342" y="1440"/>
      <point x="100" y="1078"/>
      <point x="100" y="466" type="curve" smooth="yes"/>
      <point x="100" y="161"/>
      <point x="253" y="-20"/>
    </contour>
    <contour>
      <point x="539" y="164" type="curve" smooth="yes"/>
      <point x="398" y="164"/>
      <point x="314" y="285"/>
      <point x="314" y="491" type="curve" smooth="yes"/>
      <point x="314" y="972"/>
      <point x="469" y="1256"/>
      <point x="731" y="1256" type="curve" smooth="yes"/>
      <point x="869" y="1256"/>
      <point x="950" y="1138"/>
      <point x="950" y="940" type="curve" smooth="yes"/>
      <point x="950" y="452"/>
      <point x="797" y="164"/>
    </contour>
  </outline>
</glyph>
<glyph name="P" format="2">
  <advance width="1200"/>
  <unicode hex="0050"/>
  <anchor x="506" y="0" name="bottom"/>
  <anchor x="707" y="1420" name="top"/>
  <outline>
    <contour>
      <point x="67" y="0" type="line"/>
      <point x="275" y="0" type="line"/>
      <point x="525" y="1420" type="line"/>
      <point x="317" y="1420" type="line"/>
    </contour>
    <contour>
      <point x="181" y="360" type="line"/>
      <point x="293" y="360" type="line" smooth="yes"/>
      <point x="883" y="360"/>
      <point x="1190" y="576"/>
      <point x="1190" y="991" type="curve" smooth="yes"/>
      <point x="1190" y="1286"/>
      <point x="1003" y="1440"/>
      <point x="645" y="1440" type="curve" smooth="yes"/>
      <point x="513" y="1440"/>
      <point x="400" y="1433"/>
      <point x="317" y="1420" type="curve"/>
      <point x="284" y="1230" type="line"/>
      <point x="367" y="1243"/>
      <point x="480" y="1250"/>
      <point x="612" y="1250" type="curve" smooth="yes"/>
      <point x="851" y="1250"/>
      <point x="976" y="1156"/>
      <point x="976" y="978" type="curve" smooth="yes"/>
      <point x="976" y="697"/>
      <point x="753" y="550"/>
      <point x="326" y="550" type="curve" smooth="yes"/>
      <point x="214" y="550" type="line"/>
    </contour>
  </outline>
</glyph>
<glyph name="Q" format="2">
  <advance width="1200"/>
  <unicode hex="0051"/>
  <anchor x="438" y="-388" name="bottom"/>
  <anchor x="757" y="1420" name="top"/>
  <outline>
    <contour>
      <point x="815" y="-460" type="curve" smooth="yes"/>
      <point x="865" y="-460" type="line"/>
      <point x="899" y="-270" type="line"/>
      <point x="847" y="-270" type="line" smooth="yes"/>
      <point x="674" y="-270"/>
      <point x="602" y="-188"/>
      <point x="632" y="-22" type="curve" smooth="yes"/>
      <point x="647" y="62" type="line"/>
      <point x="438" y="62" type="line"/>
      <point x="424" y="-20" type="line" smooth="yes"/>
      <point x="374" y="-314"/>
      <point x="502" y="-460"/>
    </contour>
    <component base="O"/>
  </outline>
</glyph>
<glyph name="R" format="2">
  <advance width="1200"/>
  <unicode hex="0052"/>
  <anchor x="506" y="0" name="bottom"/>
  <anchor x="707" y="1420" name="top"/>
  <outline>
    <contour>
      <point x="161" y="450" type="line"/>
      <point x="273" y="450" type="line" smooth="yes"/>
      <point x="870" y="450"/>
      <point x="1181" y="649"/>
      <point x="1181" y="1031" type="curve" smooth="yes"/>
      <point x="1181" y="1300"/>
      <point x="990" y="1440"/>
      <point x="625" y="1440" type="curve" smooth="yes"/>
      <point x="493" y="1440"/>
      <point x="380" y="1433"/>
      <point x="297" y="1420" type="curve"/>
      <point x="264" y="1230" type="line"/>
      <point x="352" y="1243"/>
      <point x="472" y="1250"/>
      <point x="612" y="1250" type="curve" smooth="yes"/>
      <point x="845" y="1250"/>
      <point x="967" y="1170"/>
      <point x="967" y="1018" type="curve" smooth="yes"/>
      <point x="967" y="770"/>
      <point x="740" y="640"/>
      <point x="306" y="640" type="curve" smooth="yes"/>
      <point x="194" y="640" type="line"/>
    </contour>
    <contour>
      <point x="47" y="0" type="line"/>
      <point x="255" y="0" type="line"/>
      <point x="505" y="1420" type="line"/>
      <point x="297" y="1420" type="line"/>
    </contour>
    <contour>
      <point x="820" y="0" type="line"/>
      <point x="1049" y="0" type="line"/>
      <point x="839" y="630" type="line"/>
      <point x="624" y="630" type="line"/>
    </contour>
  </outline>
</glyph>
<glyph name="S" format="2">
  <advance width="1200"/>
  <unicode hex="0053"/>
  <anchor x="506" y="0" name="bottom"/>
  <anchor x="757" y="1420" name="top"/>
  <outline>
    <contour>
      <point x="486" y="-20" type="curve" smooth="yes"/>
      <point x="840" y="-20"/>
      <point x="1026" y="114"/>
      <point x="1026" y="372" type="curve" smooth="yes"/>
      <point x="1026" y="500"/>
      <point x="972" y="589"/>
      <point x="845" y="692" type="curve" smooth="yes"/>
      <point x="599" y="890" type="line" smooth="yes"/>
      <point x="528" y="947"/>
      <point x="498" y="1024"/>
      <point x="498" y="1084" type="curve" smooth="yes"/>
      <point x="498" y="1197"/>
      <point x="580" y="1256"/>
      <point x="727" y="1256" type="curve" smooth="yes"/>
      <point x="831" y="1256"/>
      <point x="935" y="1209"/>
      <point x="1032" y="1119" type="curve"/>
      <point x="1177" y="1271" type="line"/>
      <point x="1071" y="1382"/>
      <point x="921" y="1440"/>
      <point x="739" y="1440" type="curve" smooth="yes"/>
      <point x="443" y="1440"/>
      <point x="284" y="1312"/>
      <point x="284" y="1067" type="curve" smooth="yes"/>
      <point x="284" y="962"/>
      <point x="329" y="844"/>
      <point x="432" y="760" type="curve" smooth="yes"/>
      <point x="718" y="528" type="line" smooth="yes"/>
      <point x="785" y="474"/>
      <point x="812" y="424"/>
      <point x="812" y="349" type="curve" smooth="yes"/>
      <point x="812" y="227"/>
      <point x="706" y="164"/>
      <point x="505" y="164" type="curve" smooth="yes"/>
      <point x="381" y="164"/>
      <point x="246" y="193"/>
      <point x="110" y="250" type="curve"/>
      <point x="48" y="68" type="line"/>
      <point x="166" y="10"/>
      <point x="316" y="-20"/>
    </contour>
  </outline>
</glyph>
<glyph name="T" format="2">
  <advance width="1200"/>
  <unicode hex="0054"/>
  <anchor x="506" y="0" name="bottom"/>
  <anchor x="631" y="710" name="center"/>
  <anchor x="757" y="1420" name="top"/>
  <outline>
    <contour>
      <point x="402" y="0" type="line"/>
      <point x="610" y="0" type="line"/>
      <point x="861" y="1420" type="line"/>
      <point x="653" y="1420" type="line"/>
    </contour>
    <contour>
      <point x="204" y="1230" type="line"/>
      <point x="1243" y="1230" type="line"/>
      <point x="1276" y="1420" type="line"/>
      <point x="237" y="1420" type="line"/>
    </contour>
  </outline>
</glyph>
<glyph name="U" format="2">
  <advance width="1200"/>
  <unicode hex="0055"/>
  <anchor x="506" y="0" name="bottom"/>
  <anchor x="973" y="10" name="ogonek"/>
  <anchor x="757" y="1420" name="top"/>
  <anchor x="1372" y="1420" name="topright"/>
  <outline>
    <contour>
      <point x="539" y="-20" type="curve" smooth="yes"/>
      <point x="819" y="-20"/>
      <point x="991" y="138"/>
      <point x="1047" y="456" type="curve" smooth="yes"/>
      <point x="1217" y="1420" type="line"/>
      <point x="1009" y="1420" type="line"/>
      <point x="839" y="456" type="line" smooth="yes"/>
      <point x="805" y="262"/>
      <point x="712" y="164"/>
      <point x="556" y="164" type="curve" smooth="yes"/>
      <point x="377" y="164"/>
      <point x="301" y="264"/>
      <point x="335" y="456" type="curve" smooth="yes"/>
      <point x="505" y="1420" type="line"/>
      <point x="297" y="1420" type="line"/>
      <point x="127" y="456" type="line" smooth="yes"/>
      <point x="72" y="143"/>
      <point x="211" y="-20"/>
    </contour>
  </outline>
</glyph>
<glyph name="V" format="2">
  <advance width="1200"/>
  <unicode hex="0056"/>
  <anchor x="506" y="0" name="bottom"/>
  <anchor x="757" y="1420" name="top"/>
  <outline>
    <contour>
      <point x="307" y="0" type="line"/>
      <point x="599" y="0" type="line"/>
      <point x="928" y="368"/>
      <point x="1155" y="856"/>
      <point x="1312" y="1420" type="curve"/>
      <point x="1098" y="1420" type="line"/>
      <point x="950" y="924"/>
      <point x="763" y="503"/>
      <point x="512" y="172" type="curve"/>
      <point x="494" y="172" type="line"/>
      <point x="414" y="1432" type="line"/>
      <point x="202" y="1420" type="line"/>
    </contour>
  </outline>
</glyph>
<glyph name="W" format="2">
  <advance width="1200"/>
  <unicode hex="0057"/>
  <anchor x="506" y="0" name="bottom"/>
  <anchor x="717" y="1420" name="top"/>
  <outline>
    <contour>
      <point x="562" y="0" type="line"/>
      <point x="814" y="0" type="line"/>
      <point x="1042" y="368"/>
      <point x="1257" y="856"/>
      <point x="1332" y="1420" type="curve"/>
      <point x="1118" y="1420" type="line"/>
      <point x="1052" y="924"/>
      <point x="866" y="503"/>
      <point x="707" y="172" type="curve"/>
      <point x="689" y="172" type="line"/>
      <point x="755" y="1072" type="line"/>
      <point x="563" y="1060" type="line"/>
      <point x="511" y="505" type="line"/>
      <point x="592" y="505" type="line"/>
    </contour>
    <contour>
      <point x="127" y="0" type="line"/>
      <point x="384" y="0" type="line"/>
      <point x="622" y="566" type="line"/>
      <point x="486" y="466" type="line"/>
      <point x="639" y="466" type="line"/>
      <point x="569" y="737" type="line"/>
      <point x="347" y="172" type="line"/>
      <point x="329" y="172" type="line"/>
      <point x="384" y="1432" type="line"/>
      <point x="177" y="1420" type="line"/>
    </contour>
  </outline>
</glyph>
<glyph name="X" format="2">
  <advance width="1200"/>
  <unicode hex="0058"/>
  <anchor x="506" y="0" name="bottom"/>
  <anchor x="757" y="1420" name="top"/>
  <outline>
    <contour>
      <point x="161" y="-40" type="line"/>
      <point x="639" y="598" type="line"/>
      <point x="1218" y="1300" type="line"/>
      <point x="1052" y="1440" type="line"/>
      <point x="594" y="780" type="line"/>
      <point x="5" y="100" type="line"/>
    </contour>
    <contour>
      <point x="824" y="-20" type="curve" smooth="yes"/>
      <point x="901" y="-20"/>
      <point x="972" y="0"/>
      <point x="1049" y="44" type="curve"/>
      <point x="990" y="215" type="line"/>
      <point x="943" y="184"/>
      <point x="900" y="170"/>
      <point x="853" y="170" type="curve" smooth="yes"/>
      <point x="784" y="170"/>
      <point x="722" y="218"/>
      <point x="720" y="328" type="curve" smooth="yes"/>
      <point x="706" y="1131" type="line" smooth="yes"/>
      <point x="702" y="1348"/>
      <point x="578" y="1440"/>
      <point x="441" y="1440" type="curve" smooth="yes"/>
      <point x="376" y="1440"/>
      <point x="306" y="1423"/>
      <point x="216" y="1386" type="curve"/>
      <point x="275" y="1215" type="line"/>
      <point x="321" y="1239"/>
      <point x="364" y="1250"/>
      <point x="412" y="1250" type="curve" smooth="yes"/>
      <point x="467" y="1250"/>
      <point x="523" y="1202"/>
      <point x="525" y="1092" type="curve" smooth="yes"/>
      <point x="539" y="289" type="line" smooth="yes"/>
      <point x="543" y="72"/>
      <point x="673" y="-20"/>
    </contour>
  </outline>
</glyph>
<glyph name="Y" format="2">
  <advance width="1200"/>
  <unicode hex="0059"/>
  <anchor x="506" y="0" name="bottom"/>
  <anchor x="757" y="1420" name="top"/>
  <anchor x="158" y="1420" name="topleft"/>
  <outline>
    <contour>
      <point x="402" y="0" type="line"/>
      <point x="610" y="0" type="line"/>
      <point x="715" y="594" type="line"/>
      <point x="507" y="594" type="line"/>
    </contour>
    <contour>
      <point x="495" y="424" type="line"/>
      <point x="644" y="384" type="line"/>
      <point x="944" y="717"/>
      <point x="1166" y="1011"/>
      <point x="1332" y="1420" type="curve"/>
      <point x="1118" y="1420" type="line"/>
      <point x="990" y="1112"/>
      <point x="843" y="899"/>
      <point x="632" y="626" type="curve"/>
      <point x="614" y="626" type="line"/>
      <point x="390" y="1430" type="line"/>
      <point x="178" y="1398" type="line"/>
    </contour>
  </outline>
</glyph>
<glyph name="Z" format="2">
  <advance width="1200"/>
  <unicode hex="005A"/>
  <anchor x="506" y="0" name="bottom"/>
  <anchor x="632" y="710" name="center"/>
  <anchor x="737" y="1420" name="top"/>
  <outline>
    <contour>
      <point x="280" y="108" type="line"/>
      <point x="1199" y="1260" type="line"/>
      <point x="1005" y="1322" type="line"/>
      <point x="85" y="160" type="line"/>
    </contour>
    <contour>
      <point x="145" y="0" type="line"/>
      <point x="972" y="0" type="line"/>
      <point x="1005" y="190" type="line"/>
      <point x="280" y="190" type="line"/>
      <point x="85" y="160" type="line"/>
    </contour>
    <contour>
      <point x="301" y="1230" type="line"/>
      <point x="1032" y="1230" type="line"/>
      <point x="1199" y="1260" type="line"/>
      <point x="1139" y="1420" type="line"/>
      <point x="334" y="1420" type="line"/>
    </contour>
  </outline>
</glyph>
<glyph name="bracketleft" format="2">
  <advance width="1200"/>
  <unicode hex="005B"/>
  <outline>
    <contour>
      <point x="241" y="-214" type="line"/>
      <point x="456" y="-214" type="line"/>
      <point x="782" y="1634" type="line"/>
      <point x="567" y="1634" type="line"/>
    </contour>
    <contour>
      <point x="436" y="-214" type="line"/>
      <point x="867" y="-214" type="line"/>
      <point x="901" y="-24" type="line"/>
      <point x="470" y="-24" type="line"/>
    </contour>
    <contour>
      <point x="728" y="1444" type="line"/>
      <point x="1159" y="1444" type="line"/>
      <point x="1193" y="1634" type="line"/>
      <point x="762" y="1634" type="line"/>
    </contour>
  </outline>
</glyph>
<glyph name="backslash" format="2">
  <advance width="1200"/>
  <unicode hex="005C"/>
  <outline>
    <contour>
      <point x="757" y="-190" type="line"/>
      <point x="959" y="-190" type="line"/>
      <point x="462" y="1610" type="line"/>
      <point x="260" y="1610" type="line"/>
    </contour>
  </outline>
</glyph>
<glyph name="bracketright" format="2">
  <advance width="1200"/>
  <unicode hex="005D"/>
  <outline>
    <contour>
      <point x="482" y="-214" type="line"/>
      <point x="697" y="-214" type="line"/>
      <point x="1023" y="1634" type="line"/>
      <point x="808" y="1634" type="line"/>
    </contour>
    <contour>
      <point x="71" y="-214" type="line"/>
      <point x="502" y="-214" type="line"/>
      <point x="536" y="-24" type="line"/>
      <point x="105" y="-24" type="line"/>
    </contour>
    <contour>
      <point x="363" y="1444" type="line"/>
      <point x="794" y="1444" type="line"/>
      <point x="828" y="1634" type="line"/>
      <point x="397" y="1634" type="line"/>
    </contour>
  </outline>
</glyph>
<glyph name="asciicircum" format="2">
  <advance width="1200"/>
  <unicode hex="005E"/>
  <outline>
    <contour>
      <point x="236" y="820" type="line"/>
      <point x="476" y="820" type="line"/>
      <point x="730" y="1260" type="line"/>
      <point x="748" y="1260" type="line"/>
      <point x="848" y="820" type="line"/>
      <point x="1066" y="820" type="line"/>
      <point x="892" y="1420" type="line"/>
      <point x="622" y="1420" type="line"/>
    </contour>
  </outline>
</glyph>
<glyph name="underscore" format="2">
  <advance width="1200"/>
  <unicode hex="005F"/>
  <outline>
    <contour>
      <point x="-24" y="-176" type="line"/>
      <point x="976" y="-176" type="line"/>
      <point x="1007" y="0" type="line"/>
      <point x="7" y="0" type="line"/>
    </contour>
  </outline>
</glyph>
<glyph name="a" format="2">
  <advance width="1200"/>
  <unicode hex="0061"/>
  <anchor x="506" y="0" name="bottom"/>
  <anchor x="982" y="10" name="ogonek"/>
  <anchor x="723" y="1060" name="top"/>
  <outline>
    <contour>
      <point x="347" y="-21" type="curve" smooth="yes"/>
      <point x="552" y="-21"/>
      <point x="712" y="99"/>
      <point x="786" y="309" type="curve"/>
      <point x="733" y="251" type="line"/>
      <point x="849" y="251" type="line"/>
      <point x="791" y="277" type="line"/>
      <point x="765" y="66"/>
      <point x="829" y="-10"/>
      <point x="1034" y="-10" type="curve" smooth="yes"/>
      <point x="1105" y="-10" type="line"/>
      <point x="1135" y="165" type="line"/>
      <point x="1094" y="165" type="line" smooth="yes"/>
      <point x="977" y="165"/>
      <point x="948" y="210"/>
      <point x="967" y="317" type="curve" smooth="yes"/>
      <point x="1099" y="1070" type="line"/>
      <point x="1079" y="1070" type="line" smooth="yes"/>
      <point x="501" y="1070"/>
      <point x="63" y="758"/>
      <point x="63" y="277" type="curve" smooth="yes"/>
      <point x="63" y="88"/>
      <point x="166" y="-21"/>
    </contour>
    <contour>
      <point x="412" y="169" type="curve" smooth="yes"/>
      <point x="327" y="169"/>
      <point x="277" y="217"/>
      <point x="277" y="302" type="curve" smooth="yes"/>
      <point x="277" y="621"/>
      <point x="572" y="864"/>
      <point x="946" y="880" type="curve"/>
      <point x="865" y="957" type="line"/>
      <point x="813" y="667" type="line" smooth="yes"/>
      <point x="756" y="349"/>
      <point x="604" y="169"/>
    </contour>
  </outline>
</glyph>
<glyph name="b" format="2">
  <advance width="1200"/>
  <unicode hex="0062"/>
  <anchor x="506" y="0" name="bottom"/>
  <anchor x="425" y="1420" name="top"/>
  <outline>
    <contour>
      <point x="552" y="1514" type="line"/>
      <point x="139" y="1500" type="line"/>
      <point x="110" y="1335" type="line"/>
      <point x="407" y="1335" type="line"/>
      <point x="312" y="1373" type="line"/>
      <point x="70" y="1" type="line"/>
      <point x="285" y="0" type="line"/>
    </contour>
    <contour>
      <point x="360" y="-20" type="curve" smooth="yes"/>
      <point x="797" y="-20"/>
      <point x="1126" y="315"/>
      <point x="1126" y="760" type="curve" smooth="yes"/>
      <point x="1126" y="964"/>
      <point x="1025" y="1080"/>
      <point x="850" y="1080" type="curve" smooth="yes"/>
      <point x="629" y="1080"/>
      <point x="474" y="957"/>
      <point x="427" y="743" type="curve"/>
      <point x="479" y="819" type="line"/>
      <point x="392" y="819" type="line"/>
      <point x="353" y="388" type="line"/>
      <point x="417" y="740"/>
      <point x="604" y="890"/>
      <point x="770" y="890" type="curve" smooth="yes"/>
      <point x="860" y="890"/>
      <point x="912" y="828"/>
      <point x="912" y="720" type="curve" smooth="yes"/>
      <point x="912" y="406"/>
      <point x="684" y="170"/>
      <point x="382" y="170" type="curve" smooth="yes"/>
      <point x="288" y="170"/>
      <point x="209" y="180"/>
      <point x="170" y="195" type="curve"/>
      <point x="70" y="1" type="line"/>
      <point x="167" y="-12"/>
      <point x="263" y="-20"/>
    </contour>
  </outline>
</glyph>
<glyph name="c" format="2">
  <advance width="1200"/>
  <unicode hex="0063"/>
  <anchor x="576" y="0" name="bottom"/>
  <anchor x="683" y="1060" name="top"/>
  <outline>
    <contour>
      <point x="556" y="170" type="curve" smooth="yes"/>
      <point x="412" y="170"/>
      <point x="329" y="251"/>
      <point x="328" y="391" type="curve" smooth="yes"/>
      <point x="329" y="692"/>
      <point x="472" y="890"/>
      <point x="689" y="890" type="curve" smooth="yes"/>
      <point x="815" y="890"/>
      <point x="900" y="844"/>
      <point x="970" y="737" type="curve"/>
      <point x="1125" y="860" type="line"/>
      <point x="1058" y="1014"/>
      <point x="936" y="1080"/>
      <point x="717" y="1080" type="curve" smooth="yes"/>
      <point x="353" y="1080"/>
      <point x="114" y="798"/>
      <point x="114" y="369" type="curve" smooth="yes"/>
      <point x="114" y="122"/>
      <point x="264" y="-20"/>
      <point x="527" y="-20" type="curve" smooth="yes"/>
      <point x="702" y="-20"/>
      <point x="877" y="39"/>
      <point x="1008" y="129" type="curve"/>
      <point x="936" y="293" type="line"/>
      <point x="833" y="219"/>
      <point x="694" y="170"/>
    </contour>
  </outline>
</glyph>
<glyph name="d" format="2">
  <advance width="1200"/>
  <unicode hex="0064"/>
  <anchor x="506" y="0" name="bottom"/>
  <anchor x="568" y="532" name="center"/>
  <anchor x="1045" y="1500" name="top"/>
  <anchor x="1219" y="1062" name="topright"/>
  <outline>
    <contour>
      <point x="942" y="1400" type="line"/>
      <point x="804" y="619" type="line"/>
      <point x="792" y="339" type="line"/>
      <point x="761" y="-10" type="line"/>
      <point x="1084" y="0" type="line"/>
      <point x="1113" y="165" type="line"/>
      <point x="872" y="165" type="line"/>
      <point x="930" y="116" type="line"/>
      <point x="1177" y="1514" type="line"/>
      <point x="765" y="1500" type="line"/>
      <point x="736" y="1335" type="line"/>
      <point x="1021" y="1335" type="line"/>
    </contour>
    <contour>
      <point x="801" y="252" type="line"/>
      <point x="813" y="667" type="line"/>
      <point x="750" y="350"/>
      <point x="604" y="169"/>
      <point x="417" y="169" type="curve" smooth="yes"/>
      <point x="328" y="169"/>
      <point x="277" y="217"/>
      <point x="277" y="302" type="curve" smooth="yes"/>
      <point x="277" y="627"/>
      <point x="571" y="873"/>
      <point x="946" y="890" type="curve"/>
      <point x="1097" y="1080" type="line"/>
      <point x="1079" y="1080" type="line" smooth="yes"/>
      <point x="501" y="1080"/>
      <point x="63" y="765"/>
      <point x="63" y="277" type="curve" smooth="yes"/>
      <point x="63" y="88"/>
      <point x="168" y="-21"/>
      <point x="352" y="-21" type="curve" smooth="yes"/>
      <point x="560" y="-21"/>
      <point x="718" y="110"/>
      <point x="785" y="309" type="curve"/>
      <point x="685" y="252" type="line"/>
    </contour>
  </outline>
</glyph>
<glyph name="e" format="2">
  <advance width="1200"/>
  <unicode hex="0065"/>
  <anchor x="521" y="0" name="bottom"/>
  <anchor x="990" y="10" name="ogonek"/>
  <anchor x="708" y="1060" name="top"/>
  <outline>
    <contour>
      <point x="587" y="170" type="curve" smooth="yes"/>
      <point x="432" y="170"/>
      <point x="339" y="256"/>
      <point x="338" y="401" type="curve" smooth="yes"/>
      <point x="339" y="694"/>
      <point x="501" y="890"/>
      <point x="740" y="890" type="curve" smooth="yes"/>
      <point x="821" y="890"/>
      <point x="867" y="851"/>
      <point x="867" y="787" type="curve" smooth="yes"/>
      <point x="867" y="630"/>
      <point x="657" y="536"/>
      <point x="300" y="531" type="curve"/>
      <point x="321" y="371" type="line"/>
      <point x="799" y="380"/>
      <point x="1081" y="539"/>
      <point x="1081" y="800" type="curve" smooth="yes"/>
      <point x="1081" y="976"/>
      <point x="965" y="1080"/>
      <point x="768" y="1080" type="curve" smooth="yes"/>
      <point x="392" y="1080"/>
      <point x="141" y="804"/>
      <point x="141" y="389" type="curve" smooth="yes"/>
      <point x="141" y="132"/>
      <point x="303" y="-20"/>
      <point x="578" y="-20" type="curve" smooth="yes"/>
      <point x="714" y="-20"/>
      <point x="871" y="22"/>
      <point x="1002" y="94" type="curve"/>
      <point x="933" y="265" type="line"/>
      <point x="821" y="205"/>
      <point x="693" y="170"/>
    </contour>
  </outline>
</glyph>
<glyph name="g" format="2">
  <advance width="1200"/>
  <unicode hex="0067"/>
  <anchor x="438" y="-388" name="bottom"/>
  <anchor x="693" y="1060" name="top"/>
  <outline>
    <contour>
      <point x="55" y="-480" type="line"/>
      <point x="235" y="-472" type="line" smooth="yes"/>
      <point x="733" y="-450"/>
      <point x="897" y="-174"/>
      <point x="963" y="201" type="curve" smooth="yes"/>
      <point x="1117" y="1070" type="line"/>
      <point x="1109" y="1070" type="line"/>
      <point x="876" y="923" type="line"/>
      <point x="743" y="169" type="line" smooth="yes"/>
      <point x="707" y="-50"/>
      <point x="589" y="-260"/>
      <point x="255" y="-281" type="curve" smooth="yes"/>
      <point x="45" y="-294" type="line"/>
    </contour>
    <contour>
      <point x="960" y="880" type="curve"/>
      <point x="1116" y="1070" type="line"/>
      <point x="1098" y="1070" type="line" smooth="yes"/>
      <point x="518" y="1070"/>
      <point x="81" y="758"/>
      <point x="81" y="277" type="curve" smooth="yes"/>
      <point x="81" y="88"/>
      <point x="186" y="-21"/>
      <point x="370" y="-21" type="curve" smooth="yes"/>
      <point x="557" y="-21"/>
      <point x="697" y="88"/>
      <point x="757" y="279" type="curve"/>
      <point x="709" y="231" type="line"/>
      <point x="825" y="231" type="line"/>
      <point x="941" y="623" type="line"/>
      <point x="838" y="707" type="line"/>
      <point x="831" y="667" type="line" smooth="yes"/>
      <point x="775" y="346"/>
      <point x="632" y="169"/>
      <point x="435" y="169" type="curve" smooth="yes"/>
      <point x="346" y="169"/>
      <point x="295" y="217"/>
      <point x="295" y="302" type="curve" smooth="yes"/>
      <point x="295" y="621"/>
      <point x="587" y="864"/>
    </contour>
  </outline>
</glyph>
<glyph name="h" format="2">
  <advance width="1200"/>
  <unicode hex="0068"/>
  <anchor x="506" y="0" name="bottom"/>
  <anchor x="689" y="784" name="center"/>
  <anchor x="385" y="1500" name="top"/>
  <outline>
    <contour>
      <point x="723" y="0" type="line"/>
      <point x="938" y="0" type="line"/>
      <point x="1061" y="697" type="line" smooth="yes"/>
      <point x="1106" y="950"/>
      <point x="1022" y="1080"/>
      <point x="807" y="1080" type="curve" smooth="yes"/>
      <point x="628" y="1080"/>
      <point x="490" y="985"/>
      <point x="448" y="819" type="curve"/>
      <point x="404" y="819" type="line"/>
      <point x="354" y="390" type="line"/>
      <point x="433" y="764"/>
      <point x="563" y="890"/>
      <point x="727" y="890" type="curve" smooth="yes"/>
      <point x="828" y="890"/>
      <point x="867" y="827"/>
      <point x="846" y="705" type="curve" smooth="yes"/>
    </contour>
    <contour>
      <point x="69" y="0" type="line"/>
      <point x="284" y="0" type="line"/>
      <point x="490" y="1167" type="line" smooth="yes"/>
      <point x="534" y="1415"/>
      <point x="452" y="1521"/>
      <point x="220" y="1521" type="curve" smooth="yes"/>
      <point x="169" y="1521"/>
      <point x="118" y="1517"/>
      <point x="68" y="1505" type="curve"/>
      <point x="89" y="1323" type="line"/>
      <point x="122" y="1331"/>
      <point x="155" y="1334"/>
      <point x="188" y="1334" type="curve" smooth="yes"/>
      <point x="269" y="1334"/>
      <point x="297" y="1290"/>
      <point x="279" y="1187" type="curve" smooth="yes"/>
    </contour>
  </outline>
</glyph>
<glyph name="i" format="2">
  <advance width="1200"/>
  <unicode hex="0069"/>
  <anchor x="508" y="0" name="bottom"/>
  <anchor x="693" y="1060" name="top"/>
  <outline>
    <contour>
      <point x="750" y="-20" type="curve" smooth="yes"/>
      <point x="879" y="-20"/>
      <point x="974" y="17"/>
      <point x="1065" y="64" type="curve"/>
      <point x="996" y="225" type="line"/>
      <point x="915" y="185"/>
      <point x="866" y="170"/>
      <point x="789" y="170" type="curve" smooth="yes"/>
      <point x="693" y="170"/>
      <point x="646" y="214"/>
      <point x="647" y="303" type="curve" smooth="yes"/>
      <point x="647" y="343"/>
      <point x="660" y="435"/>
      <point x="692" y="615" type="curve" smooth="yes"/>
      <point x="770" y="1060" type="line"/>
      <point x="238" y="1060" type="line"/>
      <point x="205" y="874" type="line"/>
      <point x="608" y="874" type="line"/>
      <point x="536" y="953" type="line"/>
      <point x="477" y="615" type="line" smooth="yes"/>
      <point x="446" y="439"/>
      <point x="433" y="343"/>
      <point x="433" y="294" type="curve" smooth="yes"/>
      <point x="433" y="84"/>
      <point x="538" y="-20"/>
    </contour>
    <contour>
      <point x="711" y="1228" type="curve" smooth="yes"/>
      <point x="793" y="1228"/>
      <point x="859" y="1294"/>
      <point x="859" y="1376" type="curve" smooth="yes"/>
      <point x="859" y="1458"/>
      <point x="793" y="1524"/>
      <point x="711" y="1524" type="curve" smooth="yes"/>
      <point x="629" y="1524"/>
      <point x="563" y="1458"/>
      <point x="563" y="1376" type="curve" smooth="yes"/>
      <point x="563" y="1294"/>
      <point x="629" y="1228"/>
    </contour>
  </outline>
</glyph>
<glyph name="j" format="2">
  <advance width="1200"/>
  <unicode hex="006A"/>
  <anchor x="438" y="-388" name="bottom"/>
  <anchor x="944" y="1480" name="top"/>
  <outline>
    <contour>
      <point x="27" y="-480" type="line"/>
      <point x="217" y="-468" type="line" smooth="yes"/>
      <point x="636" y="-442"/>
      <point x="750" y="-266"/>
      <point x="820" y="134" type="curve" smooth="yes"/>
      <point x="983" y="1060" type="line"/>
      <point x="768" y="1060" type="line"/>
      <point x="599" y="102" type="line" smooth="yes"/>
      <point x="556" y="-140"/>
      <point x="492" y="-253"/>
      <point x="237" y="-274" type="curve" smooth="yes"/>
      <point x="17" y="-292" type="line"/>
    </contour>
    <contour>
      <point x="265" y="874" type="line"/>
      <point x="774" y="874" type="line"/>
      <point x="774" y="1060" type="line"/>
      <point x="297" y="1060" type="line"/>
    </contour>
    <contour>
      <point x="911" y="1228" type="curve" smooth="yes"/>
      <point x="993" y="1228"/>
      <point x="1059" y="1294"/>
      <point x="1059" y="1376" type="curve" smooth="yes"/>
      <point x="1059" y="1458"/>
      <point x="993" y="1524"/>
      <point x="911" y="1524" type="curve" smooth="yes"/>
      <point x="829" y="1524"/>
      <point x="763" y="1458"/>
      <point x="763" y="1376" type="curve" smooth="yes"/>
      <point x="763" y="1294"/>
      <point x="829" y="1228"/>
    </contour>
  </outline>
</glyph>
<glyph name="k" format="2">
  <advance width="1200"/>
  <unicode hex="006B"/>
  <anchor x="600" y="0" name="bottom"/>
  <anchor x="455" y="1500" name="top"/>
  <outline>
    <contour>
      <point x="956" y="-20" type="curve" smooth="yes"/>
      <point x="1007" y="-20"/>
      <point x="1043" y="-14"/>
      <point x="1080" y="-6" type="curve"/>
      <point x="1061" y="175" type="line"/>
      <point x="1036" y="172"/>
      <point x="1019" y="170"/>
      <point x="980" y="170" type="curve" smooth="yes"/>
      <point x="824" y="170"/>
      <point x="750" y="251"/>
      <point x="708" y="479" type="curve"/>
      <point x="718" y="326" type="line"/>
      <point x="946" y="444"/>
      <point x="1078" y="603"/>
      <point x="1078" y="817" type="curve" smooth="yes"/>
      <point x="1078" y="976"/>
      <point x="974" y="1080"/>
      <point x="816" y="1080" type="curve" smooth="yes"/>
      <point x="634" y="1080"/>
      <point x="487" y="960"/>
      <point x="444" y="779" type="curve"/>
      <point x="405" y="779" type="line"/>
      <point x="359" y="420" type="line"/>
      <point x="409" y="717"/>
      <point x="601" y="890"/>
      <point x="756" y="890" type="curve" smooth="yes"/>
      <point x="824" y="890"/>
      <point x="864" y="855"/>
      <point x="864" y="795" type="curve" smooth="yes"/>
      <point x="864" y="685"/>
      <point x="780" y="553"/>
      <point x="514" y="425" type="curve"/>
      <point x="555" y="138"/>
      <point x="707" y="-20"/>
    </contour>
    <contour>
      <point x="70" y="1" type="line"/>
      <point x="285" y="1" type="line"/>
      <point x="490" y="1167" type="line" smooth="yes"/>
      <point x="533" y="1415"/>
      <point x="452" y="1521"/>
      <point x="220" y="1521" type="curve" smooth="yes"/>
      <point x="169" y="1521"/>
      <point x="118" y="1517"/>
      <point x="68" y="1505" type="curve"/>
      <point x="91" y="1333" type="line"/>
      <point x="124" y="1341"/>
      <point x="157" y="1344"/>
      <point x="190" y="1344" type="curve" smooth="yes"/>
      <point x="271" y="1344"/>
      <point x="298" y="1300"/>
      <point x="281" y="1197" type="curve" smooth="yes"/>
    </contour>
  </outline>
</glyph>
<glyph name="l" format="2">
  <advance width="1200"/>
  <unicode hex="006C"/>
  <anchor x="600" y="0" name="bottom"/>
  <anchor x="549" y="784" name="center"/>
  <anchor x="701" y="1500" name="top"/>
  <anchor x="1081" y="1500" name="topright"/>
  <outline>
    <contour>
      <point x="703" y="-20" type="curve" smooth="yes"/>
      <point x="832" y="-20"/>
      <point x="927" y="17"/>
      <point x="1018" y="64" type="curve"/>
      <point x="949" y="225" type="line"/>
      <point x="868" y="185"/>
      <point x="819" y="170"/>
      <point x="742" y="170" type="curve" smooth="yes"/>
      <point x="639" y="170"/>
      <point x="589" y="214"/>
      <point x="590" y="303" type="curve" smooth="yes"/>
      <point x="590" y="343"/>
      <point x="603" y="435"/>
      <point x="635" y="615" type="curve" smooth="yes"/>
      <point x="791" y="1500" type="line"/>
      <point x="269" y="1500" type="line"/>
      <point x="236" y="1314" type="line"/>
      <point x="629" y="1314" type="line"/>
      <point x="557" y="1393" type="line"/>
      <point x="420" y="615" type="line" smooth="yes"/>
      <point x="389" y="439"/>
      <point x="376" y="343"/>
      <point x="376" y="294" type="curve" smooth="yes"/>
      <point x="376" y="84"/>
      <point x="484" y="-20"/>
    </contour>
  </outline>
</glyph>
<glyph name="m" format="2">
  <advance width="1200"/>
  <unicode hex="006D"/>
  <guideline x="598" y="0" angle="80"/>
  <guideline x="417" y="0" angle="80"/>
  <anchor x="506" y="0" name="bottom"/>
  <anchor x="693" y="1060" name="top"/>
  <outline>
    <contour>
      <point x="386" y="1060" type="line"/>
      <point x="206" y="1060" type="line"/>
      <point x="19" y="0" type="line"/>
      <point x="234" y="0" type="line"/>
      <point x="373" y="787" type="line"/>
    </contour>
    <contour>
      <point x="417" y="0" type="line"/>
      <point x="597" y="0" type="line"/>
      <point x="740" y="800" type="line" smooth="yes"/>
      <point x="775" y="995"/>
      <point x="722" y="1080"/>
      <point x="598" y="1080" type="curve" smooth="yes"/>
      <point x="500" y="1080"/>
      <point x="430" y="1029"/>
      <point x="397" y="899" type="curve"/>
      <point x="346" y="899" type="line"/>
      <point x="322" y="497" type="line"/>
      <point x="363" y="760"/>
      <point x="428" y="910"/>
      <point x="511" y="910" type="curve" smooth="yes"/>
      <point x="556" y="910"/>
      <point x="573" y="883"/>
      <point x="563" y="828" type="curve" smooth="yes"/>
    </contour>
    <contour>
      <point x="1136" y="800" type="line" smooth="yes"/>
      <point x="1168" y="984"/>
      <point x="1117" y="1080"/>
      <point x="987" y="1080" type="curve" smooth="yes"/>
      <point x="880" y="1080"/>
      <point x="803" y="1031"/>
      <point x="767" y="899" type="curve"/>
      <point x="700" y="899" type="line"/>
      <point x="686" y="497" type="line"/>
      <point x="726" y="760"/>
      <point x="789" y="910"/>
      <point x="877" y="910" type="curve" smooth="yes"/>
      <point x="920" y="910"/>
      <point x="935" y="880"/>
      <point x="926" y="828" type="curve" smooth="yes"/>
      <point x="780" y="0" type="line"/>
      <point x="995" y="0" type="line"/>
    </contour>
  </outline>
</glyph>
<glyph name="o" format="2">
  <advance width="1200"/>
  <unicode hex="006F"/>
  <anchor x="506" y="0" name="bottom"/>
  <anchor x="604" y="530" name="center"/>
  <anchor x="508" y="10" name="ogonek"/>
  <anchor x="693" y="1060" name="top"/>
  <anchor x="1039" y="1060" name="topright"/>
  <outline>
    <contour>
      <point x="502" y="-20" type="curve" smooth="yes"/>
      <point x="860" y="-20"/>
      <point x="1072" y="242"/>
      <point x="1072" y="686" type="curve" smooth="yes"/>
      <point x="1072" y="934"/>
      <point x="932" y="1080"/>
      <point x="696" y="1080" type="curve" smooth="yes"/>
      <point x="338" y="1080"/>
      <point x="126" y="814"/>
      <point x="126" y="364" type="curve" smooth="yes"/>
      <point x="126" y="123"/>
      <point x="266" y="-20"/>
    </contour>
    <contour>
      <point x="539" y="169" type="curve" smooth="yes"/>
      <point x="414" y="169"/>
      <point x="340" y="261"/>
      <point x="340" y="417" type="curve" smooth="yes"/>
      <point x="340" y="714"/>
      <point x="462" y="890"/>
      <point x="667" y="890" type="curve" smooth="yes"/>
      <point x="788" y="890"/>
      <point x="858" y="798"/>
      <point x="858" y="643" type="curve" smooth="yes"/>
      <point x="858" y="345"/>
      <point x="739" y="169"/>
    </contour>
  </outline>
</glyph>
<glyph name="q" format="2">
  <advance width="1200"/>
  <unicode hex="0071"/>
  <anchor x="438" y="-388" name="bottom"/>
  <anchor x="693" y="1060" name="top"/>
  <outline>
    <contour>
      <point x="364" y="-21" type="curve" smooth="yes"/>
      <point x="554" y="-21"/>
      <point x="697" y="88"/>
      <point x="758" y="279" type="curve"/>
      <point x="718" y="252" type="line"/>
      <point x="834" y="252" type="line"/>
      <point x="840" y="667" type="line"/>
      <point x="772" y="346"/>
      <point x="636" y="169"/>
      <point x="429" y="169" type="curve" smooth="yes"/>
      <point x="343" y="169"/>
      <point x="293" y="217"/>
      <point x="293" y="302" type="curve" smooth="yes"/>
      <point x="293" y="621"/>
      <point x="581" y="864"/>
      <point x="949" y="880" type="curve"/>
      <point x="1125" y="1070" type="line"/>
      <point x="1107" y="1070" type="line" smooth="yes"/>
      <point x="521" y="1070"/>
      <point x="79" y="758"/>
      <point x="79" y="277" type="curve" smooth="yes"/>
      <point x="79" y="88"/>
      <point x="183" y="-21"/>
    </contour>
    <contour>
      <point x="638" y="-480" type="line"/>
      <point x="1018" y="-470" type="line"/>
      <point x="1047" y="-305" type="line"/>
      <point x="777" y="-305" type="line"/>
      <point x="875" y="-357" type="line"/>
      <point x="1127" y="1070" type="line"/>
      <point x="1107" y="1070" type="line"/>
      <point x="900" y="1006" type="line"/>
    </contour>
  </outline>
</glyph>
<glyph name="r" format="2">
  <advance width="1200"/>
  <unicode hex="0072"/>
  <anchor x="329" y="0" name="bottom"/>
  <anchor x="693" y="1060" name="top"/>
  <outline>
    <contour>
      <point x="222" y="0" type="line"/>
      <point x="437" y="0" type="line"/>
      <point x="579" y="807" type="line"/>
      <point x="586" y="1060" type="line"/>
      <point x="409" y="1060" type="line"/>
    </contour>
    <contour>
      <point x="973" y="697" type="curve"/>
      <point x="1188" y="697" type="line"/>
      <point x="1229" y="950"/>
      <point x="1146" y="1080"/>
      <point x="934" y="1080" type="curve" smooth="yes"/>
      <point x="767" y="1080"/>
      <point x="639" y="985"/>
      <point x="599" y="819" type="curve"/>
      <point x="555" y="819" type="line"/>
      <point x="505" y="390" type="line"/>
      <point x="579" y="764"/>
      <point x="701" y="890"/>
      <point x="854" y="890" type="curve" smooth="yes"/>
      <point x="952" y="890"/>
      <point x="990" y="827"/>
    </contour>
    <contour>
      <point x="-15" y="0" type="line"/>
      <point x="693" y="0" type="line"/>
      <point x="726" y="186" type="line"/>
      <point x="18" y="186" type="line"/>
    </contour>
    <contour>
      <point x="179" y="874" type="line"/>
      <point x="553" y="874" type="line"/>
      <point x="566" y="1060" type="line"/>
      <point x="212" y="1060" type="line"/>
    </contour>
  </outline>
</glyph>
<glyph name="s" format="2">
  <advance width="1200"/>
  <unicode hex="0073"/>
  <anchor x="506" y="0" name="bottom"/>
  <anchor x="695" y="1060" name="top"/>
  <outline>
    <contour>
      <point x="491" y="-20" type="curve" smooth="yes"/>
      <point x="824" y="-20"/>
      <point x="1015" y="102"/>
      <point x="1015" y="316" type="curve" smooth="yes"/>
      <point x="1015" y="435"/>
      <point x="937" y="534"/>
      <point x="796" y="579" type="curve" smooth="yes"/>
      <point x="491" y="676" type="line" smooth="yes"/>
      <point x="442" y="691"/>
      <point x="416" y="724"/>
      <point x="416" y="760" type="curve" smooth="yes"/>
      <point x="416" y="843"/>
      <point x="524" y="890"/>
      <point x="713" y="890" type="curve" smooth="yes"/>
      <point x="805" y="890"/>
      <point x="929" y="881"/>
      <point x="1055" y="866" type="curve"/>
      <point x="1109" y="1050" type="line"/>
      <point x="997" y="1069"/>
      <point x="864" y="1080"/>
      <point x="743" y="1080" type="curve" smooth="yes"/>
      <point x="398" y="1080"/>
      <point x="201" y="956"/>
      <point x="201" y="740" type="curve" smooth="yes"/>
      <point x="201" y="636"/>
      <point x="274" y="546"/>
      <point x="406" y="502" type="curve" smooth="yes"/>
      <point x="706" y="401" type="line" smooth="yes"/>
      <point x="767" y="380"/>
      <point x="801" y="337"/>
      <point x="801" y="292" type="curve" smooth="yes"/>
      <point x="801" y="214"/>
      <point x="700" y="170"/>
      <point x="525" y="170" type="curve" smooth="yes"/>
      <point x="429" y="170"/>
      <point x="286" y="193"/>
      <point x="132" y="232" type="curve"/>
      <point x="74" y="40" type="line"/>
      <point x="166" y="2"/>
      <point x="318" y="-20"/>
    </contour>
  </outline>
</glyph>
<glyph name="t" format="2">
  <advance width="1200"/>
  <unicode hex="0074"/>
  <anchor x="586" y="0" name="bottom"/>
  <anchor x="434" y="570" name="center"/>
  <anchor x="573" y="1350" name="top"/>
  <anchor x="1153" y="1060" name="topright"/>
  <outline>
    <contour>
      <point x="649" y="-20" type="curve" smooth="yes"/>
      <point x="787" y="-20"/>
      <point x="890" y="13"/>
      <point x="986" y="54" type="curve"/>
      <point x="947" y="225" type="line"/>
      <point x="846" y="184"/>
      <point x="785" y="170"/>
      <point x="688" y="170" type="curve" smooth="yes"/>
      <point x="563" y="170"/>
      <point x="506" y="218"/>
      <point x="506" y="323" type="curve" smooth="yes"/>
      <point x="506" y="399"/>
      <point x="521" y="455"/>
      <point x="544" y="588" type="curve" smooth="yes"/>
      <point x="683" y="1380" type="line"/>
      <point x="468" y="1380" type="line"/>
      <point x="329" y="588" type="line" smooth="yes"/>
      <point x="304" y="448"/>
      <point x="292" y="386"/>
      <point x="292" y="303" type="curve" smooth="yes"/>
      <point x="292" y="82"/>
      <point x="404" y="-20"/>
    </contour>
    <contour>
      <point x="131" y="874" type="line"/>
      <point x="1065" y="874" type="line"/>
      <point x="1098" y="1060" type="line"/>
      <point x="164" y="1060" type="line"/>
    </contour>
  </outline>
</glyph>
<glyph name="u" format="2">
  <advance width="1200"/>
  <unicode hex="0075"/>
  <anchor x="466" y="0" name="bottom"/>
  <anchor x="997" y="10" name="ogonek"/>
  <anchor x="693" y="1060" name="top"/>
  <anchor x="1088" y="1060" name="topright"/>
  <outline>
    <contour>
      <point x="392" y="-21" type="curve" smooth="yes"/>
      <point x="633" y="-21"/>
      <point x="712" y="102"/>
      <point x="783" y="299" type="curve"/>
      <point x="726" y="251" type="line"/>
      <point x="792" y="251" type="line"/>
      <point x="810" y="667" type="line"/>
      <point x="749" y="345"/>
      <point x="634" y="169"/>
      <point x="457" y="169" type="curve" smooth="yes"/>
      <point x="365" y="169"/>
      <point x="312" y="224"/>
      <point x="312" y="322" type="curve" smooth="yes"/>
      <point x="312" y="472"/>
      <point x="374" y="687"/>
      <point x="519" y="1041" type="curve"/>
      <point x="307" y="1080" type="line"/>
      <point x="160" y="735"/>
      <point x="98" y="501"/>
      <point x="98" y="297" type="curve" smooth="yes"/>
      <point x="98" y="95"/>
      <point x="205" y="-21"/>
    </contour>
    <contour>
      <point x="1058" y="-10" type="curve" smooth="yes"/>
      <point x="1105" y="-10" type="line"/>
      <point x="1136" y="165" type="line"/>
      <point x="1093" y="165" type="line" smooth="yes"/>
      <point x="976" y="165"/>
      <point x="946" y="211"/>
      <point x="969" y="339" type="curve" smooth="yes"/>
      <point x="1097" y="1060" type="line"/>
      <point x="880" y="1060" type="line"/>
      <point x="777" y="481" type="line"/>
      <point x="789" y="266" type="line"/>
      <point x="762" y="72"/>
      <point x="842" y="-10"/>
    </contour>
  </outline>
</glyph>
<glyph name="v" format="2">
  <advance width="1200"/>
  <unicode hex="0076"/>
  <guideline x="120" y="70" angle="0"/>
  <anchor x="506" y="0" name="bottom"/>
  <anchor x="693" y="1060" name="top"/>
  <outline>
    <contour>
      <point x="293" y="0" type="line"/>
      <point x="552" y="0" type="line"/>
      <point x="917" y="252"/>
      <point x="1105" y="604"/>
      <point x="1123" y="1060" type="curve"/>
      <point x="909" y="1060" type="line"/>
      <point x="896" y="693"/>
      <point x="759" y="404"/>
      <point x="495" y="186" type="curve"/>
      <point x="477" y="186" type="line"/>
      <point x="375" y="1080" type="line"/>
      <point x="153" y="1060" type="line"/>
    </contour>
  </outline>
</glyph>
<glyph name="w" format="2">
  <advance width="1200"/>
  <unicode hex="0077"/>
  <guideline x="110" y="70" angle="0"/>
  <anchor x="506" y="0" name="bottom"/>
  <anchor x="613" y="1060" name="top"/>
  <outline>
    <contour>
      <point x="627" y="0" type="line"/>
      <point x="811" y="0" type="line"/>
      <point x="1022" y="252"/>
      <point x="1151" y="604"/>
      <point x="1160" y="1060" type="curve"/>
      <point x="946" y="1060" type="line"/>
      <point x="941" y="693"/>
      <point x="862" y="404"/>
      <point x="749" y="186" type="curve"/>
      <point x="731" y="186" type="line"/>
      <point x="704" y="1070" type="line"/>
      <point x="522" y="1060" type="line"/>
      <point x="538" y="466" type="line"/>
      <point x="616" y="506" type="line"/>
    </contour>
    <contour>
      <point x="637" y="706" type="line"/>
      <point x="377" y="186" type="line"/>
      <point x="359" y="186" type="line"/>
      <point x="311" y="1070" type="line"/>
      <point x="99" y="1060" type="line"/>
      <point x="190" y="0" type="line"/>
      <point x="384" y="0" type="line"/>
      <point x="618" y="455" type="line"/>
      <point x="571" y="411" type="line"/>
      <point x="667" y="411" type="line"/>
    </contour>
  </outline>
</glyph>
<glyph name="x" format="2">
  <advance width="1200"/>
  <unicode hex="0078"/>
  <anchor x="506" y="0" name="bottom"/>
  <anchor x="693" y="1060" name="top"/>
  <outline>
    <contour>
      <point x="177" y="-41" type="line"/>
      <point x="631" y="448" type="line"/>
      <point x="1136" y="950" type="line"/>
      <point x="990" y="1100" type="line"/>
      <point x="581" y="630" type="line"/>
      <point x="41" y="109" type="line"/>
    </contour>
    <contour>
      <point x="789" y="-20" type="curve" smooth="yes"/>
      <point x="879" y="-20"/>
      <point x="955" y="-3"/>
      <point x="1045" y="36" type="curve"/>
      <point x="991" y="210" type="line"/>
      <point x="929" y="182"/>
      <point x="877" y="170"/>
      <point x="818" y="170" type="curve" smooth="yes"/>
      <point x="750" y="170"/>
      <point x="705" y="217"/>
      <point x="697" y="328" type="curve" smooth="yes"/>
      <point x="667" y="771" type="line" smooth="yes"/>
      <point x="652" y="991"/>
      <point x="548" y="1080"/>
      <point x="390" y="1080" type="curve" smooth="yes"/>
      <point x="321" y="1080"/>
      <point x="251" y="1065"/>
      <point x="155" y="1031" type="curve"/>
      <point x="206" y="857" type="line"/>
      <point x="260" y="881"/>
      <point x="307" y="890"/>
      <point x="361" y="890" type="curve" smooth="yes"/>
      <point x="426" y="890"/>
      <point x="474" y="843"/>
      <point x="482" y="732" type="curve" smooth="yes"/>
      <point x="512" y="289" type="line" smooth="yes"/>
      <point x="527" y="69"/>
      <point x="629" y="-20"/>
    </contour>
  </outline>
</glyph>
<glyph name="y" format="2">
  <advance width="1200"/>
  <unicode hex="0079"/>
  <anchor x="861" y="0" name="bottom"/>
  <anchor x="653" y="1060" name="top"/>
  <outline>
    <contour>
      <point x="48" y="-472" type="line"/>
      <point x="711" y="-177"/>
      <point x="1057" y="281"/>
      <point x="1208" y="1060" type="curve"/>
      <point x="994" y="1060" type="line"/>
      <point x="875" y="372"/>
      <point x="566" y="-32"/>
      <point x="-41" y="-297" type="curve"/>
    </contour>
    <contour>
      <point x="369" y="1080" type="curve"/>
      <point x="148" y="1060" type="line"/>
      <point x="265" y="636"/>
      <point x="405" y="303"/>
      <point x="572" y="51" type="curve"/>
      <point x="757" y="171" type="line"/>
      <point x="597" y="376"/>
      <point x="468" y="676"/>
    </contour>
  </outline>
</glyph>
<glyph name="z" format="2">
  <advance width="1200"/>
  <unicode hex="007A"/>
  <anchor x="526" y="0" name="bottom"/>
  <anchor x="601" y="530" name="center"/>
  <anchor x="663" y="1060" name="top"/>
  <outline>
    <contour>
      <point x="1096" y="874" type="line"/>
      <point x="953" y="992" type="line"/>
      <point x="106" y="217" type="line"/>
      <point x="284" y="110" type="line"/>
    </contour>
    <contour>
      <point x="978" y="186" type="line"/>
      <point x="168" y="186" type="line"/>
      <point x="106" y="217" type="line"/>
      <point x="156" y="0" type="line"/>
      <point x="945" y="0" type="line"/>
    </contour>
    <contour>
      <point x="1096" y="874" type="line"/>
      <point x="1066" y="1060" type="line"/>
      <point x="269" y="1060" type="line"/>
      <point x="236" y="874" type="line"/>
    </contour>
  </outline>
</glyph>
<glyph name="bar" format="2">
  <advance width="1200"/>
  <unicode hex="007C"/>
  <outline>
    <contour>
      <point x="496" y="-310" type="line"/>
      <point x="704" y="-310" type="line"/>
      <point x="704" y="1730" type="line"/>
      <point x="496" y="1730" type="line"/>
    </contour>
  </outline>
</glyph>
<glyph name="braceright" format="2">
  <advance width="1200"/>
  <unicode hex="007D"/>
  <outline>
    <contour>
      <point x="252" y="-214" type="curve" smooth="yes"/>
      <point x="508" y="-214"/>
      <point x="665" y="-35"/>
      <point x="665" y="254" type="curve" smooth="yes"/>
      <point x="665" y="284"/>
      <point x="664" y="314"/>
      <point x="664" y="345" type="curve" smooth="yes"/>
      <point x="664" y="543"/>
      <point x="764" y="627"/>
      <point x="972" y="627" type="curve"/>
      <point x="1000" y="785" type="line"/>
      <point x="908" y="785"/>
      <point x="751" y="817"/>
      <point x="751" y="922" type="curve" smooth="yes"/>
      <point x="751" y="1076"/>
      <point x="863" y="1143"/>
      <point x="863" y="1343" type="curve" smooth="yes"/>
      <point x="863" y="1523"/>
      <point x="762" y="1626"/>
      <point x="577" y="1626" type="curve" smooth="yes"/>
      <point x="500" y="1626"/>
      <point x="449" y="1618"/>
      <point x="403" y="1606" type="curve"/>
      <point x="397" y="1432" type="line"/>
      <point x="443" y="1438"/>
      <point x="487" y="1442"/>
      <point x="522" y="1442" type="curve" smooth="yes"/>
      <point x="606" y="1442"/>
      <point x="649" y="1392"/>
      <point x="649" y="1306" type="curve" smooth="yes"/>
      <point x="649" y="1127"/>
      <point x="537" y="1065"/>
      <point x="537" y="905" type="curve" smooth="yes"/>
      <point x="537" y="794"/>
      <point x="618" y="726"/>
      <point x="763" y="723" type="curve"/>
      <point x="757" y="689" type="line"/>
      <point x="549" y="685"/>
      <point x="448" y="581"/>
      <point x="448" y="369" type="curve" smooth="yes"/>
      <point x="448" y="325"/>
      <point x="451" y="283"/>
      <point x="451" y="239" type="curve" smooth="yes"/>
      <point x="451" y="66"/>
      <point x="384" y="-30"/>
      <point x="261" y="-30" type="curve" smooth="yes"/>
      <point x="226" y="-30"/>
      <point x="184" y="-26"/>
      <point x="140" y="-20" type="curve"/>
      <point x="86" y="-194" type="line"/>
      <point x="128" y="-206"/>
      <point x="175" y="-214"/>
    </contour>
  </outline>
</glyph>
<glyph name="asciitilde" format="2">
  <advance width="1200"/>
  <unicode hex="007E"/>
  <outline>
    <contour>
      <point x="93" y="486" type="line"/>
      <point x="311" y="486" type="line"/>
      <point x="317" y="520" type="line" smooth="yes"/>
      <point x="338" y="641"/>
      <point x="367" y="695"/>
      <point x="439" y="695" type="curve" smooth="yes"/>
      <point x="506" y="695"/>
      <point x="558" y="655"/>
      <point x="619" y="609" type="curve" smooth="yes"/>
      <point x="686" y="559"/>
      <point x="760" y="520"/>
      <point x="856" y="520" type="curve" smooth="yes"/>
      <point x="1043" y="520"/>
      <point x="1118" y="643"/>
      <point x="1154" y="846" type="curve" smooth="yes"/>
      <point x="1169" y="930" type="line"/>
      <point x="954" y="930" type="line"/>
      <point x="948" y="896" type="line" smooth="yes"/>
      <point x="927" y="775"/>
      <point x="903" y="721"/>
      <point x="844" y="721" type="curve" smooth="yes"/>
      <point x="781" y="721"/>
      <point x="738" y="763"/>
      <point x="681" y="806" type="curve" smooth="yes"/>
      <point x="614" y="857"/>
      <point x="532" y="896"/>
      <point x="435" y="896" type="curve" smooth="yes"/>
      <point x="226" y="896"/>
      <point x="145" y="774"/>
      <point x="110" y="580" type="curve" smooth="yes"/>
    </contour>
  </outline>
</glyph>
<glyph name="exclamdown" format="2">
  <advance width="1200"/>
  <unicode hex="00A1"/>
  <outline>
    <contour>
      <point x="333" y="-370" type="line"/>
      <point x="545" y="-370" type="line"/>
      <point x="689" y="604" type="line"/>
      <point x="537" y="604" type="line"/>
    </contour>
    <component base="period" xOffset="142" yOffset="804"/>
  </outline>
</glyph>
<glyph name="cent" format="2">
  <advance width="1200"/>
  <unicode hex="00A2"/>
  <outline>
    <contour>
      <point x="439" y="-334" type="line"/>
      <point x="579" y="-334" type="line"/>
      <point x="882" y="1394" type="line"/>
      <point x="742" y="1394" type="line"/>
    </contour>
    <component base="c"/>
  </outline>
</glyph>
<glyph name="sterling" format="2">
  <advance width="1200"/>
  <unicode hex="00A3"/>
  <outline>
    <contour>
      <point x="49" y="0" type="line"/>
      <point x="188" y="0" type="line"/>
      <point x="329" y="186" type="line"/>
      <point x="436" y="348"/>
      <point x="469" y="466"/>
      <point x="498" y="627" type="curve" smooth="yes"/>
      <point x="570" y="1035" type="line" smooth="yes"/>
      <point x="595" y="1178"/>
      <point x="687" y="1256"/>
      <point x="802" y="1256" type="curve" smooth="yes"/>
      <point x="902" y="1256"/>
      <point x="981" y="1197"/>
      <point x="1020" y="1094" type="curve"/>
      <point x="1210" y="1221" type="line"/>
      <point x="1169" y="1360"/>
      <point x="1035" y="1440"/>
      <point x="844" y="1440" type="curve" smooth="yes"/>
      <point x="583" y="1440"/>
      <point x="400" y="1294"/>
      <point x="355" y="1036" type="curve" smooth="yes"/>
      <point x="283" y="627" type="line" smooth="yes"/>
      <point x="250" y="443"/>
      <point x="179" y="284"/>
      <point x="40" y="96" type="curve"/>
    </contour>
    <contour>
      <point x="165" y="0" type="line"/>
      <point x="1012" y="0" type="line"/>
      <point x="1042" y="186" type="line"/>
      <point x="165" y="186" type="line"/>
    </contour>
    <contour>
      <point x="118" y="581" type="line"/>
      <point x="879" y="581" type="line"/>
      <point x="903" y="719" type="line"/>
      <point x="142" y="719" type="line"/>
    </contour>
  </outline>
</glyph>
<glyph name="currency" format="2">
  <advance width="1200"/>
  <unicode hex="00A4"/>
  <outline>
    <contour>
      <point x="563" y="300" type="curve" smooth="yes"/>
      <point x="848" y="300"/>
      <point x="1065" y="508"/>
      <point x="1065" y="782" type="curve" smooth="yes"/>
      <point x="1065" y="976"/>
      <point x="929" y="1100"/>
      <point x="704" y="1100" type="curve" smooth="yes"/>
      <point x="418" y="1100"/>
      <point x="202" y="892"/>
      <point x="202" y="618" type="curve" smooth="yes"/>
      <point x="202" y="424"/>
      <point x="337" y="300"/>
    </contour>
    <contour>
      <point x="138" y="131" type="line"/>
      <point x="416" y="394" type="line"/>
      <point x="278" y="495" type="line"/>
      <point x="25" y="268" type="line"/>
    </contour>
    <contour>
      <point x="937" y="141" type="line"/>
      <point x="1081" y="253" type="line"/>
      <point x="905" y="481" type="line"/>
      <point x="764" y="380" type="line"/>
    </contour>
    <contour>
      <point x="596" y="490" type="curve" smooth="yes"/>
      <point x="486" y="490"/>
      <point x="421" y="553"/>
      <point x="421" y="653" type="curve" smooth="yes"/>
      <point x="421" y="798"/>
      <point x="529" y="910"/>
      <point x="670" y="910" type="curve" smooth="yes"/>
      <point x="780" y="910"/>
      <point x="845" y="847"/>
      <point x="845" y="747" type="curve" smooth="yes"/>
      <point x="845" y="602"/>
      <point x="737" y="490"/>
    </contour>
    <contour>
      <point x="347" y="926" type="line"/>
      <point x="503" y="1018" type="line"/>
      <point x="328" y="1259" type="line"/>
      <point x="184" y="1145" type="line"/>
    </contour>
    <contour>
      <point x="999" y="916" type="line"/>
      <point x="1225" y="1125" type="line"/>
      <point x="1110" y="1259" type="line"/>
      <point x="861" y="1014" type="line"/>
    </contour>
  </outline>
</glyph>
<glyph name="yen" format="2">
  <advance width="1200"/>
  <unicode hex="00A5"/>
  <outline>
    <contour>
      <point x="157" y="501" type="line"/>
      <point x="1033" y="501" type="line"/>
      <point x="1057" y="639" type="line"/>
      <point x="731" y="639" type="line"/>
      <point x="615" y="552" type="line"/>
      <point x="514" y="639" type="line"/>
      <point x="181" y="639" type="line"/>
    </contour>
    <contour>
      <point x="102" y="191" type="line"/>
      <point x="978" y="191" type="line"/>
      <point x="1002" y="329" type="line"/>
      <point x="126" y="329" type="line"/>
    </contour>
    <component base="Y"/>
  </outline>
</glyph>
<glyph name="brokenbar" format="2">
  <advance width="1200"/>
  <unicode hex="00A6"/>
  <outline>
    <contour>
      <point x="496" y="870" type="line"/>
      <point x="704" y="870" type="line"/>
      <point x="704" y="1730" type="line"/>
      <point x="496" y="1730" type="line"/>
    </contour>
    <contour>
      <point x="496" y="-310" type="line"/>
      <point x="704" y="-310" type="line"/>
      <point x="704" y="550" type="line"/>
      <point x="496" y="550" type="line"/>
    </contour>
  </outline>
</glyph>
<glyph name="section" format="2">
  <advance width="1200"/>
  <unicode hex="00A7"/>
  <outline>
    <contour>
      <point x="465" y="-219" type="curve" smooth="yes"/>
      <point x="797" y="-219"/>
      <point x="970" y="-106"/>
      <point x="970" y="113" type="curve" smooth="yes"/>
      <point x="970" y="219"/>
      <point x="914" y="329"/>
      <point x="769" y="405" type="curve"/>
      <point x="796" y="305" type="line"/>
      <point x="853" y="461" type="line"/>
      <point x="758" y="398" type="line"/>
      <point x="1019" y="390"/>
      <point x="1157" y="490"/>
      <point x="1157" y="690" type="curve" smooth="yes"/>
      <point x="1157" y="785"/>
      <point x="1101" y="890"/>
      <point x="970" y="971" type="curve" smooth="yes"/>
      <point x="637" y="1178" type="line" smooth="yes"/>
      <point x="584" y="1211"/>
      <point x="562" y="1243"/>
      <point x="562" y="1282" type="curve" smooth="yes"/>
      <point x="562" y="1352"/>
      <point x="629" y="1384"/>
      <point x="775" y="1384" type="curve" smooth="yes"/>
      <point x="871" y="1384"/>
      <point x="967" y="1361"/>
      <point x="1056" y="1317" type="curve"/>
      <point x="1161" y="1479" type="line"/>
      <point x="1070" y="1537"/>
      <point x="942" y="1568"/>
      <point x="787" y="1568" type="curve" smooth="yes"/>
      <point x="486" y="1568"/>
      <point x="348" y="1472"/>
      <point x="348" y="1265" type="curve" smooth="yes"/>
      <point x="348" y="1169"/>
      <point x="384" y="1091"/>
      <point x="470" y="1038" type="curve" smooth="yes"/>
      <point x="556" y="985" type="line"/>
      <point x="486" y="1109" type="line"/>
      <point x="445" y="979" type="line"/>
      <point x="485" y="1018" type="line"/>
      <point x="237" y="1024"/>
      <point x="108" y="928"/>
      <point x="108" y="738" type="curve" smooth="yes"/>
      <point x="108" y="624"/>
      <point x="153" y="535"/>
      <point x="260" y="471" type="curve" smooth="yes"/>
      <point x="682" y="219" type="line" smooth="yes"/>
      <point x="735" y="187"/>
      <point x="756" y="147"/>
      <point x="756" y="105" type="curve" smooth="yes"/>
      <point x="756" y="13"/>
      <point x="663" y="-35"/>
      <point x="484" y="-35" type="curve" smooth="yes"/>
      <point x="366" y="-35"/>
      <point x="238" y="-19"/>
      <point x="109" y="11" type="curve"/>
      <point x="67" y="-171" type="line"/>
      <point x="174" y="-203"/>
      <point x="311" y="-219"/>
    </contour>
    <contour>
      <point x="755" y="472" type="curve" smooth="yes"/>
      <point x="688" y="472"/>
      <point x="621" y="495"/>
      <point x="541" y="543" type="curve" smooth="yes"/>
      <point x="427" y="611" type="line" smooth="yes"/>
      <point x="354" y="655"/>
      <point x="322" y="705"/>
      <point x="322" y="765" type="curve" smooth="yes"/>
      <point x="322" y="888"/>
      <point x="392" y="945"/>
      <point x="545" y="945" type="curve" smooth="yes"/>
      <point x="599" y="945"/>
      <point x="679" y="926"/>
      <point x="768" y="860" type="curve" smooth="yes"/>
      <point x="853" y="797" type="line" smooth="yes"/>
      <point x="912" y="753"/>
      <point x="943" y="700"/>
      <point x="943" y="637" type="curve" smooth="yes"/>
      <point x="943" y="524"/>
      <point x="884" y="472"/>
    </contour>
  </outline>
</glyph>
<glyph name="copyright" format="2">
  <advance width="1200"/>
  <unicode hex="00A9"/>
  <outline>
    <contour>
      <point x="509" y="15" type="curve" smooth="yes"/>
      <point x="957" y="15"/>
      <point x="1221" y="345"/>
      <point x="1221" y="903" type="curve" smooth="yes"/>
      <point x="1221" y="1219"/>
      <point x="1048" y="1405"/>
      <point x="754" y="1405" type="curve" smooth="yes"/>
      <point x="306" y="1405"/>
      <point x="41" y="1070"/>
      <point x="41" y="502" type="curve" smooth="yes"/>
      <point x="41" y="196"/>
      <point x="215" y="15"/>
    </contour>
    <contour>
      <point x="647" y="380" type="curve" smooth="yes"/>
      <point x="713" y="380"/>
      <point x="785" y="384"/>
      <point x="852" y="400" type="curve"/>
      <point x="855" y="556" type="line"/>
      <point x="792" y="546"/>
      <point x="724" y="540"/>
      <point x="659" y="540" type="curve" smooth="yes"/>
      <point x="561" y="540"/>
      <point x="507" y="588"/>
      <point x="507" y="679" type="curve" smooth="yes"/>
      <point x="507" y="800"/>
      <point x="583" y="880"/>
      <point x="699" y="880" type="curve" smooth="yes"/>
      <point x="752" y="880"/>
      <point x="799" y="857"/>
      <point x="836" y="813" type="curve"/>
      <point x="954" y="924" type="line"/>
      <point x="894" y="1000"/>
      <point x="812" y="1040"/>
      <point x="715" y="1040" type="curve" smooth="yes"/>
      <point x="476" y="1040"/>
      <point x="317" y="882"/>
      <point x="317" y="645" type="curve" smooth="yes"/>
      <point x="317" y="474"/>
      <point x="434" y="380"/>
    </contour>
    <contour>
      <point x="537" y="169" type="curve" smooth="yes"/>
      <point x="332" y="169"/>
      <point x="211" y="305"/>
      <point x="211" y="534" type="curve" smooth="yes"/>
      <point x="211" y="985"/>
      <point x="403" y="1251"/>
      <point x="728" y="1251" type="curve" smooth="yes"/>
      <point x="931" y="1251"/>
      <point x="1051" y="1111"/>
      <point x="1051" y="873" type="curve" smooth="yes"/>
      <point x="1051" y="430"/>
      <point x="860" y="169"/>
    </contour>
  </outline>
</glyph>
<glyph name="ordfeminine" format="2">
  <advance width="1200"/>
  <unicode hex="00AA"/>
  <outline>
    <contour>
      <point x="977" y="1440" type="line" smooth="yes"/>
      <point x="592" y="1440"/>
      <point x="302" y="1253"/>
      <point x="302" y="965" type="curve" smooth="yes"/>
      <point x="302" y="839"/>
      <point x="371" y="773"/>
      <point x="504" y="773" type="curve" smooth="yes"/>
      <point x="623" y="773"/>
      <point x="717" y="849"/>
      <point x="760" y="982" type="curve"/>
      <point x="707" y="914" type="line"/>
      <point x="823" y="914" type="line"/>
      <point x="776" y="999" type="line"/>
      <point x="736" y="778" type="line"/>
      <point x="986" y="786" type="line"/>
      <point x="1006" y="899" type="line"/>
      <point x="870" y="911" type="line"/>
      <point x="899" y="868" type="line"/>
      <point x="996" y="1440" type="line"/>
    </contour>
    <contour>
      <point x="534" y="910" type="curve" smooth="yes"/>
      <point x="491" y="910"/>
      <point x="468" y="934"/>
      <point x="468" y="980" type="curve" smooth="yes"/>
      <point x="468" y="1157"/>
      <point x="652" y="1291"/>
      <point x="884" y="1300" type="curve"/>
      <point x="824" y="1327" type="line"/>
      <point x="809" y="1257" type="line" smooth="yes"/>
      <point x="762" y="1036"/>
      <point x="672" y="910"/>
    </contour>
  </outline>
</glyph>
<glyph name="logicalnot" format="2">
  <advance width="1200"/>
  <unicode hex="00AC"/>
  <outline>
    <contour>
      <point x="133" y="717" type="line"/>
      <point x="1133" y="717" type="line"/>
      <point x="1166" y="903" type="line"/>
      <point x="166" y="903" type="line"/>
    </contour>
    <contour>
      <point x="874" y="350" type="line"/>
      <point x="1068" y="350" type="line"/>
      <point x="1151" y="817" type="line"/>
      <point x="957" y="817" type="line"/>
    </contour>
  </outline>
</glyph>
<glyph name="registered" format="2">
  <advance width="1200"/>
  <unicode hex="00AE"/>
  <outline>
    <contour>
      <point x="509" y="15" type="curve" smooth="yes"/>
      <point x="957" y="15"/>
      <point x="1221" y="345"/>
      <point x="1221" y="903" type="curve" smooth="yes"/>
      <point x="1221" y="1219"/>
      <point x="1048" y="1405"/>
      <point x="754" y="1405" type="curve" smooth="yes"/>
      <point x="306" y="1405"/>
      <point x="41" y="1070"/>
      <point x="41" y="502" type="curve" smooth="yes"/>
      <point x="41" y="196"/>
      <point x="215" y="15"/>
    </contour>
    <contour>
      <point x="324" y="396" type="line"/>
      <point x="479" y="396" type="line"/>
      <point x="591" y="1030" type="line"/>
      <point x="436" y="1030" type="line"/>
    </contour>
    <contour>
      <point x="708" y="396" type="line"/>
      <point x="880" y="396" type="line"/>
      <point x="776" y="635" type="line"/>
      <point x="627" y="608" type="line"/>
    </contour>
    <contour>
      <point x="537" y="169" type="curve" smooth="yes"/>
      <point x="332" y="169"/>
      <point x="211" y="305"/>
      <point x="211" y="534" type="curve" smooth="yes"/>
      <point x="211" y="985"/>
      <point x="403" y="1251"/>
      <point x="728" y="1251" type="curve" smooth="yes"/>
      <point x="931" y="1251"/>
      <point x="1051" y="1111"/>
      <point x="1051" y="873" type="curve" smooth="yes"/>
      <point x="1051" y="430"/>
      <point x="860" y="169"/>
    </contour>
    <contour>
      <point x="506" y="600" type="line"/>
      <point x="660" y="600" type="line" smooth="yes"/>
      <point x="826" y="600"/>
      <point x="942" y="696"/>
      <point x="942" y="834" type="curve" smooth="yes"/>
      <point x="942" y="958"/>
      <point x="869" y="1030"/>
      <point x="736" y="1030" type="curve" smooth="yes"/>
      <point x="562" y="1030" type="line"/>
      <point x="539" y="900" type="line"/>
      <point x="713" y="900" type="line" smooth="yes"/>
      <point x="764" y="900"/>
      <point x="792" y="874"/>
      <point x="792" y="829" type="curve" smooth="yes"/>
      <point x="792" y="770"/>
      <point x="748" y="730"/>
      <point x="683" y="730" type="curve" smooth="yes"/>
      <point x="529" y="730" type="line"/>
    </contour>
  </outline>
</glyph>
<glyph name="degree" format="2">
  <advance width="1200"/>
  <unicode hex="00B0"/>
  <outline>
    <contour>
      <point x="628" y="690" type="curve" smooth="yes"/>
      <point x="870" y="690"/>
      <point x="1036" y="829"/>
      <point x="1076" y="1065" type="curve" smooth="yes"/>
      <point x="1116" y="1301"/>
      <point x="998" y="1440"/>
      <point x="760" y="1440" type="curve" smooth="yes"/>
      <point x="518" y="1440"/>
      <point x="352" y="1301"/>
      <point x="312" y="1065" type="curve" smooth="yes"/>
      <point x="272" y="829"/>
      <point x="390" y="690"/>
    </contour>
    <contour>
      <point x="658" y="860" type="curve" smooth="yes"/>
      <point x="540" y="860"/>
      <point x="484" y="936"/>
      <point x="507" y="1065" type="curve" smooth="yes"/>
      <point x="530" y="1194"/>
      <point x="613" y="1270"/>
      <point x="730" y="1270" type="curve" smooth="yes"/>
      <point x="848" y="1270"/>
      <point x="904" y="1194"/>
      <point x="881" y="1065" type="curve" smooth="yes"/>
      <point x="858" y="936"/>
      <point x="775" y="860"/>
    </contour>
  </outline>
</glyph>
<glyph name="plusminus" format="2">
  <advance width="1200"/>
  <unicode hex="00B1"/>
  <outline>
    <contour>
      <point x="444" y="246" type="line"/>
      <point x="656" y="246" type="line"/>
      <point x="828" y="1224" type="line"/>
      <point x="616" y="1224" type="line"/>
    </contour>
    <contour>
      <point x="128" y="683" type="line"/>
      <point x="1127" y="683" type="line"/>
      <point x="1159" y="869" type="line"/>
      <point x="160" y="869" type="line"/>
    </contour>
    <component base="minus" xOffset="-76" yOffset="-430"/>
  </outline>
</glyph>
<glyph name="twosuperior" format="2">
  <advance width="1200"/>
  <unicode hex="00B2"/>
  <outline>
    <contour>
      <point x="445" y="802" type="line"/>
      <point x="675" y="802" type="line"/>
      <point x="675" y="955" type="line"/>
      <point x="827" y="1025"/>
      <point x="972" y="1124"/>
      <point x="972" y="1256" type="curve" smooth="yes"/>
      <point x="972" y="1368"/>
      <point x="883" y="1440"/>
      <point x="736" y="1440" type="curve" smooth="yes"/>
      <point x="635" y="1440"/>
      <point x="563" y="1426"/>
      <point x="479" y="1382" type="curve"/>
      <point x="514" y="1244" type="line"/>
      <point x="575" y="1267"/>
      <point x="639" y="1280"/>
      <point x="691" y="1280" type="curve" smooth="yes"/>
      <point x="750" y="1280"/>
      <point x="779" y="1256"/>
      <point x="779" y="1209" type="curve" smooth="yes"/>
      <point x="779" y="1095"/>
      <point x="601" y="1014"/>
      <point x="429" y="959" type="curve"/>
    </contour>
    <contour>
      <point x="471" y="802" type="line"/>
      <point x="918" y="802" type="line"/>
      <point x="942" y="942" type="line"/>
      <point x="452" y="942" type="line"/>
    </contour>
  </outline>
</glyph>
<glyph name="threesuperior" format="2">
  <advance width="1200"/>
  <unicode hex="00B3"/>
  <outline>
    <contour>
      <point x="597" y="793" type="curve" smooth="yes"/>
      <point x="775" y="793"/>
      <point x="938" y="858"/>
      <point x="938" y="1003" type="curve" smooth="yes"/>
      <point x="938" y="1084"/>
      <point x="873" y="1131"/>
      <point x="772" y="1140" type="curve" smooth="yes"/>
      <point x="602" y="1155" type="line"/>
      <point x="585" y="1059" type="line"/>
      <point x="649" y="1059" type="line" smooth="yes"/>
      <point x="730" y="1059"/>
      <point x="767" y="1041"/>
      <point x="767" y="1007" type="curve" smooth="yes"/>
      <point x="767" y="967"/>
      <point x="707" y="944"/>
      <point x="622" y="944" type="curve" smooth="yes"/>
      <point x="554" y="944"/>
      <point x="502" y="957"/>
      <point x="462" y="965" type="curve"/>
      <point x="396" y="819" type="line"/>
      <point x="448" y="803"/>
      <point x="515" y="793"/>
    </contour>
    <contour>
      <point x="585" y="1059" type="line"/>
      <point x="788" y="1089" type="line"/>
      <point x="801" y="1161" type="line"/>
      <point x="902" y="1170"/>
      <point x="977" y="1224"/>
      <point x="977" y="1302" type="curve" smooth="yes"/>
      <point x="977" y="1391"/>
      <point x="894" y="1440"/>
      <point x="743" y="1440" type="curve" smooth="yes"/>
      <point x="659" y="1440"/>
      <point x="581" y="1431"/>
      <point x="512" y="1410" type="curve"/>
      <point x="506" y="1261" type="line"/>
      <point x="561" y="1280"/>
      <point x="620" y="1290"/>
      <point x="687" y="1290" type="curve" smooth="yes"/>
      <point x="755" y="1290"/>
      <point x="790" y="1273"/>
      <point x="790" y="1246" type="curve" smooth="yes"/>
      <point x="790" y="1212"/>
      <point x="734" y="1185"/>
      <point x="595" y="1175" type="curve"/>
    </contour>
  </outline>
</glyph>
<glyph name="paragraph" format="2">
  <advance width="1200"/>
  <unicode hex="00B6"/>
  <outline>
    <contour>
      <point x="706" y="0" type="line"/>
      <point x="908" y="0" type="line"/>
      <point x="1159" y="1420" type="line"/>
      <point x="957" y="1420" type="line"/>
    </contour>
    <contour>
      <point x="337" y="0" type="line"/>
      <point x="537" y="0" type="line"/>
      <point x="764" y="1286" type="line"/>
      <point x="564" y="1286" type="line"/>
    </contour>
    <contour>
      <point x="540" y="610" type="curve"/>
      <point x="770" y="1420" type="line"/>
      <point x="364" y="1420"/>
      <point x="124" y="1257"/>
      <point x="124" y="982" type="curve" smooth="yes"/>
      <point x="124" y="774"/>
      <point x="279" y="636"/>
    </contour>
    <contour>
      <point x="706" y="1230" type="line"/>
      <point x="1283" y="1230" type="line"/>
      <point x="1317" y="1420" type="line"/>
      <point x="770" y="1420" type="line"/>
    </contour>
  </outline>
</glyph>
<glyph name="onesuperior" format="2">
  <advance width="1200"/>
  <unicode hex="00B9"/>
  <outline>
    <contour>
      <point x="586" y="800" type="line"/>
      <point x="744" y="800" type="line"/>
      <point x="854" y="1420" type="line"/>
      <point x="696" y="1420" type="line"/>
    </contour>
    <contour>
      <point x="388" y="800" type="line"/>
      <point x="595" y="800" type="line"/>
      <point x="620" y="941" type="line"/>
      <point x="413" y="941" type="line"/>
    </contour>
    <contour>
      <point x="734" y="800" type="line"/>
      <point x="906" y="800" type="line"/>
      <point x="931" y="941" type="line"/>
      <point x="759" y="941" type="line"/>
    </contour>
    <contour>
      <point x="469" y="1209" type="line"/>
      <point x="678" y="1260" type="line"/>
      <point x="696" y="1420" type="line"/>
      <point x="497" y="1367" type="line"/>
    </contour>
  </outline>
</glyph>
<glyph name="ordmasculine" format="2">
  <advance width="1200"/>
  <unicode hex="00BA"/>
  <outline>
    <contour>
      <point x="642" y="770" type="curve" smooth="yes"/>
      <point x="875" y="770"/>
      <point x="1051" y="942"/>
      <point x="1051" y="1166" type="curve" smooth="yes"/>
      <point x="1051" y="1334"/>
      <point x="941" y="1440"/>
      <point x="761" y="1440" type="curve" smooth="yes"/>
      <point x="528" y="1440"/>
      <point x="352" y="1268"/>
      <point x="352" y="1044" type="curve" smooth="yes"/>
      <point x="352" y="877"/>
      <point x="461" y="770"/>
    </contour>
    <contour>
      <point x="669" y="920" type="curve" smooth="yes"/>
      <point x="588" y="920"/>
      <point x="539" y="974"/>
      <point x="539" y="1059" type="curve" smooth="yes"/>
      <point x="539" y="1187"/>
      <point x="626" y="1290"/>
      <point x="734" y="1290" type="curve" smooth="yes"/>
      <point x="815" y="1290"/>
      <point x="864" y="1236"/>
      <point x="864" y="1151" type="curve" smooth="yes"/>
      <point x="864" y="1023"/>
      <point x="777" y="920"/>
    </contour>
  </outline>
</glyph>
<glyph name="onequarter" format="2">
  <advance width="1200"/>
  <unicode hex="00BC"/>
  <outline>
    <contour>
      <point x="200" y="284" type="line"/>
      <point x="1220" y="1012" type="line"/>
      <point x="1156" y="1122" type="line"/>
      <point x="135" y="400" type="line"/>
    </contour>
    <component base="onesuperior" xOffset="-260"/>
    <component base="fourinferior" xOffset="270"/>
  </outline>
</glyph>
<glyph name="threequarters" format="2">
  <advance width="1200"/>
  <unicode hex="00BE"/>
  <outline>
    <contour>
      <point x="168" y="284" type="line"/>
      <point x="1188" y="1012" type="line"/>
      <point x="1124" y="1122" type="line"/>
      <point x="103" y="400" type="line"/>
    </contour>
    <component base="threesuperior" xOffset="-260"/>
    <component base="fourinferior" xOffset="270"/>
  </outline>
</glyph>
<glyph name="questiondown" format="2">
  <advance width="1200"/>
  <unicode hex="00BF"/>
  <outline>
    <contour>
      <point x="439" y="-380" type="curve"/>
      <point x="485" y="-190" type="line"/>
      <point x="376" y="-190"/>
      <point x="312" y="-140"/>
      <point x="312" y="-55" type="curve" smooth="yes"/>
      <point x="312" y="34"/>
      <point x="370" y="92"/>
      <point x="474" y="166" type="curve" smooth="yes"/>
      <point x="631" y="278"/>
      <point x="731" y="384"/>
      <point x="751" y="541" type="curve" smooth="yes"/>
      <point x="759" y="604" type="line"/>
      <point x="563" y="604" type="line"/>
      <point x="555" y="555" type="line" smooth="yes"/>
      <point x="541" y="471"/>
      <point x="480" y="387"/>
      <point x="345" y="292" type="curve" smooth="yes"/>
      <point x="180" y="176"/>
      <point x="92" y="70"/>
      <point x="92" y="-82" type="curve" smooth="yes"/>
      <point x="92" y="-269"/>
      <point x="221" y="-380"/>
    </contour>
    <contour>
      <point x="439" y="-380" type="line"/>
      <point x="643" y="-380"/>
      <point x="850" y="-297"/>
      <point x="968" y="-171" type="curve"/>
      <point x="855" y="-18" type="line"/>
      <point x="752" y="-122"/>
      <point x="609" y="-190"/>
      <point x="485" y="-190" type="curve"/>
    </contour>
    <component base="period" xOffset="180" yOffset="803"/>
  </outline>
</glyph>
<glyph name="AE" format="2">
  <advance width="1200"/>
  <unicode hex="00C6"/>
  <anchor x="506" y="0" name="bottom"/>
  <anchor x="990" y="10" name="ogonek"/>
  <anchor x="857" y="1420" name="top"/>
  <outline>
    <contour>
      <point x="491" y="0" type="line"/>
      <point x="689" y="0" type="line"/>
      <point x="939" y="1420" type="line"/>
      <point x="741" y="1420" type="line"/>
    </contour>
    <contour>
      <point x="501" y="0" type="line"/>
      <point x="1005" y="0" type="line"/>
      <point x="1038" y="190" type="line"/>
      <point x="535" y="190" type="line"/>
    </contour>
    <contour>
      <point x="610" y="616" type="line"/>
      <point x="1054" y="616" type="line"/>
      <point x="1087" y="806" type="line"/>
      <point x="643" y="806" type="line"/>
    </contour>
    <contour>
      <point x="718" y="1230" type="line"/>
      <point x="1222" y="1230" type="line"/>
      <point x="1257" y="1420" type="line"/>
      <point x="751" y="1420" type="line"/>
    </contour>
    <contour>
      <point x="-51" y="0" type="line"/>
      <point x="159" y="0" type="line"/>
      <point x="688" y="1248" type="line"/>
      <point x="726" y="1248" type="line"/>
      <point x="867" y="1420" type="line"/>
      <point x="577" y="1420" type="line"/>
    </contour>
    <contour>
      <point x="188" y="237" type="line"/>
      <point x="648" y="237" type="line"/>
      <point x="682" y="417" type="line"/>
      <point x="222" y="417" type="line"/>
    </contour>
  </outline>
</glyph>
<glyph name="Eth" format="2">
  <advance width="1200"/>
  <unicode hex="00D0"/>
  <outline>
    <contour>
      <point x="26" y="612" type="line"/>
      <point x="665" y="612" type="line"/>
      <point x="699" y="802" type="line"/>
      <point x="60" y="802" type="line"/>
    </contour>
    <component base="D"/>
  </outline>
</glyph>
<glyph name="multiply" format="2">
  <advance width="1200"/>
  <unicode hex="00D7"/>
  <guideline x="314" y="114" angle="0"/>
  <guideline x="314" y="574" angle="0"/>
  <outline>
    <contour>
      <point x="209" y="188" type="line"/>
      <point x="87" y="339" type="line"/>
      <point x="1047" y="1188" type="line"/>
      <point x="1168" y="1035" type="line"/>
    </contour>
    <contour>
      <point x="881" y="188" type="line"/>
      <point x="227" y="1067" type="line"/>
      <point x="380" y="1188" type="line"/>
      <point x="1033" y="307" type="line"/>
    </contour>
  </outline>
</glyph>
<glyph name="Oslash" format="2">
  <advance width="1200"/>
  <unicode hex="00D8"/>
  <outline>
    <contour>
      <point x="86" y="-142" type="line"/>
      <point x="1283" y="1449" type="line"/>
      <point x="1154" y="1540" type="line"/>
      <point x="-43" y="-41" type="line"/>
    </contour>
    <component base="O"/>
  </outline>
</glyph>
<glyph name="Thorn" format="2">
  <advance width="1200"/>
  <unicode hex="00DE"/>
  <anchor x="506" y="0" name="bottom"/>
  <anchor x="757" y="1420" name="top"/>
  <outline>
    <contour>
      <point x="67" y="0" type="line"/>
      <point x="275" y="0" type="line"/>
      <point x="525" y="1420" type="line"/>
      <point x="317" y="1420" type="line"/>
    </contour>
    <contour>
      <point x="143" y="165" type="line"/>
      <point x="255" y="165" type="line" smooth="yes"/>
      <point x="845" y="165"/>
      <point x="1152" y="381"/>
      <point x="1152" y="796" type="curve" smooth="yes"/>
      <point x="1152" y="1091"/>
      <point x="965" y="1245"/>
      <point x="607" y="1245" type="curve" smooth="yes"/>
      <point x="487" y="1245"/>
      <point x="384" y="1238"/>
      <point x="309" y="1225" type="curve"/>
      <point x="276" y="1035" type="line"/>
      <point x="351" y="1048"/>
      <point x="454" y="1055"/>
      <point x="574" y="1055" type="curve" smooth="yes"/>
      <point x="813" y="1055"/>
      <point x="938" y="961"/>
      <point x="938" y="783" type="curve" smooth="yes"/>
      <point x="938" y="502"/>
      <point x="715" y="355"/>
      <point x="288" y="355" type="curve" smooth="yes"/>
      <point x="176" y="355" type="line"/>
    </contour>
  </outline>
</glyph>
<glyph name="germandbls" format="2">
  <advance width="1200"/>
  <unicode hex="00DF"/>
  <anchor x="438" y="-388" name="bottom"/>
  <anchor x="805" y="1500" name="top"/>
  <outline>
    <contour>
      <point x="720" y="-20" type="curve" smooth="yes"/>
      <point x="958" y="-20"/>
      <point x="1124" y="127"/>
      <point x="1124" y="337" type="curve" smooth="yes"/>
      <point x="1124" y="450"/>
      <point x="1057" y="522"/>
      <point x="992" y="600" type="curve" smooth="yes"/>
      <point x="951" y="649"/>
      <point x="902" y="696"/>
      <point x="902" y="748" type="curve" smooth="yes"/>
      <point x="902" y="823"/>
      <point x="976" y="900"/>
      <point x="1001" y="926" type="curve" smooth="yes"/>
      <point x="1036" y="962"/>
      <point x="1134" y="1064"/>
      <point x="1134" y="1238" type="curve" smooth="yes"/>
      <point x="1134" y="1419"/>
      <point x="1025" y="1520"/>
      <point x="827" y="1520" type="curve" smooth="yes"/>
      <point x="530" y="1520"/>
      <point x="362" y="1339"/>
      <point x="293" y="943" type="curve" smooth="yes"/>
      <point x="46" y="-460" type="line"/>
      <point x="261" y="-460" type="line"/>
      <point x="510" y="953" type="line" smooth="yes"/>
      <point x="555" y="1212"/>
      <point x="646" y="1331"/>
      <point x="798" y="1330" type="curve" smooth="yes"/>
      <point x="878" y="1329"/>
      <point x="920" y="1288"/>
      <point x="920" y="1225" type="curve" smooth="yes"/>
      <point x="920" y="1128"/>
      <point x="830" y="1030"/>
      <point x="809" y="1005" type="curve" smooth="yes"/>
      <point x="761" y="948"/>
      <point x="688" y="858"/>
      <point x="688" y="736" type="curve" smooth="yes"/>
      <point x="688" y="615"/>
      <point x="758" y="544"/>
      <point x="813" y="490" type="curve" smooth="yes"/>
      <point x="862" y="442"/>
      <point x="910" y="396"/>
      <point x="910" y="321" type="curve" smooth="yes"/>
      <point x="910" y="227"/>
      <point x="851" y="170"/>
      <point x="753" y="170" type="curve" smooth="yes"/>
      <point x="695" y="170"/>
      <point x="622" y="182"/>
      <point x="528" y="203" type="curve"/>
      <point x="473" y="10" type="line"/>
      <point x="535" y="-9"/>
      <point x="613" y="-20"/>
    </contour>
  </outline>
</glyph>
<glyph name="ae" format="2">
  <advance width="1200"/>
  <unicode hex="00E6"/>
  <anchor x="506" y="0" name="bottom"/>
  <anchor x="693" y="1060" name="top"/>
  <outline>
    <contour>
      <point x="908" y="170" type="curve" smooth="yes"/>
      <point x="777" y="170"/>
      <point x="700" y="256"/>
      <point x="699" y="401" type="curve" smooth="yes"/>
      <point x="700" y="694"/>
      <point x="783" y="890"/>
      <point x="906" y="890" type="curve" smooth="yes"/>
      <point x="954" y="890"/>
      <point x="981" y="853"/>
      <point x="981" y="793" type="curve" smooth="yes"/>
      <point x="981" y="638"/>
      <point x="859" y="546"/>
      <point x="652" y="541" type="curve"/>
      <point x="673" y="381" type="line"/>
      <point x="993" y="390"/>
      <point x="1183" y="554"/>
      <point x="1183" y="820" type="curve" smooth="yes"/>
      <point x="1183" y="983"/>
      <point x="1102" y="1080"/>
      <point x="964" y="1080" type="curve" smooth="yes"/>
      <point x="714" y="1080"/>
      <point x="547" y="804"/>
      <point x="547" y="389" type="curve" smooth="yes"/>
      <point x="547" y="132"/>
      <point x="678" y="-20"/>
      <point x="899" y="-20" type="curve" smooth="yes"/>
      <point x="958" y="-20"/>
      <point x="1027" y="-7"/>
      <point x="1084" y="14" type="curve"/>
      <point x="1043" y="190" type="line"/>
      <point x="999" y="177"/>
      <point x="949" y="170"/>
    </contour>
    <contour>
      <point x="237" y="-20" type="curve" smooth="yes"/>
      <point x="409" y="-20"/>
      <point x="514" y="63"/>
      <point x="553" y="256" type="curve"/>
      <point x="465" y="234" type="line"/>
      <point x="634" y="234" type="line"/>
      <point x="508" y="556" type="line"/>
      <point x="477" y="380" type="line"/>
      <point x="456" y="246"/>
      <point x="381" y="170"/>
      <point x="293" y="170" type="curve" smooth="yes"/>
      <point x="225" y="170"/>
      <point x="189" y="205"/>
      <point x="189" y="267" type="curve" smooth="yes"/>
      <point x="189" y="380"/>
      <point x="275" y="454"/>
      <point x="408" y="454" type="curve" smooth="yes"/>
      <point x="465" y="454"/>
      <point x="512" y="454"/>
      <point x="535" y="424" type="curve"/>
      <point x="610" y="598" type="line"/>
      <point x="574" y="621"/>
      <point x="507" y="634"/>
      <point x="444" y="634" type="curve" smooth="yes"/>
      <point x="164" y="634"/>
      <point x="-25" y="473"/>
      <point x="-25" y="234" type="curve" smooth="yes"/>
      <point x="-25" y="71"/>
      <point x="68" y="-20"/>
    </contour>
    <contour>
      <point x="472" y="310" type="line"/>
      <point x="589" y="310" type="line"/>
      <point x="646" y="584" type="line" smooth="yes"/>
      <point x="707" y="878"/>
      <point x="570" y="1061"/>
      <point x="323" y="1067" type="curve" smooth="yes"/>
      <point x="191" y="1070" type="line"/>
      <point x="161" y="880" type="line"/>
      <point x="270" y="877" type="line" smooth="yes"/>
      <point x="447" y="872"/>
      <point x="546" y="770"/>
      <point x="519" y="616" type="curve" smooth="yes"/>
      <point x="480" y="392" type="line"/>
    </contour>
  </outline>
</glyph>
<glyph name="eth" format="2">
  <advance width="1200"/>
  <unicode hex="00F0"/>
  <anchor x="506" y="0" name="bottom"/>
  <anchor x="771" y="1500" name="top"/>
  <outline>
    <contour>
      <point x="502" y="1416" type="line"/>
      <point x="850" y="1271"/>
      <point x="903" y="1038"/>
      <point x="870" y="666" type="curve" smooth="yes"/>
      <point x="840" y="334"/>
      <point x="722" y="170"/>
      <point x="507" y="170" type="curve" smooth="yes"/>
      <point x="377" y="170"/>
      <point x="300" y="243"/>
      <point x="300" y="366" type="curve" smooth="yes"/>
      <point x="300" y="614"/>
      <point x="559" y="760"/>
      <point x="989" y="760" type="curve"/>
      <point x="943" y="950" type="line"/>
      <point x="434" y="950"/>
      <point x="86" y="697"/>
      <point x="86" y="329" type="curve" smooth="yes"/>
      <point x="86" y="110"/>
      <point x="231" y="-20"/>
      <point x="475" y="-20" type="curve" smooth="yes"/>
      <point x="830" y="-20"/>
      <point x="1030" y="177"/>
      <point x="1080" y="574" type="curve" smooth="yes"/>
      <point x="1145" y="1087"/>
      <point x="1017" y="1366"/>
      <point x="550" y="1516" type="curve"/>
    </contour>
    <contour>
      <point x="365" y="997" type="line"/>
      <point x="1225" y="1247" type="line"/>
      <point x="1185" y="1422" type="line"/>
      <point x="325" y="1172" type="line"/>
    </contour>
  </outline>
</glyph>
<glyph name="divide" format="2">
  <advance width="1200"/>
  <unicode hex="00F7"/>
  <outline>
    <contour>
      <point x="115" y="616" type="line"/>
      <point x="1115" y="616" type="line"/>
      <point x="1148" y="802" type="line"/>
      <point x="148" y="802" type="line"/>
    </contour>
    <contour>
      <point x="555" y="151" type="curve" smooth="yes"/>
      <point x="633" y="151"/>
      <point x="696" y="214"/>
      <point x="696" y="291" type="curve" smooth="yes"/>
      <point x="696" y="369"/>
      <point x="633" y="432"/>
      <point x="555" y="432" type="curve" smooth="yes"/>
      <point x="477" y="432"/>
      <point x="414" y="369"/>
      <point x="414" y="291" type="curve" smooth="yes"/>
      <point x="414" y="214"/>
      <point x="477" y="151"/>
    </contour>
    <contour>
      <point x="706" y="984" type="curve" smooth="yes"/>
      <point x="783" y="984"/>
      <point x="847" y="1047"/>
      <point x="847" y="1125" type="curve" smooth="yes"/>
      <point x="847" y="1202"/>
      <point x="784" y="1265"/>
      <point x="706" y="1265" type="curve" smooth="yes"/>
      <point x="628" y="1265"/>
      <point x="565" y="1202"/>
      <point x="565" y="1125" type="curve" smooth="yes"/>
      <point x="565" y="1047"/>
      <point x="628" y="984"/>
    </contour>
  </outline>
</glyph>
<glyph name="oslash" format="2">
  <advance width="1200"/>
  <unicode hex="00F8"/>
  <outline>
    <contour>
      <point x="158" y="-120" type="line"/>
      <point x="1101" y="1120" type="line"/>
      <point x="1007" y="1188" type="line"/>
      <point x="64" y="-52" type="line"/>
    </contour>
    <component base="o"/>
  </outline>
</glyph>
<glyph name="thorn" format="2">
  <advance width="1200"/>
  <unicode hex="00FE"/>
  <anchor x="438" y="-388" name="bottom"/>
  <anchor x="485" y="1500" name="top"/>
  <outline>
    <contour>
      <point x="209" y="-460" type="line"/>
      <point x="557" y="1514" type="line"/>
      <point x="144" y="1500" type="line"/>
      <point x="115" y="1335" type="line"/>
      <point x="310" y="1335" type="line"/>
      <point x="-6" y="-459" type="line"/>
    </contour>
    <contour>
      <point x="365" y="-20" type="curve" smooth="yes"/>
      <point x="802" y="-20"/>
      <point x="1131" y="315"/>
      <point x="1131" y="760" type="curve" smooth="yes"/>
      <point x="1131" y="964"/>
      <point x="1030" y="1080"/>
      <point x="855" y="1080" type="curve" smooth="yes"/>
      <point x="634" y="1080"/>
      <point x="479" y="957"/>
      <point x="432" y="743" type="curve"/>
      <point x="484" y="819" type="line"/>
      <point x="397" y="819" type="line"/>
      <point x="358" y="388" type="line"/>
      <point x="422" y="740"/>
      <point x="609" y="890"/>
      <point x="775" y="890" type="curve" smooth="yes"/>
      <point x="865" y="890"/>
      <point x="917" y="828"/>
      <point x="917" y="720" type="curve" smooth="yes"/>
      <point x="917" y="406"/>
      <point x="689" y="170"/>
      <point x="387" y="170" type="curve" smooth="yes"/>
      <point x="293" y="170"/>
      <point x="214" y="180"/>
      <point x="175" y="195" type="curve"/>
      <point x="85" y="1" type="line"/>
      <point x="179" y="-12"/>
      <point x="271" y="-20"/>
    </contour>
  </outline>
</glyph>
<glyph name="Aogonek" format="2">
  <advance width="1200"/>
  <unicode hex="0104"/>
  <anchor x="438" y="-388" name="bottom"/>
  <outline>
    <contour>
      <point x="840" y="-424" type="curve" smooth="yes"/>
      <point x="891" y="-424"/>
      <point x="942" y="-413"/>
      <point x="990" y="-391" type="curve"/>
      <point x="958" y="-232" type="line"/>
      <point x="927" y="-248"/>
      <point x="895" y="-256"/>
      <point x="866" y="-256" type="curve" smooth="yes"/>
      <point x="810" y="-256"/>
      <point x="780" y="-234"/>
      <point x="780" y="-193" type="curve" smooth="yes"/>
      <point x="780" y="-104"/>
      <point x="914" y="-45"/>
      <point x="1062" y="0" type="curve"/>
      <point x="1023" y="30" type="line"/>
      <point x="852" y="50" type="line"/>
      <point x="852" y="0" type="line"/>
      <point x="712" y="-45"/>
      <point x="630" y="-135"/>
      <point x="630" y="-242" type="curve" smooth="yes"/>
      <point x="630" y="-364"/>
      <point x="702" y="-424"/>
    </contour>
    <component base="A"/>
  </outline>
</glyph>
<glyph name="aogonek" format="2">
  <advance width="1200"/>
  <unicode hex="0105"/>
  <anchor x="438" y="-388" name="bottom"/>
  <outline>
    <contour>
      <point x="860" y="-423" type="curve" smooth="yes"/>
      <point x="903" y="-423"/>
      <point x="944" y="-417"/>
      <point x="973" y="-405" type="curve"/>
      <point x="947" y="-242" type="line"/>
      <point x="929" y="-249"/>
      <point x="903" y="-256"/>
      <point x="873" y="-256" type="curve" smooth="yes"/>
      <point x="823" y="-256"/>
      <point x="795" y="-229"/>
      <point x="795" y="-176" type="curve" smooth="yes"/>
      <point x="795" y="-71"/>
      <point x="938" y="0"/>
      <point x="1065" y="0" type="curve"/>
      <point x="960" y="34" type="line"/>
      <point x="818" y="52" type="line"/>
      <point x="818" y="-28" type="line"/>
      <point x="690" y="-79"/>
      <point x="645" y="-163"/>
      <point x="645" y="-253" type="curve" smooth="yes"/>
      <point x="645" y="-364"/>
      <point x="719" y="-423"/>
    </contour>
    <component base="a"/>
  </outline>
</glyph>
<glyph name="dcaron" format="2">
  <advance width="1200"/>
  <unicode hex="010F"/>
  <outline>
    <contour>
      <point x="1225" y="1188" type="line"/>
      <point x="1397" y="1188" type="line"/>
      <point x="1554" y="1568" type="line"/>
      <point x="1332" y="1568" type="line"/>
    </contour>
    <component base="d"/>
  </outline>
</glyph>
<glyph name="dcroat" format="2">
  <advance width="1200"/>
  <unicode hex="0111"/>
  <anchor x="506" y="0" name="bottom"/>
  <anchor x="568" y="532" name="center"/>
  <anchor x="1068" y="1500" name="top"/>
  <anchor x="1219" y="1062" name="topright"/>
  <outline>
    <contour>
      <point x="960" y="1500" type="line"/>
      <point x="804" y="619" type="line"/>
      <point x="792" y="339" type="line"/>
      <point x="761" y="-10" type="line"/>
      <point x="1084" y="0" type="line"/>
      <point x="1113" y="165" type="line"/>
      <point x="872" y="165" type="line"/>
      <point x="930" y="116" type="line"/>
      <point x="1175" y="1500" type="line"/>
    </contour>
    <contour>
      <point x="801" y="252" type="line"/>
      <point x="813" y="667" type="line"/>
      <point x="750" y="350"/>
      <point x="604" y="169"/>
      <point x="417" y="169" type="curve" smooth="yes"/>
      <point x="328" y="169"/>
      <point x="277" y="217"/>
      <point x="277" y="302" type="curve" smooth="yes"/>
      <point x="277" y="627"/>
      <point x="571" y="873"/>
      <point x="946" y="890" type="curve"/>
      <point x="1097" y="1080" type="line"/>
      <point x="1079" y="1080" type="line" smooth="yes"/>
      <point x="501" y="1080"/>
      <point x="63" y="765"/>
      <point x="63" y="277" type="curve" smooth="yes"/>
      <point x="63" y="88"/>
      <point x="168" y="-21"/>
      <point x="352" y="-21" type="curve" smooth="yes"/>
      <point x="560" y="-21"/>
      <point x="718" y="110"/>
      <point x="785" y="309" type="curve"/>
      <point x="685" y="252" type="line"/>
    </contour>
    <contour>
      <point x="555" y="1218" type="line"/>
      <point x="1231" y="1218" type="line"/>
      <point x="1262" y="1392" type="line"/>
      <point x="586" y="1392" type="line"/>
    </contour>
  </outline>
</glyph>
<glyph name="Eogonek" format="2">
  <advance width="1200"/>
  <unicode hex="0118"/>
  <anchor x="438" y="-388" name="bottom"/>
  <outline>
    <contour>
      <point x="785" y="-424" type="curve" smooth="yes"/>
      <point x="836" y="-424"/>
      <point x="887" y="-413"/>
      <point x="935" y="-391" type="curve"/>
      <point x="903" y="-232" type="line"/>
      <point x="872" y="-248"/>
      <point x="840" y="-256"/>
      <point x="811" y="-256" type="curve" smooth="yes"/>
      <point x="755" y="-256"/>
      <point x="725" y="-227"/>
      <point x="725" y="-173" type="curve" smooth="yes"/>
      <point x="725" y="-63"/>
      <point x="878" y="0"/>
      <point x="1006" y="0" type="curve"/>
      <point x="968" y="30" type="line"/>
      <point x="738" y="27" type="line"/>
      <point x="738" y="-23" type="line"/>
      <point x="635" y="-64"/>
      <point x="575" y="-145"/>
      <point x="575" y="-242" type="curve" smooth="yes"/>
      <point x="575" y="-364"/>
      <point x="647" y="-424"/>
    </contour>
    <component base="E"/>
  </outline>
</glyph>
<glyph name="eogonek" format="2">
  <advance width="1200"/>
  <unicode hex="0119"/>
  <anchor x="438" y="-388" name="bottom"/>
  <outline>
    <contour>
      <point x="717" y="-424" type="curve" smooth="yes"/>
      <point x="778" y="-424"/>
      <point x="839" y="-413"/>
      <point x="897" y="-391" type="curve"/>
      <point x="865" y="-232" type="line"/>
      <point x="824" y="-248"/>
      <point x="782" y="-256"/>
      <point x="743" y="-256" type="curve" smooth="yes"/>
      <point x="680" y="-256"/>
      <point x="647" y="-229"/>
      <point x="647" y="-178" type="curve" smooth="yes"/>
      <point x="647" y="-39"/>
      <point x="768" y="-2"/>
      <point x="870" y="41" type="curve"/>
      <point x="862" y="71" type="line"/>
      <point x="640" y="21" type="line"/>
      <point x="640" y="-29" type="line"/>
      <point x="555" y="-67"/>
      <point x="497" y="-138"/>
      <point x="497" y="-242" type="curve" smooth="yes"/>
      <point x="497" y="-364"/>
      <point x="572" y="-424"/>
    </contour>
    <component base="e"/>
  </outline>
</glyph>
<glyph name="Hbar" format="2">
  <advance width="1200"/>
  <unicode hex="0126"/>
  <outline>
    <contour>
      <point x="125" y="1002" type="line"/>
      <point x="1241" y="1002" type="line"/>
      <point x="1275" y="1192" type="line"/>
      <point x="159" y="1192" type="line"/>
    </contour>
    <component base="H"/>
  </outline>
</glyph>
<glyph name="hbar" format="2">
  <advance width="1200"/>
  <unicode hex="0127"/>
  <anchor x="506" y="0" name="bottom"/>
  <anchor x="689" y="784" name="center"/>
  <anchor x="447" y="1500" name="top"/>
  <outline>
    <contour>
      <point x="723" y="0" type="line"/>
      <point x="938" y="0" type="line"/>
      <point x="1061" y="697" type="line" smooth="yes"/>
      <point x="1106" y="950"/>
      <point x="1022" y="1080"/>
      <point x="807" y="1080" type="curve" smooth="yes"/>
      <point x="630" y="1080"/>
      <point x="494" y="985"/>
      <point x="452" y="819" type="curve"/>
      <point x="408" y="819" type="line"/>
      <point x="358" y="390" type="line"/>
      <point x="436" y="764"/>
      <point x="565" y="890"/>
      <point x="727" y="890" type="curve" smooth="yes"/>
      <point x="828" y="890"/>
      <point x="867" y="827"/>
      <point x="846" y="705" type="curve" smooth="yes"/>
    </contour>
    <contour>
      <point x="75" y="0" type="line"/>
      <point x="290" y="0" type="line"/>
      <point x="555" y="1500" type="line"/>
      <point x="339" y="1500" type="line"/>
    </contour>
    <contour>
      <point x="144" y="1218" type="line"/>
      <point x="860" y="1218" type="line"/>
      <point x="890" y="1392" type="line"/>
      <point x="174" y="1392" type="line"/>
    </contour>
  </outline>
</glyph>
<glyph name="Iogonek" format="2">
  <advance width="1200"/>
  <unicode hex="012E"/>
  <anchor x="438" y="-388" name="bottom"/>
  <outline>
    <contour>
      <point x="487" y="-424" type="curve" smooth="yes"/>
      <point x="548" y="-424"/>
      <point x="609" y="-413"/>
      <point x="667" y="-391" type="curve"/>
      <point x="635" y="-232" type="line"/>
      <point x="594" y="-248"/>
      <point x="552" y="-256"/>
      <point x="513" y="-256" type="curve" smooth="yes"/>
      <point x="450" y="-256"/>
      <point x="417" y="-227"/>
      <point x="417" y="-173" type="curve" smooth="yes"/>
      <point x="417" y="-63"/>
      <point x="559" y="0"/>
      <point x="678" y="0" type="curve"/>
      <point x="640" y="30" type="line"/>
      <point x="410" y="27" type="line"/>
      <point x="410" y="-23" type="line"/>
      <point x="320" y="-64"/>
      <point x="267" y="-145"/>
      <point x="267" y="-242" type="curve" smooth="yes"/>
      <point x="267" y="-364"/>
      <point x="342" y="-424"/>
    </contour>
    <component base="I"/>
  </outline>
</glyph>
<glyph name="iogonek" format="2">
  <advance width="1200"/>
  <unicode hex="012F"/>
  <anchor x="438" y="-388" name="bottom"/>
  <outline>
    <contour>
      <point x="594" y="-424" type="curve" smooth="yes"/>
      <point x="655" y="-424"/>
      <point x="716" y="-413"/>
      <point x="774" y="-391" type="curve"/>
      <point x="742" y="-232" type="line"/>
      <point x="701" y="-248"/>
      <point x="659" y="-256"/>
      <point x="620" y="-256" type="curve" smooth="yes"/>
      <point x="557" y="-256"/>
      <point x="524" y="-229"/>
      <point x="524" y="-178" type="curve" smooth="yes"/>
      <point x="524" y="-70"/>
      <point x="703" y="-37"/>
      <point x="855" y="-9" type="curve"/>
      <point x="848" y="19" type="line"/>
      <point x="577" y="41" type="line"/>
      <point x="577" y="-9" type="line"/>
      <point x="457" y="-39"/>
      <point x="374" y="-128"/>
      <point x="374" y="-242" type="curve" smooth="yes"/>
      <point x="374" y="-364"/>
      <point x="449" y="-424"/>
    </contour>
    <component base="i"/>
  </outline>
</glyph>
<glyph name="idotless" format="2">
  <advance width="1200"/>
  <unicode hex="0131"/>
  <anchor x="508" y="0" name="bottom"/>
  <anchor x="731" y="10" name="ogonek"/>
  <anchor x="693" y="1060" name="top"/>
  <outline>
    <contour>
      <point x="750" y="-20" type="curve" smooth="yes"/>
      <point x="879" y="-20"/>
      <point x="974" y="17"/>
      <point x="1065" y="64" type="curve"/>
      <point x="996" y="225" type="line"/>
      <point x="915" y="185"/>
      <point x="866" y="170"/>
      <point x="789" y="170" type="curve" smooth="yes"/>
      <point x="693" y="170"/>
      <point x="646" y="214"/>
      <point x="647" y="303" type="curve" smooth="yes"/>
      <point x="647" y="343"/>
      <point x="660" y="435"/>
      <point x="692" y="615" type="curve" smooth="yes"/>
      <point x="770" y="1060" type="line"/>
      <point x="238" y="1060" type="line"/>
      <point x="205" y="874" type="line"/>
      <point x="608" y="874" type="line"/>
      <point x="536" y="953" type="line"/>
      <point x="477" y="615" type="line" smooth="yes"/>
      <point x="446" y="439"/>
      <point x="433" y="343"/>
      <point x="433" y="294" type="curve" smooth="yes"/>
      <point x="433" y="84"/>
      <point x="538" y="-20"/>
    </contour>
  </outline>
</glyph>
<glyph name="IJ" format="2">
  <advance width="1200"/>
  <unicode hex="0132"/>
  <anchor x="506" y="0" name="bottom"/>
  <anchor x="757" y="1420" name="top"/>
  <outline>
    <contour>
      <point x="568" y="-20" type="curve" smooth="yes"/>
      <point x="842" y="-20"/>
      <point x="1009" y="119"/>
      <point x="1056" y="386" type="curve" smooth="yes"/>
      <point x="1238" y="1420" type="line"/>
      <point x="1030" y="1420" type="line"/>
      <point x="848" y="386" type="line" smooth="yes"/>
      <point x="822" y="240"/>
      <point x="732" y="164"/>
      <point x="584" y="164" type="curve" smooth="yes"/>
      <point x="443" y="164"/>
      <point x="380" y="230"/>
      <point x="401" y="356" type="curve"/>
      <point x="193" y="356" type="line"/>
      <point x="141" y="109"/>
      <point x="270" y="-20"/>
    </contour>
    <contour>
      <point x="49" y="497" type="line"/>
      <point x="593" y="497" type="line"/>
      <point x="627" y="687" type="line"/>
      <point x="83" y="687" type="line"/>
    </contour>
    <contour>
      <point x="221" y="497" type="line"/>
      <point x="419" y="497" type="line"/>
      <point x="582" y="1420" type="line"/>
      <point x="384" y="1420" type="line"/>
    </contour>
    <contour>
      <point x="178" y="1230" type="line"/>
      <point x="702" y="1230" type="line"/>
      <point x="736" y="1420" type="line"/>
      <point x="212" y="1420" type="line"/>
    </contour>
    <contour>
      <point x="813" y="1230" type="line"/>
      <point x="1099" y="1230" type="line"/>
      <point x="1132" y="1420" type="line"/>
      <point x="847" y="1420" type="line"/>
    </contour>
  </outline>
</glyph>
<glyph name="ij" format="2">
  <advance width="1200"/>
  <unicode hex="0133"/>
  <anchor x="448" y="-329" name="bottom"/>
  <anchor x="795" y="1480" name="top"/>
  <outline>
    <contour>
      <point x="125" y="-480" type="line"/>
      <point x="315" y="-468" type="line" smooth="yes"/>
      <point x="734" y="-442"/>
      <point x="848" y="-266"/>
      <point x="918" y="134" type="curve" smooth="yes"/>
      <point x="1081" y="1060" type="line"/>
      <point x="866" y="1060" type="line"/>
      <point x="697" y="102" type="line" smooth="yes"/>
      <point x="654" y="-140"/>
      <point x="590" y="-253"/>
      <point x="335" y="-274" type="curve" smooth="yes"/>
      <point x="115" y="-292" type="line"/>
    </contour>
    <contour>
      <point x="176" y="0" type="line"/>
      <point x="391" y="0" type="line"/>
      <point x="577" y="1060" type="line"/>
      <point x="362" y="1060" type="line"/>
    </contour>
    <contour>
      <point x="518" y="1228" type="curve" smooth="yes"/>
      <point x="600" y="1228"/>
      <point x="666" y="1294"/>
      <point x="666" y="1376" type="curve" smooth="yes"/>
      <point x="666" y="1458"/>
      <point x="600" y="1524"/>
      <point x="518" y="1524" type="curve" smooth="yes"/>
      <point x="436" y="1524"/>
      <point x="370" y="1458"/>
      <point x="370" y="1376" type="curve" smooth="yes"/>
      <point x="370" y="1294"/>
      <point x="436" y="1228"/>
    </contour>
    <contour>
      <point x="1009" y="1228" type="curve" smooth="yes"/>
      <point x="1091" y="1228"/>
      <point x="1157" y="1294"/>
      <point x="1157" y="1376" type="curve" smooth="yes"/>
      <point x="1157" y="1458"/>
      <point x="1091" y="1524"/>
      <point x="1009" y="1524" type="curve" smooth="yes"/>
      <point x="927" y="1524"/>
      <point x="861" y="1458"/>
      <point x="861" y="1376" type="curve" smooth="yes"/>
      <point x="861" y="1294"/>
      <point x="927" y="1228"/>
    </contour>
  </outline>
</glyph>
<glyph name="kgreenlandic" format="2">
  <advance width="1200"/>
  <unicode hex="0138"/>
  <anchor x="534" y="0" name="bottom"/>
  <anchor x="721" y="1060" name="top"/>
  <outline>
    <contour>
      <point x="956" y="-20" type="curve" smooth="yes"/>
      <point x="1007" y="-20"/>
      <point x="1043" y="-14"/>
      <point x="1080" y="-6" type="curve"/>
      <point x="1061" y="175" type="line"/>
      <point x="1036" y="172"/>
      <point x="1019" y="170"/>
      <point x="980" y="170" type="curve" smooth="yes"/>
      <point x="824" y="170"/>
      <point x="750" y="251"/>
      <point x="708" y="479" type="curve"/>
      <point x="718" y="326" type="line"/>
      <point x="946" y="444"/>
      <point x="1078" y="603"/>
      <point x="1078" y="817" type="curve" smooth="yes"/>
      <point x="1078" y="976"/>
      <point x="974" y="1080"/>
      <point x="816" y="1080" type="curve" smooth="yes"/>
      <point x="632" y="1080"/>
      <point x="483" y="960"/>
      <point x="440" y="779" type="curve"/>
      <point x="401" y="779" type="line"/>
      <point x="355" y="420" type="line"/>
      <point x="405" y="717"/>
      <point x="599" y="890"/>
      <point x="756" y="890" type="curve" smooth="yes"/>
      <point x="824" y="890"/>
      <point x="864" y="855"/>
      <point x="864" y="795" type="curve" smooth="yes"/>
      <point x="864" y="685"/>
      <point x="780" y="553"/>
      <point x="514" y="425" type="curve"/>
      <point x="555" y="138"/>
      <point x="707" y="-20"/>
    </contour>
    <contour>
      <point x="253" y="1060" type="line"/>
      <point x="66" y="1" type="line"/>
      <point x="281" y="1" type="line"/>
      <point x="468" y="1060" type="line"/>
    </contour>
  </outline>
</glyph>
<glyph name="lcaron" format="2">
  <advance width="1200"/>
  <unicode hex="013E"/>
  <outline>
    <contour>
      <point x="1185" y="1188" type="line"/>
      <point x="1357" y="1188" type="line"/>
      <point x="1514" y="1568" type="line"/>
      <point x="1292" y="1568" type="line"/>
    </contour>
    <component base="l"/>
  </outline>
</glyph>
<glyph name="Lslash" format="2">
  <advance width="1200"/>
  <unicode hex="0141"/>
  <anchor x="554" y="0" name="bottom"/>
  <anchor x="659" y="710" name="center"/>
  <anchor x="521" y="1420" name="top"/>
  <anchor x="1364" y="1420" name="topright"/>
  <outline>
    <contour>
      <point x="48" y="469" type="line"/>
      <point x="925" y="875" type="line"/>
      <point x="959" y="1062" type="line"/>
      <point x="81" y="656" type="line"/>
    </contour>
    <contour>
      <point x="167" y="0" type="line"/>
      <point x="375" y="0" type="line"/>
      <point x="625" y="1420" type="line"/>
      <point x="417" y="1420" type="line"/>
    </contour>
    <contour>
      <point x="167" y="0" type="line"/>
      <point x="1007" y="0" type="line"/>
      <point x="1040" y="190" type="line"/>
      <point x="200" y="190" type="line"/>
    </contour>
  </outline>
</glyph>
<glyph name="lslash" format="2">
  <advance width="1200"/>
  <unicode hex="0142"/>
  <outline>
    <contour>
      <point x="124" y="447" type="line"/>
      <point x="1082" y="897" type="line"/>
      <point x="1029" y="1056" type="line"/>
      <point x="72" y="606" type="line"/>
    </contour>
    <component base="l"/>
  </outline>
</glyph>
<glyph name="napostrophe" format="2">
  <advance width="1200"/>
  <unicode hex="0149"/>
  <outline>
    <contour>
      <point x="276" y="1140" type="line"/>
      <point x="348" y="1203" type="line" smooth="yes"/>
      <point x="450" y="1293"/>
      <point x="515" y="1393"/>
      <point x="515" y="1509" type="curve" smooth="yes"/>
      <point x="515" y="1635"/>
      <point x="442" y="1700"/>
      <point x="297" y="1700" type="curve" smooth="yes"/>
      <point x="222" y="1700" type="line"/>
      <point x="190" y="1516" type="line"/>
      <point x="235" y="1516" type="line" smooth="yes"/>
      <point x="281" y="1516"/>
      <point x="305" y="1499"/>
      <point x="305" y="1467" type="curve" smooth="yes"/>
      <point x="305" y="1419"/>
      <point x="264" y="1374"/>
      <point x="214" y="1330" type="curve" smooth="yes"/>
      <point x="155" y="1279" type="line"/>
    </contour>
    <component base="n"/>
  </outline>
</glyph>
<glyph name="Eng" format="2">
  <advance width="1200"/>
  <unicode hex="014A"/>
  <guideline x="663" y="123" angle="90"/>
  <anchor x="438" y="-388" name="bottom"/>
  <outline>
    <contour>
      <point x="777" y="151" type="line"/>
      <point x="744" y="-38" type="line" smooth="yes"/>
      <point x="718" y="-187"/>
      <point x="634" y="-247"/>
      <point x="438" y="-279" type="curve" smooth="yes"/>
      <point x="383" y="-288" type="line"/>
      <point x="395" y="-477" type="line"/>
      <point x="440" y="-472" type="line" smooth="yes"/>
      <point x="766" y="-436"/>
      <point x="906" y="-310"/>
      <point x="958" y="-6" type="curve" smooth="yes"/>
      <point x="985" y="151" type="line"/>
    </contour>
    <component base="N"/>
  </outline>
</glyph>
<glyph name="eng" format="2">
  <advance width="1200"/>
  <unicode hex="014B"/>
  <anchor x="438" y="-388" name="bottom"/>
  <anchor x="693" y="1060" name="top"/>
  <outline>
    <contour>
      <point x="339" y="-480" type="line"/>
      <point x="436" y="-471" type="line" smooth="yes"/>
      <point x="798" y="-437"/>
      <point x="892" y="-264"/>
      <point x="962" y="134" type="curve" smooth="yes"/>
      <point x="1061" y="697" type="line" smooth="yes"/>
      <point x="1106" y="951"/>
      <point x="1022" y="1080"/>
      <point x="807" y="1080" type="curve" smooth="yes"/>
      <point x="630" y="1080"/>
      <point x="494" y="985"/>
      <point x="452" y="819" type="curve"/>
      <point x="408" y="819" type="line"/>
      <point x="358" y="390" type="line"/>
      <point x="436" y="764"/>
      <point x="565" y="890"/>
      <point x="727" y="890" type="curve" smooth="yes"/>
      <point x="828" y="890"/>
      <point x="867" y="827"/>
      <point x="846" y="705" type="curve" smooth="yes"/>
      <point x="741" y="102" type="line" smooth="yes"/>
      <point x="699" y="-137"/>
      <point x="654" y="-254"/>
      <point x="456" y="-277" type="curve" smooth="yes"/>
      <point x="329" y="-292" type="line"/>
    </contour>
    <contour>
      <point x="75" y="0" type="line"/>
      <point x="290" y="0" type="line"/>
      <point x="432" y="807" type="line"/>
      <point x="439" y="1060" type="line"/>
      <point x="262" y="1060" type="line"/>
    </contour>
  </outline>
</glyph>
<glyph name="OE" format="2">
  <advance width="1200"/>
  <unicode hex="0152"/>
  <anchor x="506" y="0" name="bottom"/>
  <anchor x="757" y="1420" name="top"/>
  <outline>
    <contour>
      <point x="423" y="-20" type="curve" smooth="yes"/>
      <point x="498" y="-20"/>
      <point x="560" y="0"/>
      <point x="607" y="0" type="curve" smooth="yes"/>
      <point x="696" y="0" type="line"/>
      <point x="946" y="1420" type="line"/>
      <point x="847" y="1420" type="line" smooth="yes"/>
      <point x="785" y="1420"/>
      <point x="749" y="1440"/>
      <point x="681" y="1440" type="curve" smooth="yes"/>
      <point x="290" y="1440"/>
      <point x="81" y="896"/>
      <point x="81" y="439" type="curve" smooth="yes"/>
      <point x="81" y="144"/>
      <point x="200" y="-20"/>
    </contour>
    <contour>
      <point x="501" y="0" type="line"/>
      <point x="1005" y="0" type="line"/>
      <point x="1038" y="190" type="line"/>
      <point x="535" y="190" type="line"/>
    </contour>
    <contour>
      <point x="466" y="164" type="curve" smooth="yes"/>
      <point x="354" y="164"/>
      <point x="295" y="269"/>
      <point x="295" y="460" type="curve" smooth="yes"/>
      <point x="295" y="759"/>
      <point x="421" y="1256"/>
      <point x="648" y="1256" type="curve" smooth="yes"/>
      <point x="670" y="1256"/>
      <point x="691" y="1248"/>
      <point x="705" y="1234" type="curve"/>
      <point x="518" y="170" type="line"/>
      <point x="503" y="166"/>
      <point x="484" y="164"/>
    </contour>
    <contour>
      <point x="610" y="616" type="line"/>
      <point x="1054" y="616" type="line"/>
      <point x="1087" y="806" type="line"/>
      <point x="643" y="806" type="line"/>
    </contour>
    <contour>
      <point x="718" y="1230" type="line"/>
      <point x="1222" y="1230" type="line"/>
      <point x="1257" y="1420" type="line"/>
      <point x="751" y="1420" type="line"/>
    </contour>
  </outline>
</glyph>
<glyph name="oe" format="2">
  <advance width="1200"/>
  <unicode hex="0153"/>
  <anchor x="506" y="0" name="bottom"/>
  <anchor x="693" y="1060" name="top"/>
  <outline>
    <contour>
      <point x="907" y="170" type="curve" smooth="yes"/>
      <point x="778" y="170"/>
      <point x="703" y="256"/>
      <point x="702" y="401" type="curve" smooth="yes"/>
      <point x="703" y="694"/>
      <point x="784" y="890"/>
      <point x="905" y="890" type="curve" smooth="yes"/>
      <point x="953" y="890"/>
      <point x="980" y="855"/>
      <point x="980" y="797" type="curve" smooth="yes"/>
      <point x="980" y="640"/>
      <point x="860" y="546"/>
      <point x="655" y="541" type="curve"/>
      <point x="676" y="381" type="line"/>
      <point x="994" y="390"/>
      <point x="1182" y="554"/>
      <point x="1182" y="820" type="curve" smooth="yes"/>
      <point x="1182" y="983"/>
      <point x="1101" y="1080"/>
      <point x="963" y="1080" type="curve" smooth="yes"/>
      <point x="715" y="1080"/>
      <point x="550" y="804"/>
      <point x="550" y="389" type="curve" smooth="yes"/>
      <point x="550" y="132"/>
      <point x="679" y="-20"/>
      <point x="898" y="-20" type="curve" smooth="yes"/>
      <point x="957" y="-20"/>
      <point x="1026" y="-7"/>
      <point x="1083" y="14" type="curve"/>
      <point x="1042" y="190" type="line"/>
      <point x="998" y="177"/>
      <point x="948" y="170"/>
    </contour>
    <contour>
      <point x="304" y="-20" type="curve" smooth="yes"/>
      <point x="552" y="-20"/>
      <point x="682" y="229"/>
      <point x="682" y="706" type="curve" smooth="yes"/>
      <point x="682" y="952"/>
      <point x="598" y="1080"/>
      <point x="438" y="1080" type="curve" smooth="yes"/>
      <point x="169" y="1080"/>
      <point x="15" y="812"/>
      <point x="15" y="344" type="curve" smooth="yes"/>
      <point x="15" y="113"/>
      <point x="120" y="-20"/>
    </contour>
    <contour>
      <point x="347" y="170" type="curve" smooth="yes"/>
      <point x="270" y="170"/>
      <point x="228" y="245"/>
      <point x="228" y="377" type="curve" smooth="yes"/>
      <point x="228" y="703"/>
      <point x="302" y="890"/>
      <point x="434" y="890" type="curve" smooth="yes"/>
      <point x="500" y="890"/>
      <point x="538" y="811"/>
      <point x="538" y="673" type="curve" smooth="yes"/>
      <point x="538" y="353"/>
      <point x="469" y="170"/>
    </contour>
  </outline>
</glyph>
<glyph name="tcaron" format="2">
  <advance width="1200"/>
  <unicode hex="0165"/>
  <outline>
    <contour>
      <point x="835" y="1228" type="line"/>
      <point x="1007" y="1228" type="line"/>
      <point x="1164" y="1608" type="line"/>
      <point x="942" y="1608" type="line"/>
    </contour>
    <component base="t"/>
  </outline>
</glyph>
<glyph name="Tbar" format="2">
  <advance width="1200"/>
  <unicode hex="0166"/>
  <outline>
    <contour>
      <point x="202" y="587" type="line"/>
      <point x="1018" y="587" type="line"/>
      <point x="1052" y="777" type="line"/>
      <point x="236" y="777" type="line"/>
    </contour>
    <component base="T"/>
  </outline>
</glyph>
<glyph name="tbar" format="2">
  <advance width="1200"/>
  <unicode hex="0167"/>
  <outline>
    <contour>
      <point x="65" y="496" type="line"/>
      <point x="997" y="496" type="line"/>
      <point x="1028" y="670" type="line"/>
      <point x="95" y="670" type="line"/>
    </contour>
    <component base="t"/>
  </outline>
</glyph>
<glyph name="Uogonek" format="2">
  <advance width="1200"/>
  <unicode hex="0172"/>
  <anchor x="438" y="-388" name="bottom"/>
  <outline>
    <contour>
      <point x="511" y="-424" type="curve" smooth="yes"/>
      <point x="572" y="-424"/>
      <point x="633" y="-413"/>
      <point x="691" y="-391" type="curve"/>
      <point x="659" y="-232" type="line"/>
      <point x="618" y="-248"/>
      <point x="576" y="-256"/>
      <point x="537" y="-256" type="curve" smooth="yes"/>
      <point x="474" y="-256"/>
      <point x="441" y="-227"/>
      <point x="441" y="-173" type="curve" smooth="yes"/>
      <point x="441" y="-67"/>
      <point x="567" y="-35"/>
      <point x="672" y="-6" type="curve"/>
      <point x="664" y="24" type="line"/>
      <point x="434" y="21" type="line"/>
      <point x="434" y="-29" type="line"/>
      <point x="349" y="-65"/>
      <point x="291" y="-133"/>
      <point x="291" y="-232" type="curve" smooth="yes"/>
      <point x="291" y="-361"/>
      <point x="366" y="-424"/>
    </contour>
    <component base="U"/>
  </outline>
</glyph>
<glyph name="uogonek" format="2">
  <advance width="1200"/>
  <unicode hex="0173"/>
  <outline>
    <contour>
      <point x="857" y="-423" type="curve" smooth="yes"/>
      <point x="900" y="-423"/>
      <point x="941" y="-417"/>
      <point x="970" y="-405" type="curve"/>
      <point x="944" y="-242" type="line"/>
      <point x="926" y="-249"/>
      <point x="900" y="-256"/>
      <point x="870" y="-256" type="curve" smooth="yes"/>
      <point x="820" y="-256"/>
      <point x="792" y="-229"/>
      <point x="792" y="-176" type="curve" smooth="yes"/>
      <point x="792" y="-71"/>
      <point x="935" y="0"/>
      <point x="1062" y="0" type="curve"/>
      <point x="957" y="34" type="line"/>
      <point x="815" y="52" type="line"/>
      <point x="815" y="-28" type="line"/>
      <point x="687" y="-79"/>
      <point x="642" y="-163"/>
      <point x="642" y="-253" type="curve" smooth="yes"/>
      <point x="642" y="-364"/>
      <point x="716" y="-423"/>
    </contour>
    <component base="u"/>
  </outline>
</glyph>
<glyph name="longs" format="2">
  <advance width="1200"/>
  <unicode hex="017F"/>
  <anchor x="388" y="-388" name="bottom"/>
  <anchor x="885" y="1500" name="top"/>
  <outline>
    <contour>
      <point x="-56" y="-473" type="line"/>
      <point x="15" y="-465" type="line" smooth="yes"/>
      <point x="326" y="-430"/>
      <point x="476" y="-277"/>
      <point x="530" y="32" type="curve" smooth="yes"/>
      <point x="697" y="980" type="line" smooth="yes"/>
      <point x="738" y="1215"/>
      <point x="874" y="1330"/>
      <point x="1090" y="1330" type="curve" smooth="yes"/>
      <point x="1135" y="1330"/>
      <point x="1179" y="1326"/>
      <point x="1241" y="1316" type="curve"/>
      <point x="1295" y="1500" type="line"/>
      <point x="1240" y="1514"/>
      <point x="1190" y="1520"/>
      <point x="1129" y="1520" type="curve" smooth="yes"/>
      <point x="765" y="1520"/>
      <point x="545" y="1339"/>
      <point x="480" y="970" type="curve" smooth="yes"/>
      <point x="320" y="62" type="line" smooth="yes"/>
      <point x="283" y="-150"/>
      <point x="195" y="-255"/>
      <point x="8" y="-275" type="curve" smooth="yes"/>
      <point x="-65" y="-283" type="line"/>
    </contour>
    <contour>
      <point x="88" y="640" type="line"/>
      <point x="568" y="640" type="line"/>
      <point x="601" y="826" type="line"/>
      <point x="121" y="826" type="line"/>
    </contour>
  </outline>
</glyph>
<glyph name="Oopen" format="2">
  <advance width="1200"/>
  <unicode hex="0186"/>
  <anchor x="506" y="0" name="bottom"/>
  <anchor x="757" y="1420" name="top"/>
  <outline>
    <contour>
      <point x="638" y="1440" type="curve" smooth="yes"/>
      <point x="514" y="1440"/>
      <point x="389" y="1418"/>
      <point x="264" y="1372" type="curve"/>
      <point x="278" y="1196" type="line"/>
      <point x="391" y="1236"/>
      <point x="502" y="1256"/>
      <point x="611" y="1256" type="curve" smooth="yes"/>
      <point x="846" y="1256"/>
      <point x="965" y="1134"/>
      <point x="965" y="890" type="curve" smooth="yes"/>
      <point x="965" y="472"/>
      <point x="727" y="164"/>
      <point x="404" y="164" type="curve" smooth="yes"/>
      <point x="293" y="164"/>
      <point x="206" y="202"/>
      <point x="124" y="286" type="curve"/>
      <point x="-19" y="139" type="line"/>
      <point x="78" y="29"/>
      <point x="201" y="-20"/>
      <point x="375" y="-20" type="curve" smooth="yes"/>
      <point x="850" y="-20"/>
      <point x="1179" y="357"/>
      <point x="1179" y="897" type="curve" smooth="yes"/>
      <point x="1179" y="1259"/>
      <point x="998" y="1440"/>
    </contour>
  </outline>
</glyph>
<glyph name="Ereversed" format="2">
  <advance width="1200"/>
  <unicode hex="018E"/>
  <anchor x="506" y="0" name="bottom"/>
  <anchor x="757" y="1420" name="top"/>
  <anchor x="1364" y="1420" name="topright"/>
  <outline>
    <contour>
      <point x="738" y="0" type="line"/>
      <point x="947" y="0" type="line"/>
      <point x="1197" y="1420" type="line"/>
      <point x="988" y="1420" type="line"/>
    </contour>
    <contour>
      <point x="7" y="0" type="line"/>
      <point x="947" y="0" type="line"/>
      <point x="980" y="190" type="line"/>
      <point x="40" y="190" type="line"/>
    </contour>
    <contour>
      <point x="295" y="614" type="line"/>
      <point x="1055" y="614" type="line"/>
      <point x="1088" y="804" type="line"/>
      <point x="328" y="804" type="line"/>
    </contour>
    <contour>
      <point x="224" y="1230" type="line"/>
      <point x="1163" y="1230" type="line"/>
      <point x="1197" y="1420" type="line"/>
      <point x="257" y="1420" type="line"/>
    </contour>
  </outline>
</glyph>
<glyph name="Schwa" format="2">
  <advance width="1200"/>
  <unicode hex="018F"/>
  <anchor x="506" y="0" name="bottom"/>
  <anchor x="757" y="1420" name="top"/>
  <outline>
    <contour>
      <point x="560" y="1256" type="curve" smooth="yes"/>
      <point x="811" y="1256"/>
      <point x="960" y="1101"/>
      <point x="962" y="839" type="curve" smooth="yes"/>
      <point x="961" y="415"/>
      <point x="788" y="164"/>
      <point x="497" y="164" type="curve" smooth="yes"/>
      <point x="368" y="164"/>
      <point x="293" y="230"/>
      <point x="293" y="343" type="curve" smooth="yes"/>
      <point x="293" y="565"/>
      <point x="556" y="701"/>
      <point x="1003" y="709" type="curve"/>
      <point x="962" y="893" type="line"/>
      <point x="406" y="882"/>
      <point x="79" y="672"/>
      <point x="79" y="330" type="curve" smooth="yes"/>
      <point x="79" y="110"/>
      <point x="223" y="-20"/>
      <point x="469" y="-20" type="curve" smooth="yes"/>
      <point x="913" y="-20"/>
      <point x="1176" y="304"/>
      <point x="1176" y="851" type="curve" smooth="yes"/>
      <point x="1176" y="1221"/>
      <point x="950" y="1440"/>
      <point x="569" y="1440" type="curve" smooth="yes"/>
      <point x="460" y="1440"/>
      <point x="331" y="1416"/>
      <point x="225" y="1376" type="curve"/>
      <point x="279" y="1195" type="line"/>
      <point x="369" y="1233"/>
      <point x="474" y="1256"/>
    </contour>
  </outline>
</glyph>
<glyph name="Eopen" format="2">
  <advance width="1200"/>
  <unicode hex="0190"/>
  <anchor x="506" y="0" name="bottom"/>
  <anchor x="757" y="1420" name="top"/>
  <outline>
    <contour>
      <point x="851" y="1440" type="curve" smooth="yes"/>
      <point x="526" y="1440"/>
      <point x="278" y="1311"/>
      <point x="278" y="1029" type="curve" smooth="yes"/>
      <point x="278" y="892"/>
      <point x="369" y="794"/>
      <point x="587" y="763" type="curve"/>
      <point x="580" y="819" type="line"/>
      <point x="560" y="702" type="line"/>
      <point x="586" y="756" type="line"/>
      <point x="279" y="750"/>
      <point x="97" y="593"/>
      <point x="97" y="332" type="curve" smooth="yes"/>
      <point x="97" y="116"/>
      <point x="274" y="-20"/>
      <point x="577" y="-20" type="curve" smooth="yes"/>
      <point x="775" y="-20"/>
      <point x="878" y="-4"/>
      <point x="1015" y="48" type="curve"/>
      <point x="1000" y="222" type="line"/>
      <point x="847" y="176"/>
      <point x="768" y="164"/>
      <point x="605" y="164" type="curve" smooth="yes"/>
      <point x="419" y="164"/>
      <point x="312" y="240"/>
      <point x="312" y="368" type="curve" smooth="yes"/>
      <point x="312" y="553"/>
      <point x="480" y="652"/>
      <point x="688" y="652" type="curve" smooth="yes"/>
      <point x="859" y="652" type="line"/>
      <point x="893" y="840" type="line"/>
      <point x="600" y="849"/>
      <point x="478" y="905"/>
      <point x="478" y="1023" type="curve" smooth="yes"/>
      <point x="478" y="1180"/>
      <point x="627" y="1256"/>
      <point x="819" y="1256" type="curve" smooth="yes"/>
      <point x="943" y="1256"/>
      <point x="1023" y="1217"/>
      <point x="1105" y="1129" type="curve"/>
      <point x="1254" y="1281" type="line"/>
      <point x="1146" y="1390"/>
      <point x="1019" y="1440"/>
    </contour>
  </outline>
</glyph>
<glyph name="Fhook" format="2">
  <advance width="1200"/>
  <unicode hex="0191"/>
  <anchor x="438" y="-388" name="bottom"/>
  <outline>
    <contour>
      <point x="114" y="151" type="line"/>
      <point x="81" y="-33" type="line" smooth="yes"/>
      <point x="56" y="-174"/>
      <point x="-19" y="-234"/>
      <point x="-192" y="-266" type="curve" smooth="yes"/>
      <point x="-235" y="-274" type="line"/>
      <point x="-219" y="-476" type="line"/>
      <point x="-188" y="-472" type="line" smooth="yes"/>
      <point x="116" y="-433"/>
      <point x="242" y="-310"/>
      <point x="294" y="-6" type="curve" smooth="yes"/>
      <point x="321" y="151" type="line"/>
    </contour>
    <component base="F"/>
  </outline>
</glyph>
<glyph name="florin" format="2">
  <advance width="1200"/>
  <unicode hex="0192"/>
  <outline>
    <contour>
      <point x="90" y="-480" type="curve" smooth="yes"/>
      <point x="346" y="-480"/>
      <point x="490" y="-284"/>
      <point x="567" y="137" type="curve" smooth="yes"/>
      <point x="651" y="613" type="line" smooth="yes"/>
      <point x="735" y="1075"/>
      <point x="776" y="1330"/>
      <point x="1014" y="1330" type="curve" smooth="yes"/>
      <point x="1097" y="1330"/>
      <point x="1166" y="1287"/>
      <point x="1215" y="1206" type="curve"/>
      <point x="1362" y="1343" type="line"/>
      <point x="1290" y="1459"/>
      <point x="1181" y="1520"/>
      <point x="1045" y="1520" type="curve" smooth="yes"/>
      <point x="724" y="1520"/>
      <point x="571" y="1345"/>
      <point x="477" y="837" type="curve" smooth="yes"/>
      <point x="404" y="427" type="line" smooth="yes"/>
      <point x="318" y="-34"/>
      <point x="300" y="-290"/>
      <point x="101" y="-290" type="curve" smooth="yes"/>
      <point x="18" y="-290"/>
      <point x="-51" y="-247"/>
      <point x="-100" y="-166" type="curve"/>
      <point x="-247" y="-303" type="line"/>
      <point x="-170" y="-419"/>
      <point x="-55" y="-480"/>
    </contour>
    <contour>
      <point x="97" y="556" type="line"/>
      <point x="1081" y="556" type="line"/>
      <point x="1114" y="742" type="line"/>
      <point x="130" y="742" type="line"/>
    </contour>
  </outline>
</glyph>
<glyph name="Gammaafrican" format="2">
  <advance width="1200"/>
  <unicode hex="0194"/>
  <anchor x="438" y="-388" name="bottom"/>
  <anchor x="757" y="1420" name="top"/>
  <outline>
    <contour>
      <point x="381" y="-462" type="line"/>
      <point x="599" y="-462"/>
      <point x="744" y="-348"/>
      <point x="744" y="-177" type="curve" smooth="yes"/>
      <point x="744" y="-89"/>
      <point x="707" y="1"/>
      <point x="597" y="106" type="curve"/>
      <point x="453" y="61" type="line"/>
      <point x="518" y="-44"/>
      <point x="541" y="-97"/>
      <point x="541" y="-142" type="curve" smooth="yes"/>
      <point x="541" y="-224"/>
      <point x="490" y="-278"/>
      <point x="414" y="-278" type="curve"/>
    </contour>
    <contour>
      <point x="381" y="-462" type="curve"/>
      <point x="414" y="-278" type="line"/>
      <point x="349" y="-278"/>
      <point x="305" y="-243"/>
      <point x="305" y="-189" type="curve" smooth="yes"/>
      <point x="305" y="-125"/>
      <point x="349" y="-73"/>
      <point x="521" y="61" type="curve"/>
      <point x="375" y="106" type="line"/>
      <point x="216" y="14"/>
      <point x="102" y="-91"/>
      <point x="102" y="-232" type="curve" smooth="yes"/>
      <point x="102" y="-370"/>
      <point x="213" y="-462"/>
    </contour>
    <contour>
      <point x="307" y="0" type="line"/>
      <point x="470" y="56" type="line"/>
      <point x="599" y="0" type="line"/>
      <point x="928" y="368"/>
      <point x="1155" y="856"/>
      <point x="1312" y="1420" type="curve"/>
      <point x="1098" y="1420" type="line"/>
      <point x="950" y="924"/>
      <point x="763" y="503"/>
      <point x="512" y="172" type="curve"/>
      <point x="494" y="172" type="line"/>
      <point x="414" y="1432" type="line"/>
      <point x="202" y="1420" type="line"/>
    </contour>
  </outline>
</glyph>
<glyph name="lbar" format="2">
  <advance width="1200"/>
  <unicode hex="019A"/>
  <outline>
    <contour>
      <point x="91" y="812" type="line"/>
      <point x="1179" y="812" type="line"/>
      <point x="1213" y="1002" type="line"/>
      <point x="125" y="1002" type="line"/>
    </contour>
    <component base="l"/>
  </outline>
</glyph>
<glyph name="lambdastroke" format="2">
  <advance width="1200"/>
  <unicode hex="019B"/>
  <outline>
    <contour>
      <point x="127" y="866" type="line"/>
      <point x="1025" y="1136" type="line"/>
      <point x="972" y="1331" type="line"/>
      <point x="72" y="1061" type="line"/>
    </contour>
    <component base="lambda"/>
  </outline>
</glyph>
<glyph name="Nhookleft" format="2">
  <advance width="1200"/>
  <unicode hex="019D"/>
  <anchor x="438" y="-388" name="bottom"/>
  <outline>
    <contour>
      <point x="82" y="151" type="line"/>
      <point x="49" y="-33" type="line" smooth="yes"/>
      <point x="24" y="-174"/>
      <point x="-51" y="-234"/>
      <point x="-224" y="-266" type="curve" smooth="yes"/>
      <point x="-267" y="-274" type="line"/>
      <point x="-251" y="-476" type="line"/>
      <point x="-220" y="-472" type="line" smooth="yes"/>
      <point x="84" y="-433"/>
      <point x="210" y="-310"/>
      <point x="262" y="-6" type="curve" smooth="yes"/>
      <point x="289" y="151" type="line"/>
    </contour>
    <component base="N"/>
  </outline>
</glyph>
<glyph name="Uhorn" format="2">
  <advance width="1200"/>
  <unicode hex="01AF"/>
  <outline>
    <contour>
      <point x="1039" y="1255" type="line"/>
      <point x="1101" y="1265" type="line" smooth="yes"/>
      <point x="1325" y="1301"/>
      <point x="1457" y="1428"/>
      <point x="1496" y="1653" type="curve"/>
      <point x="1282" y="1653" type="line"/>
      <point x="1262" y="1523"/>
      <point x="1196" y="1448"/>
      <point x="1080" y="1430" type="curve" smooth="yes"/>
      <point x="1017" y="1420" type="line"/>
    </contour>
    <component base="U"/>
  </outline>
</glyph>
<glyph name="Upsilonafrican" format="2">
  <advance width="1200"/>
  <unicode hex="01B1"/>
  <anchor x="506" y="0" name="bottom"/>
  <anchor x="757" y="1420" name="top"/>
  <outline>
    <contour>
      <point x="471" y="1293" type="line"/>
      <point x="471" y="1212" type="line"/>
      <point x="222" y="1089"/>
      <point x="76" y="808"/>
      <point x="76" y="458" type="curve" smooth="yes"/>
      <point x="76" y="158"/>
      <point x="235" y="-20"/>
      <point x="504" y="-20" type="curve" smooth="yes"/>
      <point x="921" y="-20"/>
      <point x="1167" y="302"/>
      <point x="1167" y="847" type="curve" smooth="yes"/>
      <point x="1167" y="1027"/>
      <point x="1105" y="1162"/>
      <point x="1000" y="1212" type="curve"/>
      <point x="1000" y="1285" type="line"/>
      <point x="793" y="1234" type="line"/>
      <point x="893" y="1193"/>
      <point x="953" y="1055"/>
      <point x="953" y="864" type="curve" smooth="yes"/>
      <point x="953" y="424"/>
      <point x="798" y="164"/>
      <point x="535" y="164" type="curve" smooth="yes"/>
      <point x="381" y="164"/>
      <point x="290" y="278"/>
      <point x="290" y="470" type="curve" smooth="yes"/>
      <point x="290" y="824"/>
      <point x="425" y="1108"/>
      <point x="654" y="1234" type="curve"/>
    </contour>
    <contour>
      <point x="260" y="1420" type="line"/>
      <point x="227" y="1234" type="line"/>
      <point x="654" y="1234" type="line"/>
      <point x="687" y="1420" type="line"/>
    </contour>
    <contour>
      <point x="826" y="1420" type="line"/>
      <point x="793" y="1234" type="line"/>
      <point x="1214" y="1234" type="line"/>
      <point x="1247" y="1420" type="line"/>
    </contour>
  </outline>
</glyph>
<glyph name="Vhook" format="2">
  <advance width="1200"/>
  <unicode hex="01B2"/>
  <anchor x="506" y="0" name="bottom"/>
  <anchor x="1005" y="10" name="ogonek"/>
  <anchor x="757" y="1420" name="top"/>
  <anchor x="1354" y="1420" name="topright"/>
  <outline>
    <contour>
      <point x="785" y="1420" type="line"/>
      <point x="751" y="1230" type="line"/>
      <point x="831" y="1230" type="line" smooth="yes"/>
      <point x="937" y="1230"/>
      <point x="968" y="1188"/>
      <point x="947" y="1070" type="curve" smooth="yes"/>
      <point x="839" y="456" type="line" smooth="yes"/>
      <point x="805" y="266"/>
      <point x="704" y="170"/>
      <point x="537" y="170" type="curve" smooth="yes"/>
      <point x="363" y="170"/>
      <point x="301" y="266"/>
      <point x="335" y="456" type="curve" smooth="yes"/>
      <point x="505" y="1420" type="line"/>
      <point x="297" y="1420" type="line"/>
      <point x="127" y="456" type="line" smooth="yes"/>
      <point x="71" y="138"/>
      <point x="195" y="-20"/>
      <point x="499" y="-20" type="curve" smooth="yes"/>
      <point x="803" y="-20"/>
      <point x="991" y="138"/>
      <point x="1047" y="456" type="curve" smooth="yes"/>
      <point x="1164" y="1120" type="line" smooth="yes"/>
      <point x="1197" y="1309"/>
      <point x="1097" y="1420"/>
      <point x="893" y="1420" type="curve" smooth="yes"/>
    </contour>
  </outline>
</glyph>
<glyph name="Ezh" format="2">
  <advance width="1200"/>
  <unicode hex="01B7"/>
  <anchor x="506" y="0" name="bottom"/>
  <anchor x="757" y="1420" name="top"/>
  <outline>
    <contour>
      <point x="459" y="-20" type="curve" smooth="yes"/>
      <point x="842" y="-20"/>
      <point x="1069" y="159"/>
      <point x="1069" y="461" type="curve" smooth="yes"/>
      <point x="1069" y="689"/>
      <point x="904" y="821"/>
      <point x="606" y="826" type="curve"/>
      <point x="619" y="783" type="line"/>
      <point x="1138" y="1219" type="line"/>
      <point x="1103" y="1420" type="line"/>
      <point x="320" y="1420" type="line"/>
      <point x="287" y="1234" type="line"/>
      <point x="964" y="1234" type="line"/>
      <point x="956" y="1295" type="line"/>
      <point x="366" y="796" type="line"/>
      <point x="384" y="672" type="line"/>
      <point x="499" y="672" type="line" smooth="yes"/>
      <point x="729" y="672"/>
      <point x="856" y="593"/>
      <point x="856" y="452" type="curve" smooth="yes"/>
      <point x="856" y="269"/>
      <point x="700" y="164"/>
      <point x="496" y="164" type="curve" smooth="yes"/>
      <point x="364" y="164"/>
      <point x="257" y="212"/>
      <point x="154" y="294" type="curve"/>
      <point x="17" y="141" type="line"/>
      <point x="124" y="40"/>
      <point x="269" y="-20"/>
    </contour>
  </outline>
</glyph>
<glyph name="Gstroke" format="2">
  <advance width="1200"/>
  <unicode hex="01E4"/>
  <anchor x="586" y="0" name="bottom"/>
  <anchor x="857" y="1420" name="top"/>
  <outline>
    <contour>
      <point x="591" y="-20" type="curve" smooth="yes"/>
      <point x="777" y="-20"/>
      <point x="942" y="22"/>
      <point x="1003" y="40" type="curve"/>
      <point x="956" y="214" type="line"/>
      <point x="885" y="196"/>
      <point x="773" y="164"/>
      <point x="637" y="164" type="curve" smooth="yes"/>
      <point x="412" y="164"/>
      <point x="297" y="289"/>
      <point x="297" y="539" type="curve" smooth="yes"/>
      <point x="297" y="959"/>
      <point x="532" y="1256"/>
      <point x="840" y="1256" type="curve" smooth="yes"/>
      <point x="951" y="1256"/>
      <point x="1034" y="1198"/>
      <point x="1094" y="1124" type="curve"/>
      <point x="1249" y="1262" type="line"/>
      <point x="1177" y="1365"/>
      <point x="1069" y="1440"/>
      <point x="880" y="1440" type="curve" smooth="yes"/>
      <point x="390" y="1440"/>
      <point x="83" y="1046"/>
      <point x="83" y="513" type="curve" smooth="yes"/>
      <point x="83" y="178"/>
      <point x="272" y="-20"/>
    </contour>
    <contour>
      <point x="795" y="40" type="line"/>
      <point x="1003" y="40" type="line"/>
      <point x="1121" y="710" type="line"/>
      <point x="913" y="710" type="line"/>
    </contour>
    <contour>
      <point x="611" y="370" type="line"/>
      <point x="1172" y="370" type="line"/>
      <point x="1205" y="560" type="line"/>
      <point x="644" y="560" type="line"/>
    </contour>
  </outline>
</glyph>
<glyph name="gstroke" format="2">
  <advance width="1200"/>
  <unicode hex="01E5"/>
  <outline>
    <contour>
      <point x="-83" y="-193" type="line"/>
      <point x="1028" y="-193" type="line"/>
      <point x="1048" y="-85" type="line"/>
      <point x="-63" y="-85" type="line"/>
    </contour>
    <component base="g"/>
  </outline>
</glyph>
<glyph name="Oogonek" format="2">
  <advance width="1200"/>
  <unicode hex="01EA"/>
  <anchor x="438" y="-388" name="bottom"/>
  <outline>
    <contour>
      <point x="501" y="-424" type="curve" smooth="yes"/>
      <point x="562" y="-424"/>
      <point x="623" y="-413"/>
      <point x="681" y="-391" type="curve"/>
      <point x="649" y="-232" type="line"/>
      <point x="608" y="-248"/>
      <point x="566" y="-256"/>
      <point x="527" y="-256" type="curve" smooth="yes"/>
      <point x="464" y="-256"/>
      <point x="431" y="-227"/>
      <point x="431" y="-173" type="curve" smooth="yes"/>
      <point x="431" y="-64"/>
      <point x="557" y="-32"/>
      <point x="662" y="-2" type="curve"/>
      <point x="654" y="28" type="line"/>
      <point x="424" y="21" type="line"/>
      <point x="424" y="-29" type="line"/>
      <point x="339" y="-67"/>
      <point x="281" y="-138"/>
      <point x="281" y="-242" type="curve" smooth="yes"/>
      <point x="281" y="-364"/>
      <point x="356" y="-424"/>
    </contour>
    <component base="O"/>
  </outline>
</glyph>
<glyph name="jdotless" format="2">
  <advance width="1200"/>
  <unicode hex="0237"/>
  <anchor x="438" y="-388" name="bottom"/>
  <anchor x="816" y="1060" name="top"/>
  <outline>
    <contour>
      <point x="27" y="-480" type="line"/>
      <point x="217" y="-468" type="line" smooth="yes"/>
      <point x="636" y="-442"/>
      <point x="749" y="-265"/>
      <point x="820" y="134" type="curve" smooth="yes"/>
      <point x="925" y="727" type="line" smooth="yes"/>
      <point x="969" y="975"/>
      <point x="887" y="1081"/>
      <point x="655" y="1081" type="curve" smooth="yes"/>
      <point x="510" y="1081"/>
      <point x="363" y="1065"/>
      <point x="220" y="1038" type="curve"/>
      <point x="241" y="851" type="line"/>
      <point x="368" y="874"/>
      <point x="496" y="894"/>
      <point x="623" y="894" type="curve" smooth="yes"/>
      <point x="704" y="894"/>
      <point x="732" y="850"/>
      <point x="714" y="747" type="curve" smooth="yes"/>
      <point x="599" y="102" type="line" smooth="yes"/>
      <point x="556" y="-139"/>
      <point x="492" y="-253"/>
      <point x="237" y="-274" type="curve" smooth="yes"/>
      <point x="17" y="-292" type="line"/>
    </contour>
  </outline>
</glyph>
<glyph name="Astroke" format="2">
  <advance width="1200"/>
  <unicode hex="023A"/>
  <anchor x="438" y="-388" name="bottom"/>
  <anchor x="871" y="1500" name="top"/>
  <outline>
    <contour>
      <point x="364" y="-338" type="line"/>
      <point x="640" y="428" type="line"/>
      <point x="649" y="479" type="line"/>
      <point x="835" y="994" type="line"/>
      <point x="886" y="1107" type="line"/>
      <point x="1095" y="1684" type="line"/>
      <point x="967" y="1716" type="line"/>
      <point x="815" y="1296" type="line"/>
      <point x="796" y="1231" type="line"/>
      <point x="526" y="484" type="line"/>
      <point x="498" y="420" type="line"/>
      <point x="235" y="-306" type="line"/>
    </contour>
    <component base="A"/>
  </outline>
</glyph>
<glyph name="Cstroke" format="2">
  <advance width="1200"/>
  <unicode hex="023B"/>
  <anchor x="438" y="-388" name="bottom"/>
  <anchor x="871" y="1500" name="top"/>
  <outline>
    <contour>
      <point x="394" y="-338" type="line"/>
      <point x="1125" y="1684" type="line"/>
      <point x="997" y="1716" type="line"/>
      <point x="265" y="-306" type="line"/>
    </contour>
    <component base="C"/>
  </outline>
</glyph>
<glyph name="Lbar" format="2">
  <advance width="1200"/>
  <unicode hex="023D"/>
  <outline>
    <contour>
      <point x="1" y="647" type="line"/>
      <point x="837" y="647" type="line"/>
      <point x="871" y="837" type="line"/>
      <point x="35" y="837" type="line"/>
    </contour>
    <component base="L"/>
  </outline>
</glyph>
<glyph name="Tdiagonalstroke" format="2">
  <advance width="1200"/>
  <unicode hex="023E"/>
  <anchor x="438" y="-388" name="bottom"/>
  <anchor x="770" y="1500" name="top"/>
  <outline>
    <contour>
      <point x="200" y="-352" type="line"/>
      <point x="1312" y="1667" type="line"/>
      <point x="1195" y="1728" type="line"/>
      <point x="95" y="-295" type="line"/>
    </contour>
    <component base="T"/>
  </outline>
</glyph>
<glyph name="oopen" format="2">
  <advance width="1200"/>
  <unicode hex="0254"/>
  <anchor x="500" y="0" name="bottom"/>
  <anchor x="727" y="1060" name="top"/>
  <outline>
    <contour>
      <point x="634" y="890" type="curve" smooth="yes"/>
      <point x="778" y="890"/>
      <point x="861" y="809"/>
      <point x="862" y="669" type="curve" smooth="yes"/>
      <point x="861" y="368"/>
      <point x="702" y="170"/>
      <point x="461" y="170" type="curve" smooth="yes"/>
      <point x="364" y="170"/>
      <point x="271" y="205"/>
      <point x="190" y="273" type="curve"/>
      <point x="65" y="130" type="line"/>
      <point x="158" y="31"/>
      <point x="284" y="-20"/>
      <point x="433" y="-20" type="curve" smooth="yes"/>
      <point x="821" y="-20"/>
      <point x="1076" y="262"/>
      <point x="1076" y="691" type="curve" smooth="yes"/>
      <point x="1076" y="938"/>
      <point x="926" y="1080"/>
      <point x="663" y="1080" type="curve" smooth="yes"/>
      <point x="510" y="1080"/>
      <point x="357" y="1049"/>
      <point x="242" y="1001" type="curve"/>
      <point x="277" y="822" type="line"/>
      <point x="374" y="863"/>
      <point x="504" y="890"/>
    </contour>
  </outline>
</glyph>
<glyph name="dtail" format="2">
  <advance width="1200"/>
  <unicode hex="0256"/>
  <anchor x="462" y="-251" name="bottom"/>
  <anchor x="568" y="532" name="center"/>
  <anchor x="1045" y="1500" name="top"/>
  <anchor x="1219" y="1062" name="topright"/>
  <outline>
    <contour>
      <point x="305" y="-21" type="curve" smooth="yes"/>
      <point x="511" y="-21"/>
      <point x="667" y="98"/>
      <point x="733" y="279" type="curve"/>
      <point x="680" y="222" type="line"/>
      <point x="796" y="222" type="line"/>
      <point x="813" y="667" type="line"/>
      <point x="750" y="350"/>
      <point x="604" y="169"/>
      <point x="417" y="169" type="curve" smooth="yes"/>
      <point x="328" y="169"/>
      <point x="277" y="217"/>
      <point x="277" y="302" type="curve" smooth="yes"/>
      <point x="277" y="627"/>
      <point x="571" y="873"/>
      <point x="946" y="890" type="curve"/>
      <point x="1097" y="1080" type="line"/>
      <point x="1079" y="1080" type="line" smooth="yes"/>
      <point x="501" y="1080"/>
      <point x="63" y="765"/>
      <point x="63" y="277" type="curve" smooth="yes"/>
      <point x="63" y="88"/>
      <point x="151" y="-21"/>
    </contour>
    <contour>
      <point x="1101" y="-469" type="line"/>
      <point x="1145" y="-281" type="line"/>
      <point x="1099" y="-274" type="line" smooth="yes"/>
      <point x="937" y="-249"/>
      <point x="883" y="-156"/>
      <point x="922" y="62" type="curve" smooth="yes"/>
      <point x="1026" y="645" type="line"/>
      <point x="809" y="645" type="line"/>
      <point x="711" y="94" type="line" smooth="yes"/>
      <point x="644" y="-284"/>
      <point x="756" y="-447"/>
      <point x="1085" y="-468" type="curve" smooth="yes"/>
    </contour>
    <contour>
      <point x="809" y="645" type="line"/>
      <point x="1026" y="645" type="line"/>
      <point x="1114" y="1156" type="line" smooth="yes"/>
      <point x="1157" y="1399"/>
      <point x="1069" y="1520"/>
      <point x="843" y="1520" type="curve" smooth="yes"/>
      <point x="783" y="1520"/>
      <point x="722" y="1516"/>
      <point x="663" y="1504" type="curve"/>
      <point x="684" y="1322" type="line"/>
      <point x="720" y="1330"/>
      <point x="757" y="1335"/>
      <point x="793" y="1333" type="curve" smooth="yes"/>
      <point x="884" y="1330"/>
      <point x="921" y="1278"/>
      <point x="903" y="1176" type="curve" smooth="yes"/>
    </contour>
  </outline>
</glyph>
